STARTFONT 2.1
FONT -FontForge-Good Times Rg-Book-R-Normal--173-1660-75-75-P-1284-ISO10646-1
SIZE 166 75 75
FONTBOUNDINGBOX 345 204 -48 -35
COMMENT "Generated by fontforge, http://fontforge.sourceforge.net"
COMMENT "(c) 1998-2012 Typodermic Fonts Inc. See attached license agreement. If agreement is missing visit typodermicfonts.com for more info. Languages by Chikako Larabie"
STARTPROPERTIES 39
FOUNDRY "FontForge"
FAMILY_NAME "Good Times Rg"
WEIGHT_NAME "Book"
SLANT "R"
SETWIDTH_NAME "Normal"
ADD_STYLE_NAME ""
PIXEL_SIZE 173
POINT_SIZE 1660
RESOLUTION_X 75
RESOLUTION_Y 75
SPACING "P"
AVERAGE_WIDTH 1284
CHARSET_REGISTRY "ISO10646"
CHARSET_ENCODING "1"
FONTNAME_REGISTRY ""
CHARSET_COLLECTIONS "ISO8859-2 ISO8859-9 ISO8859-4 ISO10646-1"
FONT_NAME "GoodTimesRg-Regular"
FACE_NAME "GoodTimesRg-Regular"
COPYRIGHT "(c) 1998-2012 Typodermic Fonts Inc. See attached license agreement. If agreement is missing visit typodermicfonts.com for more info. Languages by Chikako Larabie"
FONT_VERSION "4.001"
FONT_ASCENT 138
FONT_DESCENT 35
UNDERLINE_POSITION -25
UNDERLINE_THICKNESS 4
X_HEIGHT 125
CAP_HEIGHT 125
RAW_ASCENT 799
RAW_DESCENT 201
NORM_SPACE 51
RELATIVE_WEIGHT 40
RELATIVE_SETWIDTH 50
SUPERSCRIPT_X 0
SUPERSCRIPT_Y 51
SUPERSCRIPT_SIZE 51
SUBSCRIPT_X 0
SUBSCRIPT_Y 0
SUBSCRIPT_SIZE 51
AVG_LOWERCASE_WIDTH 1473
AVG_UPPERCASE_WIDTH 1467
ENDPROPERTIES
CHARS 372
STARTCHAR space
ENCODING 32
SWIDTH 294 0
DWIDTH 51 0
BBX 1 1 0 0
BITMAP
00
ENDCHAR
STARTCHAR exclam
ENCODING 33
SWIDTH 298 0
DWIDTH 52 0
BBX 24 126 14 0
BITMAP
7FFFFC
7FFFFC
7FFFFC
7FFFFC
7FFFFC
7FFFFC
7FFFFC
7FFFFC
7FFFFC
7FFFFC
7FFFFC
7FFFFC
7FFFFC
7FFFFC
7FFFFC
7FFFFC
7FFFFC
7FFFFC
7FFFFC
7FFFFC
7FFFFC
7FFFFC
7FFFFC
7FFFFC
7FFFFC
7FFFFC
7FFFFC
7FFFFC
7FFFFC
7FFFFC
7FFFFC
7FFFFC
7FFFFC
7FFFFC
7FFFFC
7FFFFC
7FFFFC
7FFFFC
7FFFFC
7FFFFC
7FFFFC
7FFFFC
7FFFFC
7FFFFC
7FFFFC
7FFFFC
7FFFFC
7FFFFC
7FFFFC
7FFFFC
7FFFFC
7FFFFC
7FFFFC
7FFFFC
7FFFFC
7FFFFC
7FFFFC
7FFFFC
7FFFFC
7FFFFC
7FFFFC
7FFFFC
7FFFFC
7FFFFC
7FFFFC
7FFFFC
7FFFFC
7FFFFC
7FFFFC
7FFFFC
7FFFFC
7FFFFC
7FFFFC
7FFFFC
7FFFFC
7FFFFC
7FFFFC
7FFFFC
7FFFFC
7FFFFC
7FFFFC
7FFFFC
7FFFFC
7FFFFC
7FFFFC
7FFFFC
000000
000000
000000
000000
000000
000000
000000
000000
000000
000000
000000
000000
000000
000000
000000
000000
007F00
03FFC0
07FFF0
0FFFF8
1FFFFC
3FFFFC
7FFFFE
7FFFFE
7FFFFE
7FFFFF
FFFFFF
FFFFFF
FFFFFF
FFFFFF
7FFFFF
7FFFFE
7FFFFE
7FFFFE
3FFFFC
1FFFFC
0FFFF8
07FFF0
03FFC0
00FF00
ENDCHAR
STARTCHAR quotedbl
ENCODING 34
SWIDTH 452 0
DWIDTH 78 0
BBX 54 45 12 81
BITMAP
FFFFFC00FFFFFC
FFFFFC00FFFFFC
FFFFFC00FFFFFC
FFFFFC00FFFFFC
FFFFFC007FFFFC
FFFFFC007FFFFC
FFFFFC007FFFFC
FFFFF8007FFFFC
7FFFF8007FFFFC
7FFFF8007FFFFC
7FFFF8007FFFFC
7FFFF8007FFFF8
7FFFF8007FFFF8
7FFFF8007FFFF8
7FFFF8007FFFF8
7FFFF8003FFFF8
7FFFF8003FFFF8
7FFFF8003FFFF8
7FFFF0003FFFF8
7FFFF0003FFFF8
3FFFF0003FFFF8
3FFFF0003FFFF8
3FFFF0003FFFF0
3FFFF0003FFFF0
3FFFF0003FFFF0
3FFFF0003FFFF0
3FFFF0001FFFF0
3FFFF0001FFFF0
3FFFF0001FFFF0
3FFFE0001FFFF0
3FFFE0001FFFF0
1FFFE0001FFFF0
1FFFE0001FFFF0
1FFFE0001FFFE0
1FFFE0001FFFE0
1FFFE0001FFFE0
1FFFE0001FFFE0
1FFFE0000FFFE0
1FFFE0000FFFE0
1FFFE0000FFFE0
1FFFE0000FFFE0
1FFFC0000FFFE0
0FFFC0000FFFE0
0FFFC0000FFFE0
0FFFC0000FFFE0
ENDCHAR
STARTCHAR numbersign
ENCODING 35
SWIDTH 697 0
DWIDTH 121 0
BBX 106 126 8 0
BITMAP
00000000001FFFE000000FFFF000
00000000003FFFC000000FFFE000
00000000003FFFC000001FFFE000
00000000003FFFC000001FFFE000
00000000007FFF8000001FFFC000
00000000007FFF8000001FFFC000
00000000007FFF8000003FFFC000
00000000007FFF0000003FFFC000
0000000000FFFF0000003FFF8000
0000000000FFFF0000007FFF8000
0000000000FFFE0000007FFF8000
0000000001FFFE0000007FFF0000
0000000001FFFE000000FFFF0000
0000000001FFFE000000FFFF0000
0000000003FFFC000000FFFE0000
0000000003FFFC000000FFFE0000
0000000003FFFC000001FFFE0000
0000000003FFF8000001FFFC0000
0000000007FFF8000001FFFC0000
0000000007FFF8000003FFFC0000
0000000007FFF0000003FFFC0000
000000000FFFF0000003FFF80000
000000000FFFF0000007FFF80000
000000000FFFF0000007FFF80000
000000001FFFE0000007FFF00000
000000001FFFE000000FFFF00000
000000001FFFE000000FFFF00000
000000001FFFC000000FFFE00000
000000003FFFC000000FFFE00000
000000003FFFC000001FFFE00000
000000003FFF8000001FFFE00000
000000007FFF8000001FFFC00000
0007FFFFFFFFFFFFFFFFFFFFFFC0
0007FFFFFFFFFFFFFFFFFFFFFFC0
0007FFFFFFFFFFFFFFFFFFFFFFC0
0007FFFFFFFFFFFFFFFFFFFFFFC0
0007FFFFFFFFFFFFFFFFFFFFFFC0
0007FFFFFFFFFFFFFFFFFFFFFFC0
0007FFFFFFFFFFFFFFFFFFFFFFC0
0007FFFFFFFFFFFFFFFFFFFFFFC0
0007FFFFFFFFFFFFFFFFFFFFFFC0
0007FFFFFFFFFFFFFFFFFFFFFFC0
0007FFFFFFFFFFFFFFFFFFFFFFC0
0007FFFFFFFFFFFFFFFFFFFFFFC0
0007FFFFFFFFFFFFFFFFFFFFFFC0
0007FFFFFFFFFFFFFFFFFFFFFFC0
0007FFFFFFFFFFFFFFFFFFFFFFC0
00000007FFF0000003FFF8000000
0000000FFFF0000003FFF8000000
0000000FFFF0000007FFF8000000
0000000FFFE0000007FFF8000000
0000001FFFE0000007FFF0000000
0000001FFFE000000FFFF0000000
0000001FFFC000000FFFF0000000
0000003FFFC000000FFFE0000000
0000003FFFC000001FFFE0000000
0000003FFF8000001FFFE0000000
0000003FFF8000001FFFC0000000
0000007FFF8000001FFFC0000000
0000007FFF8000003FFFC0000000
0000007FFF0000003FFFC0000000
000000FFFF0000003FFF80000000
000000FFFF0000007FFF80000000
000000FFFE0000007FFF80000000
000001FFFE0000007FFF00000000
000001FFFE000000FFFF00000000
000001FFFC000000FFFF00000000
000001FFFC000000FFFE00000000
000003FFFC000000FFFE00000000
000003FFFC000001FFFE00000000
000003FFF8000001FFFE00000000
000007FFF8000001FFFC00000000
000007FFF8000003FFFC00000000
000007FFF0000003FFFC00000000
00000FFFF0000003FFF800000000
00000FFFF0000007FFF800000000
00000FFFE0000007FFF800000000
FFFFFFFFFFFFFFFFFFFFFFF00000
FFFFFFFFFFFFFFFFFFFFFFF00000
FFFFFFFFFFFFFFFFFFFFFFF00000
FFFFFFFFFFFFFFFFFFFFFFF00000
FFFFFFFFFFFFFFFFFFFFFFF00000
FFFFFFFFFFFFFFFFFFFFFFF00000
FFFFFFFFFFFFFFFFFFFFFFF00000
FFFFFFFFFFFFFFFFFFFFFFF00000
FFFFFFFFFFFFFFFFFFFFFFF00000
FFFFFFFFFFFFFFFFFFFFFFF00000
FFFFFFFFFFFFFFFFFFFFFFF00000
FFFFFFFFFFFFFFFFFFFFFFF00000
FFFFFFFFFFFFFFFFFFFFFFF00000
FFFFFFFFFFFFFFFFFFFFFFF00000
FFFFFFFFFFFFFFFFFFFFFFF00000
0001FFFE000000FFFF0000000000
0001FFFC000000FFFF0000000000
0003FFFC000000FFFE0000000000
0003FFFC000001FFFE0000000000
0003FFF8000001FFFE0000000000
0003FFF8000001FFFC0000000000
0007FFF8000001FFFC0000000000
0007FFF8000003FFFC0000000000
0007FFF0000003FFFC0000000000
000FFFF0000003FFF80000000000
000FFFF0000007FFF80000000000
000FFFE0000007FFF80000000000
001FFFE0000007FFF00000000000
001FFFE000000FFFF00000000000
001FFFC000000FFFF00000000000
001FFFC000000FFFE00000000000
003FFFC000000FFFE00000000000
003FFFC000001FFFE00000000000
003FFF8000001FFFE00000000000
007FFF8000001FFFC00000000000
007FFF8000003FFFC00000000000
007FFF0000003FFFC00000000000
007FFF0000003FFF800000000000
00FFFF0000007FFF800000000000
00FFFE0000007FFF800000000000
00FFFE0000007FFF000000000000
01FFFE0000007FFF000000000000
01FFFE000000FFFF000000000000
01FFFC000000FFFF000000000000
03FFFC000000FFFE000000000000
03FFFC000001FFFE000000000000
03FFF8000001FFFE000000000000
03FFF8000001FFFC000000000000
07FFF8000003FFFC000000000000
ENDCHAR
STARTCHAR dollar
ENCODING 36
SWIDTH 744 0
DWIDTH 129 0
BBX 109 126 10 0
BITMAP
0000000000003FF0000000000000
0000000000003FF0000000000000
0000000000003FF0000000000000
0000000000003FF0000000000000
0000000000003FF0000000000000
0000000000003FF0000000000000
0000000000003FF0000000000000
0000000000003FF0000000000000
0000000000003FF0000000000000
0000000000003FF0000000000000
0000000000003FF0000000000000
0000000000003FF0000000000000
000000FFFFFFFFFFFFFFFFFFFF00
00000FFFFFFFFFFFFFFFFFFFFF00
00007FFFFFFFFFFFFFFFFFFFFF00
0001FFFFFFFFFFFFFFFFFFFFFF00
0007FFFFFFFFFFFFFFFFFFFFFF00
001FFFFFFFFFFFFFFFFFFFFFFF00
003FFFFFFFFFFFFFFFFFFFFFFF00
007FFFFFFFFFFFFFFFFFFFFFFF00
00FFFFFFFFFFFFFFFFFFFFFFFF00
01FFFFFFFFFFFFFFFFFFFFFFFF00
03FFFFFFFFFFFFFFFFFFFFFFFF00
07FFFFFFFFFFFFFFFFFFFFFFFF00
0FFFFFFFFFFFFFFFFFFFFFFFFF00
0FFFFFFFFFFFFFFFFFFFFFFFFF00
1FFFFFFFFFFFFFFFFFFFFFFFFF00
1FFFFFFFFFFFFFFFFFFFFFFFFF00
3FFFFFFFFFFFFFFFFFFFFFFFFF00
3FFFFFFFFFFFFFFFFFFFFFFFFF00
7FFFFFE000003FF0000000000000
7FFFFF0000003FF0000000000000
7FFFFC0000003FF0000000000000
7FFFF80000003FF0000000000000
FFFFF80000003FF0000000000000
FFFFF00000003FF0000000000000
FFFFE00000003FF0000000000000
FFFFE00000003FF0000000000000
FFFFE00000003FF0000000000000
FFFFC00000003FF0000000000000
FFFFC00000003FF0000000000000
FFFFC00000003FF0000000000000
FFFFC00000003FF0000000000000
FFFFC00000003FF0000000000000
FFFFC00000003FF0000000000000
FFFFC00000003FF0000000000000
FFFFE00000003FF0000000000000
7FFFE00000003FF0000000000000
7FFFE00000003FF0000000000000
7FFFF00000003FF0000000000000
7FFFF80000003FF0000000000000
3FFFF80000003FF0000000000000
3FFFFE0000003FF0000000000000
3FFFFF0000003FF0000000000000
1FFFFFE000003FF0000000000000
1FFFFFFFFFFFFFFFFFFFF8000000
0FFFFFFFFFFFFFFFFFFFFFC00000
07FFFFFFFFFFFFFFFFFFFFF80000
07FFFFFFFFFFFFFFFFFFFFFE0000
03FFFFFFFFFFFFFFFFFFFFFF8000
01FFFFFFFFFFFFFFFFFFFFFFC000
00FFFFFFFFFFFFFFFFFFFFFFF000
007FFFFFFFFFFFFFFFFFFFFFF800
003FFFFFFFFFFFFFFFFFFFFFFC00
000FFFFFFFFFFFFFFFFFFFFFFE00
0007FFFFFFFFFFFFFFFFFFFFFE00
0001FFFFFFFFFFFFFFFFFFFFFF00
00007FFFFFFFFFFFFFFFFFFFFF80
00000FFFFFFFFFFFFFFFFFFFFF80
000000FFFFFFFFFFFFFFFFFFFFC0
0000000000003FF000003FFFFFC0
0000000000003FF0000007FFFFE0
0000000000003FF0000001FFFFE0
0000000000003FF0000000FFFFE0
0000000000003FF00000007FFFE0
0000000000003FF00000003FFFF0
0000000000003FF00000003FFFF0
0000000000003FF00000001FFFF0
0000000000003FF00000001FFFF0
0000000000003FF00000001FFFF0
0000000000003FF00000000FFFF0
0000000000003FF00000000FFFF0
0000000000003FF00000000FFFF0
0000000000003FF00000000FFFF0
0000000000003FF00000000FFFF8
0000000000003FF00000000FFFF0
0000000000003FF00000001FFFF0
0000000000003FF00000001FFFF0
0000000000003FF00000001FFFF0
0000000000003FF00000003FFFF0
0000000000003FF00000003FFFF0
0000000000003FF00000007FFFF0
0000000000003FF0000000FFFFF0
0000000000003FF0000001FFFFE0
0000000000003FF0000007FFFFE0
0000000000003FF000003FFFFFE0
7FFFFFFFFFFFFFFFFFFFFFFFFFC0
7FFFFFFFFFFFFFFFFFFFFFFFFFC0
7FFFFFFFFFFFFFFFFFFFFFFFFFC0
7FFFFFFFFFFFFFFFFFFFFFFFFF80
7FFFFFFFFFFFFFFFFFFFFFFFFF80
7FFFFFFFFFFFFFFFFFFFFFFFFF00
7FFFFFFFFFFFFFFFFFFFFFFFFE00
7FFFFFFFFFFFFFFFFFFFFFFFFE00
7FFFFFFFFFFFFFFFFFFFFFFFFC00
7FFFFFFFFFFFFFFFFFFFFFFFF800
7FFFFFFFFFFFFFFFFFFFFFFFF000
7FFFFFFFFFFFFFFFFFFFFFFFE000
7FFFFFFFFFFFFFFFFFFFFFFF8000
7FFFFFFFFFFFFFFFFFFFFFFF0000
7FFFFFFFFFFFFFFFFFFFFFFC0000
7FFFFFFFFFFFFFFFFFFFFFF00000
7FFFFFFFFFFFFFFFFFFFFF800000
7FFFFFFFFFFFFFFFFFFFF0000000
0000000000003FF0000000000000
0000000000003FF0000000000000
0000000000003FF0000000000000
0000000000003FF0000000000000
0000000000003FF0000000000000
0000000000003FF0000000000000
0000000000003FF0000000000000
0000000000003FF0000000000000
0000000000003FF0000000000000
0000000000003FF0000000000000
0000000000003FF0000000000000
0000000000003FF0000000000000
ENDCHAR
STARTCHAR percent
ENCODING 37
SWIDTH 965 0
DWIDTH 167 0
BBX 153 145 7 -12
BITMAP
0000000000000000000000000000001FFFC00000
0000000000000000000000000000003FFF800000
0000000000000000000000000000007FFF000000
0000000000000000000000000000007FFE000000
0000001FFE00000000000000000000FFFE000000
000003FFFFE0000000000000000001FFFC000000
00000FFFFFFC000000000000000003FFF8000000
00007FFFFFFF000000000000000003FFF0000000
0001FFFFFFFFC00000000000000007FFF0000000
0003FFFFFFFFF0000000000000000FFFE0000000
000FFFFFFFFFF8000000000000001FFFC0000000
001FFFFFFFFFFC000000000000003FFF80000000
003FFFFFFFFFFF000000000000003FFF00000000
007FFFFFFFFFFF800000000000007FFF00000000
00FFFFFFFFFFFF80000000000000FFFE00000000
01FFFFE003FFFFC0000000000001FFFC00000000
01FFFF00003FFFE0000000000003FFF800000000
03FFF800000FFFF0000000000003FFF000000000
07FFF0000003FFF8000000000007FFF000000000
07FFC0000001FFF800000000000FFFE000000000
0FFF80000000FFFC00000000001FFFC000000000
1FFF000000007FFC00000000001FFF8000000000
1FFF000000003FFE00000000003FFF8000000000
1FFE000000001FFE00000000007FFF0000000000
3FFC000000001FFF0000000000FFFE0000000000
3FFC000000000FFF0000000001FFFC0000000000
3FF8000000000FFF0000000001FFF80000000000
7FF80000000007FF0000000003FFF80000000000
7FF00000000007FF8000000007FFF00000000000
7FF00000000007FF800000000FFFE00000000000
7FF00000000003FF800000000FFFC00000000000
7FF00000000003FF800000001FFFC00000000000
FFE00000000003FF800000003FFF800000000000
FFE00000000003FF800000007FFF000000000000
FFE00000000003FF80000000FFFE000000000000
FFE00000000003FF80000000FFFC000000000000
FFE00000000003FF80000001FFFC000000000000
FFE00000000003FF80000003FFF8000000000000
FFE00000000003FF80000007FFF0000000000000
FFE00000000003FF8000000FFFE0000000000000
7FE00000000003FF8000000FFFE0000000000000
7FF00000000003FF8000001FFFC0000000000000
7FF00000000003FF8000003FFF80000000000000
7FF00000000007FF8000007FFF00000000000000
7FF00000000007FF0000007FFE00000000000000
3FF80000000007FF000000FFFE00000000000000
3FF8000000000FFF000001FFFC00000000000000
3FFC000000000FFE000003FFF800000000000000
1FFC000000001FFE000007FFF000000000000000
1FFE000000001FFE000007FFE000000000000000
1FFF000000003FFC00000FFFE000000000000000
0FFF000000007FFC00001FFFC000000000000000
07FF80000000FFF800003FFF8000000000000000
07FFE0000001FFF800007FFF0000000000000000
03FFF0000003FFF000007FFF0000000000000000
03FFFC00000FFFE00000FFFE0000000000000000
01FFFF00003FFFE00001FFFC0000000000000000
00FFFFE003FFFFC00003FFF80000000000000000
007FFFFFFFFFFF800003FFF00000000000000000
003FFFFFFFFFFF000007FFF00000000000000000
001FFFFFFFFFFE00000FFFE00000000000000000
000FFFFFFFFFFC00001FFFC00000000000000000
0007FFFFFFFFF000003FFF800000000000000000
0001FFFFFFFFE000003FFF800000000000000000
0000FFFFFFFF8000007FFF000000000000000000
00003FFFFFFF000000FFFE000000000000000000
00000FFFFFF8000001FFFC000000000000000000
000001FFFFE0000001FFF8000000000000000000
0000001FFC00000003FFF8000000000000000000
000000000000000007FFF0000000000000000000
00000000000000000FFFE0000000000000000000
00000000000000001FFFC00000003FFC00000000
00000000000000001FFFC0000003FFFFC0000000
00000000000000003FFF8000001FFFFFF8000000
00000000000000007FFF0000007FFFFFFE000000
0000000000000000FFFE000001FFFFFFFF800000
0000000000000001FFFC000007FFFFFFFFE00000
0000000000000001FFFC00000FFFFFFFFFF00000
0000000000000003FFF800003FFFFFFFFFFC0000
0000000000000007FFF000007FFFFFFFFFFE0000
000000000000000FFFE00000FFFFFFFFFFFF0000
000000000000000FFFC00001FFFFFFFFFFFF8000
000000000000001FFFC00001FFFFE007FFFFC000
000000000000003FFF800003FFFE00007FFFC000
000000000000007FFF000007FFF800001FFFE000
00000000000000FFFE00000FFFE0000007FFF000
00000000000000FFFE00000FFFC0000003FFF000
00000000000001FFFC00001FFF80000001FFF800
00000000000003FFF800001FFF00000000FFF800
00000000000007FFF000003FFE000000007FFC00
0000000000000FFFE000003FFC000000003FFC00
0000000000000FFFE000007FF8000000001FFE00
0000000000001FFFC000007FF8000000001FFE00
0000000000003FFF8000007FF0000000000FFE00
0000000000007FFF000000FFF0000000000FFF00
0000000000007FFF000000FFF0000000000FFF00
000000000000FFFE000000FFE00000000007FF00
000000000001FFFC000000FFE00000000007FF00
000000000003FFF8000000FFE00000000007FF00
000000000007FFF0000000FFE00000000007FF80
000000000007FFF0000000FFE00000000007FF80
00000000000FFFE0000001FFC00000000003FF80
00000000001FFFC0000001FFC00000000003FF80
00000000003FFF80000001FFC00000000003FF80
00000000003FFF00000001FFC00000000003FF80
00000000007FFF00000000FFC00000000003FF80
0000000000FFFE00000000FFE00000000007FF80
0000000001FFFC00000000FFE00000000007FF00
0000000003FFF800000000FFE00000000007FF00
0000000003FFF800000000FFE00000000007FF00
0000000007FFF000000000FFE00000000007FF00
000000000FFFE0000000007FF0000000000FFF00
000000001FFFC0000000007FF0000000000FFE00
000000003FFF80000000007FF0000000000FFE00
000000003FFF80000000007FF8000000001FFE00
000000007FFF00000000003FF8000000003FFC00
00000000FFFE00000000003FFC000000003FFC00
00000001FFFC00000000001FFE000000007FF800
00000001FFFC00000000001FFF00000000FFF800
00000003FFF800000000000FFF80000001FFF000
00000007FFF000000000000FFFC0000003FFF000
0000000FFFE0000000000007FFE0000007FFE000
0000001FFFC0000000000003FFF800001FFFC000
0000001FFFC0000000000003FFFE00007FFFC000
0000003FFF80000000000001FFFFE007FFFF8000
0000007FFF00000000000000FFFFFFFFFFFF0000
000000FFFE000000000000007FFFFFFFFFFE0000
000001FFFE000000000000003FFFFFFFFFFC0000
000001FFFC000000000000001FFFFFFFFFF80000
000003FFF8000000000000000FFFFFFFFFF00000
000007FFF00000000000000003FFFFFFFFC00000
00000FFFE00000000000000001FFFFFFFF800000
00000FFFE000000000000000007FFFFFFE000000
00001FFFC000000000000000001FFFFFF8000000
00003FFF80000000000000000003FFFFC0000000
00007FFF000000000000000000003FFC00000000
0000FFFE00000000000000000000000000000000
0000FFFE00000000000000000000000000000000
0001FFFC00000000000000000000000000000000
0003FFF800000000000000000000000000000000
0007FFF000000000000000000000000000000000
0007FFF000000000000000000000000000000000
000FFFE000000000000000000000000000000000
001FFFC000000000000000000000000000000000
003FFF8000000000000000000000000000000000
ENDCHAR
STARTCHAR ampersand
ENCODING 38
SWIDTH 759 0
DWIDTH 131 0
BBX 118 126 8 0
BITMAP
000000001FFFFFFFE0000000000000
00000007FFFFFFFFE0000000000000
0000007FFFFFFFFFE0000000000000
000001FFFFFFFFFFE0000000000000
00000FFFFFFFFFFFE0000000000000
00003FFFFFFFFFFFE0000000000000
00007FFFFFFFFFFFE0000000000000
0001FFFFFFFFFFFFE0000000000000
0003FFFFFFFFFFFFE0000000000000
000FFFFFFFFFFFFFE0000000000000
001FFFFFFFFFFFFFE0000000000000
003FFFFFFFFFFFFFE0000000000000
003FFFFFFFFFFFFFE0000000000000
007FFFFFFFFFFFFFE0000000000000
00FFFFFFFFFFFFFFE0000000000000
01FFFFFFFFFFFFFFE0000000000000
01FFFFFFFFFFFFFFE0000000000000
03FFFFFFFFFFFFFFE0000000000000
03FFFFFFFFFFFFFFE0000000000000
07FFFFFFFFFFFFFFE0000000000000
07FFFFFFFFFFFFFFE0000000000000
07FFFFFFFFFFFFFFE0000000000000
0FFFFFFFF800000000000000000000
0FFFFFFFC000000000000000000000
0FFFFFFE0000000000000000000000
0FFFFFFC0000000000000000000000
1FFFFFF80000000000000000000000
1FFFFFF00000000000000000000000
1FFFFFE00000000000000000000000
1FFFFFE00000000000000000000000
1FFFFFC00000000000000000000000
1FFFFFC00000000000000000000000
1FFFFFC00000000000000000000000
1FFFFF800000000000000000000000
1FFFFF800000000000000000000000
1FFFFF800000000000000000000000
1FFFFF800000000000000000000000
1FFFFF800000000000000000000000
1FFFFF800000000000000000000000
1FFFFF800000000000000000000000
0FFFFF800000000000000000000000
0FFFFF800000000000000000000000
0FFFFFC00000000000000000000000
0FFFFFC00000000000000000000000
0FFFFFC00000000000000000000000
07FFFFE00000000000000000000000
07FFFFE00000000000000000000000
03FFFFF00000000000000000000000
03FFFFF80000000000000000000000
01FFFFFC0000000000000000000000
00FFFFFF0000000000000000000000
00FFFFFFC000000000000000000000
007FFFFFF800000000000000000000
003FFFFFFFFFFFFFFFFFFFFFFFFE00
001FFFFFFFFFFFFFFFFFFFFFFFFE00
000FFFFFFFFFFFFFFFFFFFFFFFFE00
0003FFFFFFFFFFFFFFFFFFFFFFFE00
0001FFFFFFFFFFFFFFFFFFFFFFFE00
00007FFFFFFFFFFFFFFFFFFFFFFE00
00001FFFFFFFFFFFFFFFFFFFFFFE00
00003FFFFFFFFFFFFFFFFFFFFFFE00
0000FFFFFFFFFFFFFFFFFFFFFFFE00
0003FFFFFFFFFFFFFFFFFFFFFFFE00
0007FFFFFFFFFFFFFFFFFFFFFFFE00
001FFFFFFFFFFFFFFFFFFFFFFFFE00
003FFFFFFFFFFFFFFFFFFFFFFFFE00
007FFFFFFFFFFFFFFFFFFFFFFFFE00
00FFFFFFFFFFFFFFFFFFFFFFFFFE00
01FFFFFFFFFFFFFFFFFFFFFFFFFE00
03FFFFFFFFFFFFFFFFFFFFFFFFFE00
03FFFFFFFFFFFFFFFFFFFFFFFFFE00
07FFFFFFF8000000003FFFFF000000
0FFFFFFF80000000003FFFFF000000
0FFFFFFC00000000003FFFFF000000
1FFFFFF000000000003FFFFF000000
1FFFFFE000000000003FFFFF000000
3FFFFFC000000000003FFFFF000000
3FFFFF8000000000003FFFFF000000
3FFFFF8000000000003FFFFF000000
7FFFFF0000000000003FFFFF000000
7FFFFF0000000000003FFFFF000000
7FFFFE0000000000003FFFFF000000
7FFFFE0000000000003FFFFF000000
7FFFFE0000000000003FFFFF000000
7FFFFE0000000000003FFFFF000000
7FFFFE0000000000003FFFFF000000
FFFFFE0000000000003FFFFF000000
FFFFFE0000000000003FFFFF000000
FFFFFE0000000000003FFFFF000000
FFFFFE0000000000003FFFFF000000
7FFFFE0000000000003FFFFF000000
7FFFFE0000000000003FFFFF000000
7FFFFE0000000000003FFFFF000000
7FFFFF0000000000003FFFFF000000
7FFFFF0000000000003FFFFF000000
7FFFFF8000000000003FFFFF000000
7FFFFF8000000000003FFFFF000000
7FFFFFC000000000003FFFFF000000
3FFFFFE000000000003FFFFF000000
3FFFFFF000000000003FFFFF000000
3FFFFFFC00000000003FFFFF000000
1FFFFFFE00000000003FFFFF000000
1FFFFFFFC0000000003FFFFF000000
1FFFFFFFFC000000003FFFFF000000
0FFFFFFFFFFFFFFFFFFFFFFFFFFFFC
0FFFFFFFFFFFFFFFFFFFFFFFFFFFFC
07FFFFFFFFFFFFFFFFFFFFFFFFFFFC
07FFFFFFFFFFFFFFFFFFFFFFFFFFFC
03FFFFFFFFFFFFFFFFFFFFFFFFFFFC
03FFFFFFFFFFFFFFFFFFFFFFFFFFFC
01FFFFFFFFFFFFFFFFFFFFFFFFFFFC
00FFFFFFFFFFFFFFFFFFFFFFFFFFFC
00FFFFFFFFFFFFFFFFFFFFFFFFFFFC
007FFFFFFFFFFFFFFFFFFFFFFFFFFC
003FFFFFFFFFFFFFFFFFFFFFFFFFFC
001FFFFFFFFFFFFFFFFFFFFFFFFFFC
000FFFFFFFFFFFFFFFFFFFFFFFFFFC
0007FFFFFFFFFFFFFFFFFFFFFFFFFC
0001FFFFFFFFFFFFFFFFFFFFFFFFFC
0000FFFFFFFFFFFFFFFFFFFFFFFFFC
00003FFFFFFFFFFFFFFFFFFFFFFFFC
00000FFFFFFFFFFFFFFFFFFFFFFFFC
000003FFFFFFFFFFFFFFFFFFFFFFFC
0000007FFFFFFFFFFFFFFFFFFFFFFC
0000000FFFFFFFFFFFFFFFFFFFFFFC
000000007FFFFFFFFFFFFFFFFFFFFC
ENDCHAR
STARTCHAR quotesingle
ENCODING 39
SWIDTH 255 0
DWIDTH 44 0
BBX 22 45 11 81
BITMAP
FFFFFC
FFFFFC
FFFFFC
FFFFFC
FFFFFC
FFFFFC
7FFFFC
7FFFFC
7FFFF8
7FFFF8
7FFFF8
7FFFF8
7FFFF8
7FFFF8
7FFFF8
7FFFF8
7FFFF8
3FFFF8
3FFFF8
3FFFF0
3FFFF0
3FFFF0
3FFFF0
3FFFF0
3FFFF0
3FFFF0
3FFFF0
3FFFF0
1FFFF0
1FFFF0
1FFFE0
1FFFE0
1FFFE0
1FFFE0
1FFFE0
1FFFE0
1FFFE0
1FFFE0
1FFFE0
0FFFE0
0FFFC0
0FFFC0
0FFFC0
0FFFC0
0FFFC0
ENDCHAR
STARTCHAR parenleft
ENCODING 40
SWIDTH 356 0
DWIDTH 62 0
BBX 35 159 16 -15
BITMAP
00003FFFE0
00003FFFC0
00003FFF80
00007FFF80
00007FFF80
0000FFFF00
0000FFFF00
0001FFFE00
0001FFFE00
0001FFFC00
0003FFFC00
0003FFFC00
0003FFF800
0007FFF800
0007FFF000
000FFFF000
000FFFF000
000FFFE000
001FFFE000
001FFFE000
001FFFC000
003FFFC000
003FFFC000
003FFF8000
007FFF8000
007FFF0000
007FFF0000
00FFFF0000
00FFFE0000
00FFFE0000
01FFFE0000
01FFFC0000
01FFFC0000
01FFFC0000
03FFFC0000
03FFF80000
03FFF80000
03FFF80000
07FFF00000
07FFF00000
07FFF00000
07FFF00000
0FFFE00000
0FFFE00000
0FFFE00000
0FFFE00000
1FFFC00000
1FFFC00000
1FFFC00000
1FFFC00000
1FFF800000
1FFF800000
3FFF800000
3FFF800000
3FFF800000
3FFF000000
3FFF000000
3FFF000000
3FFF000000
7FFF000000
7FFF000000
7FFF000000
7FFE000000
7FFE000000
7FFE000000
7FFE000000
7FFE000000
7FFE000000
7FFE000000
7FFE000000
FFFE000000
FFFE000000
FFFC000000
FFFC000000
FFFC000000
FFFC000000
FFFC000000
FFFC000000
FFFC000000
FFFC000000
FFFC000000
FFFC000000
FFFC000000
FFFC000000
FFFC000000
FFFC000000
FFFC000000
FFFE000000
7FFE000000
7FFE000000
7FFE000000
7FFE000000
7FFE000000
7FFE000000
7FFE000000
7FFE000000
7FFE000000
7FFE000000
7FFF000000
7FFF000000
3FFF000000
3FFF000000
3FFF000000
3FFF000000
3FFF000000
3FFF800000
3FFF800000
1FFF800000
1FFF800000
1FFF800000
1FFFC00000
1FFFC00000
0FFFC00000
0FFFC00000
0FFFC00000
0FFFE00000
0FFFE00000
07FFE00000
07FFE00000
07FFF00000
07FFF00000
03FFF00000
03FFF80000
03FFF80000
03FFF80000
01FFF80000
01FFFC0000
01FFFC0000
01FFFC0000
00FFFE0000
00FFFE0000
00FFFE0000
007FFF0000
007FFF0000
007FFF0000
003FFF8000
003FFF8000
003FFF8000
001FFFC000
001FFFC000
001FFFE000
000FFFE000
000FFFE000
0007FFF000
0007FFF000
0007FFF800
0003FFF800
0003FFF800
0001FFFC00
0001FFFC00
0001FFFE00
0000FFFE00
0000FFFF00
00007FFF00
00007FFF80
00003FFF80
00003FFF80
00003FFFC0
00001FFFE0
ENDCHAR
STARTCHAR parenright
ENCODING 41
SWIDTH 355 0
DWIDTH 61 0
BBX 34 159 11 -15
BITMAP
FFFF000000
7FFF000000
7FFF800000
3FFF800000
3FFFC00000
1FFFC00000
1FFFE00000
1FFFE00000
0FFFE00000
0FFFF00000
07FFF00000
07FFF00000
07FFF80000
03FFF80000
03FFFC0000
01FFFC0000
01FFFC0000
01FFFE0000
00FFFE0000
00FFFE0000
00FFFF0000
007FFF0000
007FFF0000
007FFF8000
003FFF8000
003FFF8000
001FFFC000
001FFFC000
001FFFC000
001FFFE000
000FFFE000
000FFFE000
000FFFF000
0007FFF000
0007FFF000
0007FFF000
0003FFF800
0003FFF800
0003FFF800
0003FFF800
0001FFFC00
0001FFFC00
0001FFFC00
0000FFFC00
0000FFFE00
0000FFFE00
0000FFFE00
0000FFFE00
00007FFE00
00007FFF00
00007FFF00
00007FFF00
00007FFF00
00003FFF00
00003FFF00
00003FFF80
00003FFF80
00003FFF80
00001FFF80
00001FFF80
00001FFF80
00001FFF80
00001FFF80
00001FFFC0
00001FFFC0
00001FFFC0
00000FFFC0
00000FFFC0
00000FFFC0
00000FFFC0
00000FFFC0
00000FFFC0
00000FFFC0
00000FFFC0
00000FFFC0
00000FFFC0
00000FFFC0
00000FFFC0
00000FFFC0
00000FFFC0
00000FFFC0
00000FFFC0
00000FFFC0
00000FFFC0
00000FFFC0
00000FFFC0
00000FFFC0
00000FFFC0
00000FFFC0
00000FFFC0
00000FFFC0
00000FFFC0
00001FFFC0
00001FFFC0
00001FFFC0
00001FFFC0
00001FFF80
00001FFF80
00001FFF80
00001FFF80
00001FFF80
00003FFF80
00003FFF80
00003FFF80
00003FFF00
00003FFF00
00003FFF00
00007FFF00
00007FFF00
00007FFF00
00007FFE00
00007FFE00
0000FFFE00
0000FFFE00
0000FFFE00
0000FFFC00
0001FFFC00
0001FFFC00
0001FFFC00
0001FFF800
0003FFF800
0003FFF800
0003FFF800
0003FFF000
0007FFF000
0007FFF000
0007FFF000
000FFFE000
000FFFE000
000FFFE000
001FFFE000
001FFFC000
001FFFC000
003FFFC000
003FFF8000
003FFF8000
007FFF8000
007FFF0000
007FFF0000
00FFFE0000
00FFFE0000
01FFFE0000
01FFFC0000
01FFFC0000
03FFFC0000
03FFF80000
07FFF80000
07FFF00000
07FFF00000
0FFFF00000
0FFFE00000
1FFFE00000
1FFFC00000
3FFFC00000
3FFF800000
7FFF800000
7FFF800000
7FFF000000
FFFF000000
ENDCHAR
STARTCHAR asterisk
ENCODING 42
SWIDTH 469 0
DWIDTH 81 0
BBX 59 57 11 69
BITMAP
000000FFE0000000
000000FFE0000000
000000FFE0000000
000000FFE0000000
000000FFE0000000
000000FFE0000000
000000FFE0000000
000000FFE0000000
000000FFE0000000
000000FFE0000000
000000FFE0000000
000000FFE0000000
000000FFE0000000
000000FFE0000000
000000FFE0000000
000000FFE0000000
1C0000FFE0000700
3F8000FFE0003F80
3FF000FFE001FF80
3FFF00FFE01FFF80
7FFFE0FFE0FFFFC0
7FFFFCFFE7FFFFC0
7FFFFFFFFFFFFFC0
FFFFFFFFFFFFFFE0
FFFFFFFFFFFFFFE0
FFFFFFFFFFFFFFE0
0FFFFFFFFFFFFE00
01FFFFFFFFFFF000
003FFFFFFFFF8000
0007FFFFFFFC0000
00007FFFFFC00000
00000FFFFE000000
000007FFFC000000
00000FFFFE000000
00001FFFFF000000
00001FFFFF000000
00003FFFFF800000
00007FFFFFC00000
00007FFBFFC00000
0000FFF1FFE00000
0001FFF1FFF00000
0003FFE0FFF80000
0003FFC07FF80000
0007FFC07FFC0000
000FFF803FFE0000
000FFF001FFE0000
001FFE000FFF0000
003FFE000FFF8000
007FFC0007FF8000
007FF80003FFC000
00FFF80003FFE000
007FF00001FFC000
001FE00000FF8000
000FE000007E0000
0007C000007C0000
0003800000380000
0000800000100000
ENDCHAR
STARTCHAR plus
ENCODING 43
SWIDTH 690 0
DWIDTH 119 0
BBX 97 98 11 15
BITMAP
00000000007FFF000000000000
00000000007FFF000000000000
00000000007FFF000000000000
00000000007FFF000000000000
00000000007FFF000000000000
00000000007FFF000000000000
00000000007FFF000000000000
00000000007FFF000000000000
00000000007FFF000000000000
00000000007FFF000000000000
00000000007FFF000000000000
00000000007FFF000000000000
00000000007FFF000000000000
00000000007FFF000000000000
00000000007FFF000000000000
00000000007FFF000000000000
00000000007FFF000000000000
00000000007FFF000000000000
00000000007FFF000000000000
00000000007FFF000000000000
00000000007FFF000000000000
00000000007FFF000000000000
00000000007FFF000000000000
00000000007FFF000000000000
00000000007FFF000000000000
00000000007FFF000000000000
00000000007FFF000000000000
00000000007FFF000000000000
00000000007FFF000000000000
00000000007FFF000000000000
00000000007FFF000000000000
00000000007FFF000000000000
00000000007FFF000000000000
00000000007FFF000000000000
00000000007FFF000000000000
00000000007FFF000000000000
00000000007FFF000000000000
00000000007FFF000000000000
00000000007FFF000000000000
00000000007FFF000000000000
00000000007FFF000000000000
FFFFFFFFFFFFFFFFFFFFFFFF80
FFFFFFFFFFFFFFFFFFFFFFFF80
FFFFFFFFFFFFFFFFFFFFFFFF80
FFFFFFFFFFFFFFFFFFFFFFFF80
FFFFFFFFFFFFFFFFFFFFFFFF80
FFFFFFFFFFFFFFFFFFFFFFFF80
FFFFFFFFFFFFFFFFFFFFFFFF80
FFFFFFFFFFFFFFFFFFFFFFFF80
FFFFFFFFFFFFFFFFFFFFFFFF80
FFFFFFFFFFFFFFFFFFFFFFFF80
FFFFFFFFFFFFFFFFFFFFFFFF80
FFFFFFFFFFFFFFFFFFFFFFFF80
FFFFFFFFFFFFFFFFFFFFFFFF80
FFFFFFFFFFFFFFFFFFFFFFFF80
FFFFFFFFFFFFFFFFFFFFFFFF80
00000000007FFF000000000000
00000000007FFF000000000000
00000000007FFF000000000000
00000000007FFF000000000000
00000000007FFF000000000000
00000000007FFF000000000000
00000000007FFF000000000000
00000000007FFF000000000000
00000000007FFF000000000000
00000000007FFF000000000000
00000000007FFF000000000000
00000000007FFF000000000000
00000000007FFF000000000000
00000000007FFF000000000000
00000000007FFF000000000000
00000000007FFF000000000000
00000000007FFF000000000000
00000000007FFF000000000000
00000000007FFF000000000000
00000000007FFF000000000000
00000000007FFF000000000000
00000000007FFF000000000000
00000000007FFF000000000000
00000000007FFF000000000000
00000000007FFF000000000000
00000000007FFF000000000000
00000000007FFF000000000000
00000000007FFF000000000000
00000000007FFF000000000000
00000000007FFF000000000000
00000000007FFF000000000000
00000000007FFF000000000000
00000000007FFF000000000000
00000000007FFF000000000000
00000000007FFF000000000000
00000000007FFF000000000000
00000000007FFF000000000000
00000000007FFF000000000000
00000000007FFF000000000000
00000000007FFF000000000000
00000000007FFF000000000000
00000000007FFF000000000000
ENDCHAR
STARTCHAR comma
ENCODING 44
SWIDTH 259 0
DWIDTH 45 0
BBX 22 45 12 -20
BITMAP
FFFFFC
FFFFFC
FFFFF8
FFFFF8
FFFFF8
FFFFF8
FFFFF8
FFFFF0
FFFFF0
FFFFF0
FFFFF0
FFFFF0
FFFFF0
FFFFE0
FFFFE0
FFFFE0
FFFFE0
FFFFE0
FFFFC0
FFFFC0
FFFFC0
FFFFC0
FFFFC0
FFFF80
FFFF80
FFFF80
FFFF80
FFFF80
FFFF00
FFFF00
FFFF00
FFFF00
FFFF00
FFFE00
FFFE00
FFFE00
FFFE00
FFFE00
FFFE00
FFFC00
FFFC00
FFFC00
FFFC00
FFFC00
FFF800
ENDCHAR
STARTCHAR hyphen
ENCODING 45
SWIDTH 296 0
DWIDTH 51 0
BBX 42 15 5 57
BITMAP
FFFFFFFFFFC0
FFFFFFFFFFC0
FFFFFFFFFFC0
FFFFFFFFFFC0
FFFFFFFFFFC0
FFFFFFFFFFC0
FFFFFFFFFFC0
FFFFFFFFFFC0
FFFFFFFFFFC0
FFFFFFFFFFC0
FFFFFFFFFFC0
FFFFFFFFFFC0
FFFFFFFFFFC0
FFFFFFFFFFC0
FFFFFFFFFFC0
ENDCHAR
STARTCHAR period
ENCODING 46
SWIDTH 262 0
DWIDTH 45 0
BBX 23 24 11 0
BITMAP
00FE00
03FF80
0FFFE0
1FFFF0
3FFFF8
3FFFFC
7FFFFC
7FFFFE
FFFFFE
FFFFFE
FFFFFE
FFFFFE
FFFFFE
FFFFFE
FFFFFE
FFFFFE
7FFFFE
7FFFFC
3FFFFC
3FFFF8
1FFFF0
0FFFE0
03FF80
00FE00
ENDCHAR
STARTCHAR slash
ENCODING 47
SWIDTH 444 0
DWIDTH 77 0
BBX 73 126 2 0
BITMAP
000000000000003FFF80
000000000000003FFF00
000000000000003FFF00
000000000000007FFE00
000000000000007FFE00
00000000000000FFFE00
00000000000000FFFC00
00000000000001FFFC00
00000000000001FFF800
00000000000003FFF800
00000000000003FFF000
00000000000007FFF000
00000000000007FFE000
0000000000000FFFE000
0000000000000FFFC000
0000000000001FFFC000
0000000000001FFF8000
0000000000003FFF8000
0000000000003FFF8000
0000000000003FFF0000
0000000000007FFF0000
0000000000007FFE0000
000000000000FFFE0000
000000000000FFFC0000
000000000001FFFC0000
000000000001FFF80000
000000000003FFF80000
000000000003FFF00000
000000000007FFF00000
000000000007FFE00000
00000000000FFFE00000
00000000000FFFE00000
00000000001FFFC00000
00000000001FFFC00000
00000000001FFF800000
00000000003FFF800000
00000000003FFF000000
00000000007FFF000000
00000000007FFE000000
0000000000FFFE000000
0000000000FFFC000000
0000000001FFFC000000
0000000001FFF8000000
0000000003FFF8000000
0000000003FFF8000000
0000000007FFF0000000
0000000007FFF0000000
000000000FFFE0000000
000000000FFFE0000000
000000001FFFC0000000
000000001FFFC0000000
000000001FFF80000000
000000003FFF80000000
000000003FFF00000000
000000007FFF00000000
000000007FFE00000000
00000000FFFE00000000
00000000FFFC00000000
00000001FFFC00000000
00000001FFFC00000000
00000003FFF800000000
00000003FFF800000000
00000007FFF000000000
00000007FFF000000000
0000000FFFE000000000
0000000FFFE000000000
0000001FFFC000000000
0000001FFFC000000000
0000001FFF8000000000
0000003FFF8000000000
0000003FFF0000000000
0000007FFF0000000000
0000007FFF0000000000
000000FFFE0000000000
000000FFFE0000000000
000001FFFC0000000000
000001FFFC0000000000
000003FFF80000000000
000003FFF80000000000
000007FFF00000000000
000007FFF00000000000
00000FFFE00000000000
00000FFFE00000000000
00000FFFC00000000000
00001FFFC00000000000
00001FFFC00000000000
00003FFF800000000000
00003FFF800000000000
00007FFF000000000000
00007FFF000000000000
0000FFFE000000000000
0000FFFE000000000000
0001FFFC000000000000
0001FFFC000000000000
0003FFF8000000000000
0003FFF8000000000000
0007FFF0000000000000
0007FFF0000000000000
000FFFF0000000000000
000FFFE0000000000000
000FFFE0000000000000
001FFFC0000000000000
001FFFC0000000000000
003FFF80000000000000
003FFF80000000000000
007FFF00000000000000
007FFF00000000000000
00FFFE00000000000000
00FFFE00000000000000
01FFFC00000000000000
01FFFC00000000000000
03FFFC00000000000000
03FFF800000000000000
07FFF800000000000000
07FFF000000000000000
0FFFF000000000000000
0FFFE000000000000000
0FFFE000000000000000
1FFFC000000000000000
1FFFC000000000000000
3FFF8000000000000000
3FFF8000000000000000
7FFF0000000000000000
7FFF0000000000000000
FFFE0000000000000000
FFFE0000000000000000
ENDCHAR
STARTCHAR zero
ENCODING 48
SWIDTH 838 0
DWIDTH 145 0
BBX 131 126 7 0
BITMAP
000000000000007FFFC000000000000000
0000000000003FFFFFFF80000000000000
000000000003FFFFFFFFF8000000000000
00000000001FFFFFFFFFFF000000000000
0000000000FFFFFFFFFFFFE00000000000
0000000007FFFFFFFFFFFFF80000000000
000000001FFFFFFFFFFFFFFF0000000000
000000007FFFFFFFFFFFFFFFC000000000
00000001FFFFFFFFFFFFFFFFF000000000
00000007FFFFFFFFFFFFFFFFF800000000
0000000FFFFFFFFFFFFFFFFFFE00000000
0000003FFFFFFFFFFFFFFFFFFF80000000
0000007FFFFFFFFFFFFFFFFFFFC0000000
000000FFFFFFFFFFFFFFFFFFFFE0000000
000003FFFFFFFFFFFFFFFFFFFFF8000000
000007FFFFFFFFFFFFFFFFFFFFFC000000
00000FFFFFFFFFFFFFFFFFFFFFFE000000
00001FFFFFFFFFFFFFFFFFFFFFFF000000
00003FFFFFFFFFFFFFFFFFFFFFFF800000
00007FFFFFFFFFFFFFFFFFFFFFFFC00000
0000FFFFFFFFFFFFFFFFFFFFFFFFE00000
0001FFFFFFFFFFFFFFFFFFFFFFFFF00000
0003FFFFFFFFFFC0007FFFFFFFFFF80000
0007FFFFFFFFF0000001FFFFFFFFFC0000
0007FFFFFFFF800000003FFFFFFFFC0000
000FFFFFFFFC0000000007FFFFFFFE0000
001FFFFFFFF00000000001FFFFFFFF0000
003FFFFFFFC000000000007FFFFFFF8000
003FFFFFFF0000000000001FFFFFFF8000
007FFFFFFC0000000000000FFFFFFFC000
007FFFFFF800000000000003FFFFFFC000
00FFFFFFF000000000000001FFFFFFE000
01FFFFFFE000000000000000FFFFFFF000
01FFFFFFC0000000000000007FFFFFF000
03FFFFFF80000000000000003FFFFFF800
03FFFFFF00000000000000001FFFFFF800
07FFFFFE00000000000000000FFFFFFC00
07FFFFFC000000000000000007FFFFFC00
07FFFFF8000000000000000003FFFFFC00
0FFFFFF8000000000000000003FFFFFE00
0FFFFFF0000000000000000001FFFFFE00
1FFFFFE0000000000000000001FFFFFE00
1FFFFFE0000000000000000000FFFFFF00
1FFFFFC0000000000000000000FFFFFF00
1FFFFFC00000000000000000007FFFFF00
3FFFFF800000000000000000007FFFFF80
3FFFFF800000000000000000003FFFFF80
3FFFFF800000000000000000003FFFFF80
3FFFFF000000000000000000003FFFFF80
7FFFFF000000000000000000001FFFFFC0
7FFFFF000000000000000000001FFFFFC0
7FFFFF000000000000000000001FFFFFC0
7FFFFE000000000000000000001FFFFFC0
7FFFFE000000000000000000000FFFFFC0
7FFFFE000000000000000000000FFFFFC0
7FFFFE000000000000000000000FFFFFC0
FFFFFE000000000000000000000FFFFFC0
FFFFFC000000000000000000000FFFFFE0
FFFFFC000000000000000000000FFFFFE0
FFFFFC000000000000000000000FFFFFE0
FFFFFC0000000000000000000007FFFFE0
FFFFFC0000000000000000000007FFFFE0
FFFFFC0000000000000000000007FFFFE0
FFFFFC0000000000000000000007FFFFE0
FFFFFC0000000000000000000007FFFFE0
FFFFFC000000000000000000000FFFFFE0
FFFFFC000000000000000000000FFFFFE0
FFFFFC000000000000000000000FFFFFC0
7FFFFE000000000000000000000FFFFFC0
7FFFFE000000000000000000000FFFFFC0
7FFFFE000000000000000000000FFFFFC0
7FFFFE000000000000000000000FFFFFC0
7FFFFE000000000000000000000FFFFFC0
7FFFFE000000000000000000001FFFFFC0
7FFFFF000000000000000000001FFFFF80
3FFFFF000000000000000000001FFFFF80
3FFFFF000000000000000000001FFFFF80
3FFFFF800000000000000000003FFFFF80
3FFFFF800000000000000000003FFFFF80
1FFFFF800000000000000000003FFFFF00
1FFFFFC00000000000000000007FFFFF00
1FFFFFC00000000000000000007FFFFF00
0FFFFFE0000000000000000000FFFFFE00
0FFFFFE0000000000000000000FFFFFE00
0FFFFFF0000000000000000001FFFFFE00
07FFFFF0000000000000000001FFFFFC00
07FFFFF8000000000000000003FFFFFC00
03FFFFFC000000000000000007FFFFF800
03FFFFFC00000000000000000FFFFFF800
03FFFFFE00000000000000000FFFFFF800
01FFFFFF00000000000000001FFFFFF000
01FFFFFF80000000000000003FFFFFF000
00FFFFFFC0000000000000007FFFFFE000
00FFFFFFE000000000000000FFFFFFC000
007FFFFFF000000000000001FFFFFFC000
003FFFFFF800000000000007FFFFFF8000
003FFFFFFE0000000000000FFFFFFF8000
001FFFFFFF0000000000003FFFFFFF0000
000FFFFFFFC000000000007FFFFFFE0000
000FFFFFFFF00000000001FFFFFFFE0000
0007FFFFFFFC0000000007FFFFFFFC0000
0003FFFFFFFF800000003FFFFFFFF80000
0001FFFFFFFFF0000001FFFFFFFFF00000
0001FFFFFFFFFFC0007FFFFFFFFFE00000
0000FFFFFFFFFFFFFFFFFFFFFFFFE00000
00007FFFFFFFFFFFFFFFFFFFFFFFC00000
00003FFFFFFFFFFFFFFFFFFFFFFF800000
00001FFFFFFFFFFFFFFFFFFFFFFF000000
00000FFFFFFFFFFFFFFFFFFFFFFE000000
000007FFFFFFFFFFFFFFFFFFFFFC000000
000003FFFFFFFFFFFFFFFFFFFFF0000000
000000FFFFFFFFFFFFFFFFFFFFE0000000
0000007FFFFFFFFFFFFFFFFFFFC0000000
0000003FFFFFFFFFFFFFFFFFFF80000000
0000000FFFFFFFFFFFFFFFFFFE00000000
00000007FFFFFFFFFFFFFFFFFC00000000
00000001FFFFFFFFFFFFFFFFF000000000
00000000FFFFFFFFFFFFFFFFC000000000
000000003FFFFFFFFFFFFFFF8000000000
000000000FFFFFFFFFFFFFFE0000000000
0000000003FFFFFFFFFFFFF00000000000
00000000007FFFFFFFFFFFC00000000000
00000000000FFFFFFFFFFE000000000000
000000000001FFFFFFFFF0000000000000
0000000000001FFFFFFF00000000000000
000000000000007FFFC000000000000000
ENDCHAR
STARTCHAR one
ENCODING 49
SWIDTH 385 0
DWIDTH 67 0
BBX 52 126 4 0
BITMAP
FFFFF000000000
FFFFFF80000000
FFFFFFF8000000
FFFFFFFE000000
FFFFFFFF800000
FFFFFFFFE00000
FFFFFFFFF00000
FFFFFFFFFC0000
FFFFFFFFFE0000
FFFFFFFFFF0000
FFFFFFFFFF8000
FFFFFFFFFFC000
FFFFFFFFFFE000
FFFFFFFFFFF000
FFFFFFFFFFF000
FFFFFFFFFFF800
FFFFFFFFFFFC00
FFFFFFFFFFFC00
FFFFFFFFFFFE00
FFFFFFFFFFFE00
FFFFFFFFFFFF00
FFFFFFFFFFFF00
00007FFFFFFF80
00000FFFFFFF80
000003FFFFFF80
000000FFFFFFC0
0000007FFFFFC0
0000003FFFFFC0
0000001FFFFFC0
0000001FFFFFE0
0000000FFFFFE0
0000000FFFFFE0
00000007FFFFE0
00000007FFFFE0
00000007FFFFE0
00000007FFFFE0
00000003FFFFF0
00000003FFFFF0
00000003FFFFF0
00000003FFFFF0
00000003FFFFF0
00000003FFFFF0
00000003FFFFF0
00000003FFFFF0
00000003FFFFF0
00000003FFFFF0
00000003FFFFF0
00000003FFFFF0
00000003FFFFF0
00000003FFFFF0
00000003FFFFF0
00000003FFFFF0
00000003FFFFF0
00000003FFFFF0
00000003FFFFF0
00000003FFFFF0
00000003FFFFF0
00000003FFFFF0
00000003FFFFF0
00000003FFFFF0
00000003FFFFF0
00000003FFFFF0
00000003FFFFF0
00000003FFFFF0
00000003FFFFF0
00000003FFFFF0
00000003FFFFF0
00000003FFFFF0
00000003FFFFF0
00000003FFFFF0
00000003FFFFF0
00000003FFFFF0
00000003FFFFF0
00000003FFFFF0
00000003FFFFF0
00000003FFFFF0
00000003FFFFF0
00000003FFFFF0
00000003FFFFF0
00000003FFFFF0
00000003FFFFF0
00000003FFFFF0
00000003FFFFF0
00000003FFFFF0
00000003FFFFF0
00000003FFFFF0
00000003FFFFF0
00000003FFFFF0
00000003FFFFF0
00000003FFFFF0
00000003FFFFF0
00000003FFFFF0
00000003FFFFF0
00000003FFFFF0
00000003FFFFF0
00000003FFFFF0
00000003FFFFF0
00000003FFFFF0
00000003FFFFF0
00000003FFFFF0
00000003FFFFF0
00000003FFFFF0
00000003FFFFF0
00000003FFFFF0
00000003FFFFF0
00000003FFFFF0
00000003FFFFF0
00000003FFFFF0
00000003FFFFF0
00000003FFFFF0
00000003FFFFF0
00000003FFFFF0
00000003FFFFF0
00000003FFFFF0
00000003FFFFF0
00000003FFFFF0
00000003FFFFF0
00000003FFFFF0
00000003FFFFF0
00000003FFFFF0
00000003FFFFF0
00000003FFFFF0
00000003FFFFF0
00000003FFFFF0
00000003FFFFF0
00000003FFFFF0
ENDCHAR
STARTCHAR two
ENCODING 50
SWIDTH 825 0
DWIDTH 143 0
BBX 123 126 11 0
BITMAP
7FFFFFFFFFFFFFFFFFFFFFF000000000
7FFFFFFFFFFFFFFFFFFFFFFF80000000
7FFFFFFFFFFFFFFFFFFFFFFFF0000000
7FFFFFFFFFFFFFFFFFFFFFFFFE000000
7FFFFFFFFFFFFFFFFFFFFFFFFF800000
7FFFFFFFFFFFFFFFFFFFFFFFFFE00000
7FFFFFFFFFFFFFFFFFFFFFFFFFF00000
7FFFFFFFFFFFFFFFFFFFFFFFFFFC0000
7FFFFFFFFFFFFFFFFFFFFFFFFFFE0000
7FFFFFFFFFFFFFFFFFFFFFFFFFFF0000
7FFFFFFFFFFFFFFFFFFFFFFFFFFF8000
7FFFFFFFFFFFFFFFFFFFFFFFFFFFC000
7FFFFFFFFFFFFFFFFFFFFFFFFFFFE000
7FFFFFFFFFFFFFFFFFFFFFFFFFFFF000
7FFFFFFFFFFFFFFFFFFFFFFFFFFFF800
7FFFFFFFFFFFFFFFFFFFFFFFFFFFF800
7FFFFFFFFFFFFFFFFFFFFFFFFFFFFC00
7FFFFFFFFFFFFFFFFFFFFFFFFFFFFE00
7FFFFFFFFFFFFFFFFFFFFFFFFFFFFE00
7FFFFFFFFFFFFFFFFFFFFFFFFFFFFF00
7FFFFFFFFFFFFFFFFFFFFFFFFFFFFF00
7FFFFFFFFFFFFFFFFFFFFFFFFFFFFF00
00000000000000000000007FFFFFFF80
00000000000000000000000FFFFFFF80
000000000000000000000003FFFFFF80
000000000000000000000001FFFFFFC0
000000000000000000000000FFFFFFC0
0000000000000000000000007FFFFFC0
0000000000000000000000003FFFFFC0
0000000000000000000000003FFFFFC0
0000000000000000000000001FFFFFC0
0000000000000000000000001FFFFFE0
0000000000000000000000000FFFFFE0
0000000000000000000000000FFFFFE0
0000000000000000000000000FFFFFE0
0000000000000000000000000FFFFFE0
0000000000000000000000000FFFFFE0
0000000000000000000000000FFFFFE0
0000000000000000000000000FFFFFE0
0000000000000000000000000FFFFFE0
0000000000000000000000000FFFFFC0
0000000000000000000000000FFFFFC0
0000000000000000000000001FFFFFC0
0000000000000000000000001FFFFFC0
0000000000000000000000003FFFFFC0
0000000000000000000000003FFFFF80
0000000000000000000000007FFFFF80
000000000000000000000000FFFFFF80
000000000000000000000001FFFFFF00
000000000000000000000003FFFFFF00
00000000000000000000000FFFFFFF00
00000000000000000000007FFFFFFE00
00000003FFFFFFFFFFFFFFFFFFFFFE00
0000007FFFFFFFFFFFFFFFFFFFFFFC00
000007FFFFFFFFFFFFFFFFFFFFFFFC00
00001FFFFFFFFFFFFFFFFFFFFFFFF800
0000FFFFFFFFFFFFFFFFFFFFFFFFF000
0001FFFFFFFFFFFFFFFFFFFFFFFFF000
0007FFFFFFFFFFFFFFFFFFFFFFFFE000
000FFFFFFFFFFFFFFFFFFFFFFFFFC000
003FFFFFFFFFFFFFFFFFFFFFFFFF8000
007FFFFFFFFFFFFFFFFFFFFFFFFF0000
00FFFFFFFFFFFFFFFFFFFFFFFFFE0000
01FFFFFFFFFFFFFFFFFFFFFFFFF80000
01FFFFFFFFFFFFFFFFFFFFFFFFF00000
03FFFFFFFFFFFFFFFFFFFFFFFFC00000
07FFFFFFFFFFFFFFFFFFFFFFFF000000
07FFFFFFFFFFFFFFFFFFFFFFFC000000
0FFFFFFFFFFFFFFFFFFFFFFFF0000000
0FFFFFFFFFFFFFFFFFFFFFFF80000000
1FFFFFFFFFFFFFFFFFFFFFF000000000
1FFFFFFF800000000000000000000000
3FFFFFF8000000000000000000000000
3FFFFFE0000000000000000000000000
3FFFFFC0000000000000000000000000
7FFFFF80000000000000000000000000
7FFFFF00000000000000000000000000
7FFFFE00000000000000000000000000
7FFFFE00000000000000000000000000
7FFFFC00000000000000000000000000
FFFFFC00000000000000000000000000
FFFFF800000000000000000000000000
FFFFF800000000000000000000000000
FFFFF800000000000000000000000000
FFFFF800000000000000000000000000
FFFFF800000000000000000000000000
FFFFF800000000000000000000000000
FFFFF800000000000000000000000000
FFFFF800000000000000000000000000
FFFFF800000000000000000000000000
FFFFF800000000000000000000000000
FFFFF800000000000000000000000000
FFFFF800000000000000000000000000
FFFFF800000000000000000000000000
FFFFF800000000000000000000000000
FFFFF800000000000000000000000000
FFFFF800000000000000000000000000
FFFFF800000000000000000000000000
FFFFF800000000000000000000000000
FFFFF800000000000000000000000000
FFFFF800000000000000000000000000
FFFFF800000000000000000000000000
FFFFF800000000000000000000000000
FFFFF800000000000000000000000000
FFFFFFFFFFFFFFFFFFFFFFFFFFFFFF80
FFFFFFFFFFFFFFFFFFFFFFFFFFFFFF80
FFFFFFFFFFFFFFFFFFFFFFFFFFFFFF80
FFFFFFFFFFFFFFFFFFFFFFFFFFFFFF80
FFFFFFFFFFFFFFFFFFFFFFFFFFFFFF80
FFFFFFFFFFFFFFFFFFFFFFFFFFFFFF80
FFFFFFFFFFFFFFFFFFFFFFFFFFFFFF80
FFFFFFFFFFFFFFFFFFFFFFFFFFFFFF80
FFFFFFFFFFFFFFFFFFFFFFFFFFFFFF80
FFFFFFFFFFFFFFFFFFFFFFFFFFFFFF80
FFFFFFFFFFFFFFFFFFFFFFFFFFFFFF80
FFFFFFFFFFFFFFFFFFFFFFFFFFFFFF80
FFFFFFFFFFFFFFFFFFFFFFFFFFFFFF80
FFFFFFFFFFFFFFFFFFFFFFFFFFFFFF80
FFFFFFFFFFFFFFFFFFFFFFFFFFFFFF80
FFFFFFFFFFFFFFFFFFFFFFFFFFFFFF80
FFFFFFFFFFFFFFFFFFFFFFFFFFFFFF80
FFFFFFFFFFFFFFFFFFFFFFFFFFFFFF80
FFFFFFFFFFFFFFFFFFFFFFFFFFFFFF80
FFFFFFFFFFFFFFFFFFFFFFFFFFFFFF80
FFFFFFFFFFFFFFFFFFFFFFFFFFFFFF80
FFFFFFFFFFFFFFFFFFFFFFFFFFFFFF80
ENDCHAR
STARTCHAR three
ENCODING 51
SWIDTH 827 0
DWIDTH 143 0
BBX 127 126 8 0
BITMAP
FFFFFFFFFFFFFFFFFFFFFFF000000000
FFFFFFFFFFFFFFFFFFFFFFFFC0000000
FFFFFFFFFFFFFFFFFFFFFFFFFC000000
FFFFFFFFFFFFFFFFFFFFFFFFFF800000
FFFFFFFFFFFFFFFFFFFFFFFFFFE00000
FFFFFFFFFFFFFFFFFFFFFFFFFFF80000
FFFFFFFFFFFFFFFFFFFFFFFFFFFE0000
FFFFFFFFFFFFFFFFFFFFFFFFFFFF0000
FFFFFFFFFFFFFFFFFFFFFFFFFFFFC000
FFFFFFFFFFFFFFFFFFFFFFFFFFFFE000
FFFFFFFFFFFFFFFFFFFFFFFFFFFFF000
FFFFFFFFFFFFFFFFFFFFFFFFFFFFF800
FFFFFFFFFFFFFFFFFFFFFFFFFFFFFC00
FFFFFFFFFFFFFFFFFFFFFFFFFFFFFC00
FFFFFFFFFFFFFFFFFFFFFFFFFFFFFE00
FFFFFFFFFFFFFFFFFFFFFFFFFFFFFF00
FFFFFFFFFFFFFFFFFFFFFFFFFFFFFF00
FFFFFFFFFFFFFFFFFFFFFFFFFFFFFF80
FFFFFFFFFFFFFFFFFFFFFFFFFFFFFF80
FFFFFFFFFFFFFFFFFFFFFFFFFFFFFFC0
FFFFFFFFFFFFFFFFFFFFFFFFFFFFFFC0
FFFFFFFFFFFFFFFFFFFFFFFFFFFFFFE0
0000000000000000000001FFFFFFFFE0
00000000000000000000000FFFFFFFE0
000000000000000000000003FFFFFFE0
000000000000000000000000FFFFFFF0
0000000000000000000000003FFFFFF0
0000000000000000000000001FFFFFF0
0000000000000000000000000FFFFFF0
0000000000000000000000000FFFFFF0
00000000000000000000000007FFFFF0
00000000000000000000000007FFFFF0
00000000000000000000000007FFFFF0
00000000000000000000000003FFFFF0
00000000000000000000000003FFFFF0
00000000000000000000000003FFFFF0
00000000000000000000000003FFFFF0
00000000000000000000000003FFFFF0
00000000000000000000000003FFFFF0
00000000000000000000000003FFFFF0
00000000000000000000000003FFFFE0
00000000000000000000000003FFFFE0
00000000000000000000000007FFFFE0
00000000000000000000000007FFFFE0
00000000000000000000000007FFFFC0
0000000000000000000000000FFFFFC0
0000000000000000000000000FFFFFC0
0000000000000000000000001FFFFF80
0000000000000000000000003FFFFF80
000000000000000000000000FFFFFF00
000000000000000000000003FFFFFE00
00000000000000000000003FFFFFFC00
00000003FFFFFFFFFFFFFFFFFFFFF800
00000003FFFFFFFFFFFFFFFFFFFFF000
00000003FFFFFFFFFFFFFFFFFFFFE000
00000003FFFFFFFFFFFFFFFFFFFFC000
00000003FFFFFFFFFFFFFFFFFFFF0000
00000003FFFFFFFFFFFFFFFFFFFE0000
00000003FFFFFFFFFFFFFFFFFFF00000
00000003FFFFFFFFFFFFFFFFFFF00000
00000003FFFFFFFFFFFFFFFFFFFE0000
00000003FFFFFFFFFFFFFFFFFFFF0000
00000003FFFFFFFFFFFFFFFFFFFFC000
00000003FFFFFFFFFFFFFFFFFFFFE000
00000003FFFFFFFFFFFFFFFFFFFFF800
00000003FFFFFFFFFFFFFFFFFFFFFC00
00000003FFFFFFFFFFFFFFFFFFFFFE00
00000003FFFFFFFFFFFFFFFFFFFFFF00
00000003FFFFFFFFFFFFFFFFFFFFFF80
00000003FFFFFFFFFFFFFFFFFFFFFF80
00000003FFFFFFFFFFFFFFFFFFFFFFC0
00000000000000000000001FFFFFFFE0
000000000000000000000001FFFFFFE0
0000000000000000000000007FFFFFF0
0000000000000000000000001FFFFFF0
0000000000000000000000000FFFFFF8
00000000000000000000000007FFFFF8
00000000000000000000000003FFFFF8
00000000000000000000000003FFFFF8
00000000000000000000000001FFFFFC
00000000000000000000000001FFFFFC
00000000000000000000000001FFFFFC
00000000000000000000000000FFFFFC
00000000000000000000000000FFFFFC
00000000000000000000000000FFFFFC
00000000000000000000000000FFFFFE
00000000000000000000000000FFFFFE
00000000000000000000000000FFFFFE
00000000000000000000000000FFFFFE
00000000000000000000000000FFFFFE
00000000000000000000000000FFFFFE
00000000000000000000000000FFFFFC
00000000000000000000000001FFFFFC
00000000000000000000000001FFFFFC
00000000000000000000000001FFFFFC
00000000000000000000000003FFFFFC
00000000000000000000000007FFFFFC
00000000000000000000000007FFFFFC
0000000000000000000000001FFFFFF8
0000000000000000000000003FFFFFF8
0000000000000000000000007FFFFFF8
000000000000000000000001FFFFFFF0
00000000000000000000000FFFFFFFF0
0000000000000000000001FFFFFFFFF0
FFFFFFFFFFFFFFFFFFFFFFFFFFFFFFE0
FFFFFFFFFFFFFFFFFFFFFFFFFFFFFFE0
FFFFFFFFFFFFFFFFFFFFFFFFFFFFFFC0
FFFFFFFFFFFFFFFFFFFFFFFFFFFFFFC0
FFFFFFFFFFFFFFFFFFFFFFFFFFFFFF80
FFFFFFFFFFFFFFFFFFFFFFFFFFFFFF80
FFFFFFFFFFFFFFFFFFFFFFFFFFFFFF00
FFFFFFFFFFFFFFFFFFFFFFFFFFFFFE00
FFFFFFFFFFFFFFFFFFFFFFFFFFFFFC00
FFFFFFFFFFFFFFFFFFFFFFFFFFFFF800
FFFFFFFFFFFFFFFFFFFFFFFFFFFFF800
FFFFFFFFFFFFFFFFFFFFFFFFFFFFF000
FFFFFFFFFFFFFFFFFFFFFFFFFFFFC000
FFFFFFFFFFFFFFFFFFFFFFFFFFFF8000
FFFFFFFFFFFFFFFFFFFFFFFFFFFF0000
FFFFFFFFFFFFFFFFFFFFFFFFFFFC0000
FFFFFFFFFFFFFFFFFFFFFFFFFFF80000
FFFFFFFFFFFFFFFFFFFFFFFFFFE00000
FFFFFFFFFFFFFFFFFFFFFFFFFF800000
FFFFFFFFFFFFFFFFFFFFFFFFFC000000
FFFFFFFFFFFFFFFFFFFFFFFFE0000000
FFFFFFFFFFFFFFFFFFFFFFF800000000
ENDCHAR
STARTCHAR four
ENCODING 52
SWIDTH 845 0
DWIDTH 146 0
BBX 134 126 8 0
BITMAP
FFFFFC000000000000000003FFFFF00000
FFFFFC000000000000000003FFFFF00000
FFFFFC000000000000000003FFFFF00000
FFFFFC000000000000000003FFFFF00000
FFFFFC000000000000000003FFFFF00000
FFFFFC000000000000000003FFFFF00000
FFFFFC000000000000000003FFFFF00000
FFFFFC000000000000000003FFFFF00000
FFFFFC000000000000000003FFFFF00000
FFFFFC000000000000000003FFFFF00000
FFFFFC000000000000000003FFFFF00000
FFFFFC000000000000000003FFFFF00000
FFFFFC000000000000000003FFFFF00000
FFFFFC000000000000000003FFFFF00000
FFFFFC000000000000000003FFFFF00000
FFFFFC000000000000000003FFFFF00000
FFFFFC000000000000000003FFFFF00000
FFFFFC000000000000000003FFFFF00000
FFFFFC000000000000000003FFFFF00000
FFFFFC000000000000000003FFFFF00000
FFFFFC000000000000000003FFFFF00000
FFFFFC000000000000000003FFFFF00000
FFFFFC000000000000000003FFFFF00000
FFFFFC000000000000000003FFFFF00000
FFFFFC000000000000000003FFFFF00000
FFFFFC000000000000000003FFFFF00000
FFFFFC000000000000000003FFFFF00000
FFFFFC000000000000000003FFFFF00000
FFFFFC000000000000000003FFFFF00000
FFFFFC000000000000000003FFFFF00000
FFFFFC000000000000000003FFFFF00000
FFFFFC000000000000000003FFFFF00000
FFFFFC000000000000000003FFFFF00000
FFFFFC000000000000000003FFFFF00000
FFFFFC000000000000000003FFFFF00000
FFFFFC000000000000000003FFFFF00000
FFFFFC000000000000000003FFFFF00000
FFFFFC000000000000000003FFFFF00000
FFFFFC000000000000000003FFFFF00000
FFFFFC000000000000000003FFFFF00000
FFFFFC000000000000000003FFFFF00000
FFFFFC000000000000000003FFFFF00000
FFFFFC000000000000000003FFFFF00000
FFFFFC000000000000000003FFFFF00000
FFFFFC000000000000000003FFFFF00000
FFFFFC000000000000000003FFFFF00000
FFFFFC000000000000000003FFFFF00000
FFFFFC000000000000000003FFFFF00000
FFFFFC000000000000000003FFFFF00000
FFFFFC000000000000000003FFFFF00000
FFFFFC000000000000000003FFFFF00000
FFFFFC000000000000000003FFFFF00000
FFFFFC000000000000000003FFFFF00000
FFFFFC000000000000000003FFFFF00000
FFFFFC000000000000000003FFFFF00000
FFFFFC000000000000000003FFFFF00000
FFFFFE000000000000000003FFFFF00000
FFFFFE000000000000000003FFFFF00000
7FFFFE000000000000000003FFFFF00000
7FFFFE000000000000000003FFFFF00000
7FFFFE000000000000000003FFFFF00000
7FFFFF000000000000000003FFFFF00000
7FFFFF000000000000000003FFFFF00000
7FFFFF800000000000000003FFFFF00000
7FFFFF800000000000000003FFFFF00000
3FFFFFC00000000000000003FFFFF00000
3FFFFFE00000000000000003FFFFF00000
3FFFFFF00000000000000003FFFFF00000
3FFFFFFC0000000000000003FFFFF00000
1FFFFFFF0000000000000003FFFFF00000
1FFFFFFFF000000000000003FFFFF00000
0FFFFFFFFFFFFFFFFFFFFFFFFFFFFFFFFC
0FFFFFFFFFFFFFFFFFFFFFFFFFFFFFFFFC
0FFFFFFFFFFFFFFFFFFFFFFFFFFFFFFFFC
07FFFFFFFFFFFFFFFFFFFFFFFFFFFFFFFC
07FFFFFFFFFFFFFFFFFFFFFFFFFFFFFFFC
03FFFFFFFFFFFFFFFFFFFFFFFFFFFFFFFC
01FFFFFFFFFFFFFFFFFFFFFFFFFFFFFFFC
01FFFFFFFFFFFFFFFFFFFFFFFFFFFFFFFC
00FFFFFFFFFFFFFFFFFFFFFFFFFFFFFFFC
007FFFFFFFFFFFFFFFFFFFFFFFFFFFFFFC
003FFFFFFFFFFFFFFFFFFFFFFFFFFFFFFC
001FFFFFFFFFFFFFFFFFFFFFFFFFFFFFFC
000FFFFFFFFFFFFFFFFFFFFFFFFFFFFFFC
0003FFFFFFFFFFFFFFFFFFFFFFFFFFFFFC
0001FFFFFFFFFFFFFFFFFFFFFFFFFFFFFC
00007FFFFFFFFFFFFFFFFFFFFFFFFFFFFC
00001FFFFFFFFFFFFFFFFFFFFFFFFFFFFC
000007FFFFFFFFFFFFFFFFFFFFFFFFFFFC
000000FFFFFFFFFFFFFFFFFFFFFFFFFFFC
0000001FFFFFFFFFFFFFFFFFFFFFFFFFFC
000000007FFFFFFFFFFFFFFFFFFFFFFFFC
000000000000000000000003FFFFF00000
000000000000000000000003FFFFF00000
000000000000000000000003FFFFF00000
000000000000000000000003FFFFF00000
000000000000000000000003FFFFF00000
000000000000000000000003FFFFF00000
000000000000000000000003FFFFF00000
000000000000000000000003FFFFF00000
000000000000000000000003FFFFF00000
000000000000000000000003FFFFF00000
000000000000000000000003FFFFF00000
000000000000000000000003FFFFF00000
000000000000000000000003FFFFF00000
000000000000000000000003FFFFF00000
000000000000000000000003FFFFF00000
000000000000000000000003FFFFF00000
000000000000000000000003FFFFF00000
000000000000000000000003FFFFF00000
000000000000000000000003FFFFF00000
000000000000000000000003FFFFF00000
000000000000000000000003FFFFF00000
000000000000000000000003FFFFF00000
000000000000000000000003FFFFF00000
000000000000000000000003FFFFF00000
000000000000000000000003FFFFF00000
000000000000000000000003FFFFF00000
000000000000000000000003FFFFF00000
000000000000000000000003FFFFF00000
000000000000000000000003FFFFF00000
000000000000000000000003FFFFF00000
000000000000000000000003FFFFF00000
000000000000000000000003FFFFF00000
000000000000000000000003FFFFF00000
000000000000000000000003FFFFF00000
ENDCHAR
STARTCHAR five
ENCODING 53
SWIDTH 885 0
DWIDTH 153 0
BBX 133 126 11 0
BITMAP
FFFFFFFFFFFFFFFFFFFFFFFFFFFFFFFE00
FFFFFFFFFFFFFFFFFFFFFFFFFFFFFFFE00
FFFFFFFFFFFFFFFFFFFFFFFFFFFFFFFE00
FFFFFFFFFFFFFFFFFFFFFFFFFFFFFFFE00
FFFFFFFFFFFFFFFFFFFFFFFFFFFFFFFE00
FFFFFFFFFFFFFFFFFFFFFFFFFFFFFFFE00
FFFFFFFFFFFFFFFFFFFFFFFFFFFFFFFE00
FFFFFFFFFFFFFFFFFFFFFFFFFFFFFFFE00
FFFFFFFFFFFFFFFFFFFFFFFFFFFFFFFE00
FFFFFFFFFFFFFFFFFFFFFFFFFFFFFFFE00
FFFFFFFFFFFFFFFFFFFFFFFFFFFFFFFE00
FFFFFFFFFFFFFFFFFFFFFFFFFFFFFFFE00
FFFFFFFFFFFFFFFFFFFFFFFFFFFFFFFE00
FFFFFFFFFFFFFFFFFFFFFFFFFFFFFFFE00
FFFFFFFFFFFFFFFFFFFFFFFFFFFFFFFE00
FFFFFFFFFFFFFFFFFFFFFFFFFFFFFFFE00
FFFFFFFFFFFFFFFFFFFFFFFFFFFFFFFE00
FFFFFFFFFFFFFFFFFFFFFFFFFFFFFFFE00
FFFFFFFFFFFFFFFFFFFFFFFFFFFFFFFE00
FFFFFFFFFFFFFFFFFFFFFFFFFFFFFFFE00
FFFFFFFFFFFFFFFFFFFFFFFFFFFFFFFE00
FFFFFFFFFFFFFFFFFFFFFFFFFFFFFFFE00
FFFFFE0000000000000000000000000000
FFFFFE0000000000000000000000000000
FFFFFE0000000000000000000000000000
FFFFFE0000000000000000000000000000
FFFFFE0000000000000000000000000000
FFFFFE0000000000000000000000000000
FFFFFE0000000000000000000000000000
FFFFFE0000000000000000000000000000
FFFFFE0000000000000000000000000000
FFFFFE0000000000000000000000000000
FFFFFE0000000000000000000000000000
FFFFFE0000000000000000000000000000
FFFFFE0000000000000000000000000000
FFFFFE0000000000000000000000000000
FFFFFE0000000000000000000000000000
FFFFFE0000000000000000000000000000
FFFFFE0000000000000000000000000000
FFFFFE0000000000000000000000000000
FFFFFE0000000000000000000000000000
FFFFFE0000000000000000000000000000
FFFFFE0000000000000000000000000000
FFFFFE0000000000000000000000000000
FFFFFE0000000000000000000000000000
FFFFFE0000000000000000000000000000
FFFFFE0000000000000000000000000000
FFFFFE0000000000000000000000000000
FFFFFE0000000000000000000000000000
FFFFFE0000000000000000000000000000
FFFFFE0000000000000000000000000000
FFFFFE0000000000000000000000000000
FFFFFFFFFFFFFFFFFFFFFFFFFE00000000
FFFFFFFFFFFFFFFFFFFFFFFFFFF0000000
FFFFFFFFFFFFFFFFFFFFFFFFFFFF000000
FFFFFFFFFFFFFFFFFFFFFFFFFFFFC00000
FFFFFFFFFFFFFFFFFFFFFFFFFFFFF00000
FFFFFFFFFFFFFFFFFFFFFFFFFFFFFC0000
FFFFFFFFFFFFFFFFFFFFFFFFFFFFFF0000
FFFFFFFFFFFFFFFFFFFFFFFFFFFFFF8000
FFFFFFFFFFFFFFFFFFFFFFFFFFFFFFC000
FFFFFFFFFFFFFFFFFFFFFFFFFFFFFFF000
FFFFFFFFFFFFFFFFFFFFFFFFFFFFFFF800
FFFFFFFFFFFFFFFFFFFFFFFFFFFFFFF800
FFFFFFFFFFFFFFFFFFFFFFFFFFFFFFFC00
FFFFFFFFFFFFFFFFFFFFFFFFFFFFFFFE00
FFFFFFFFFFFFFFFFFFFFFFFFFFFFFFFF00
FFFFFFFFFFFFFFFFFFFFFFFFFFFFFFFF00
FFFFFFFFFFFFFFFFFFFFFFFFFFFFFFFF80
FFFFFFFFFFFFFFFFFFFFFFFFFFFFFFFF80
FFFFFFFFFFFFFFFFFFFFFFFFFFFFFFFFC0
0000000000000000000000000FFFFFFFC0
00000000000000000000000001FFFFFFE0
000000000000000000000000007FFFFFE0
000000000000000000000000001FFFFFE0
000000000000000000000000000FFFFFF0
0000000000000000000000000007FFFFF0
0000000000000000000000000003FFFFF0
0000000000000000000000000003FFFFF0
0000000000000000000000000001FFFFF0
0000000000000000000000000001FFFFF8
0000000000000000000000000000FFFFF8
0000000000000000000000000000FFFFF8
0000000000000000000000000000FFFFF8
0000000000000000000000000000FFFFF8
0000000000000000000000000000FFFFF8
0000000000000000000000000000FFFFF8
0000000000000000000000000000FFFFF8
0000000000000000000000000000FFFFF8
0000000000000000000000000000FFFFF8
0000000000000000000000000000FFFFF8
0000000000000000000000000000FFFFF8
0000000000000000000000000000FFFFF8
0000000000000000000000000001FFFFF8
0000000000000000000000000001FFFFF8
0000000000000000000000000001FFFFF8
0000000000000000000000000003FFFFF8
0000000000000000000000000007FFFFF0
0000000000000000000000000007FFFFF0
000000000000000000000000000FFFFFF0
000000000000000000000000003FFFFFF0
000000000000000000000000007FFFFFE0
00000000000000000000000001FFFFFFE0
0000000000000000000000000FFFFFFFE0
FFFFFFFFFFFFFFFFFFFFFFFFFFFFFFFFC0
FFFFFFFFFFFFFFFFFFFFFFFFFFFFFFFFC0
FFFFFFFFFFFFFFFFFFFFFFFFFFFFFFFF80
FFFFFFFFFFFFFFFFFFFFFFFFFFFFFFFF80
FFFFFFFFFFFFFFFFFFFFFFFFFFFFFFFF80
FFFFFFFFFFFFFFFFFFFFFFFFFFFFFFFF00
FFFFFFFFFFFFFFFFFFFFFFFFFFFFFFFE00
FFFFFFFFFFFFFFFFFFFFFFFFFFFFFFFE00
FFFFFFFFFFFFFFFFFFFFFFFFFFFFFFFC00
FFFFFFFFFFFFFFFFFFFFFFFFFFFFFFF800
FFFFFFFFFFFFFFFFFFFFFFFFFFFFFFF000
FFFFFFFFFFFFFFFFFFFFFFFFFFFFFFE000
FFFFFFFFFFFFFFFFFFFFFFFFFFFFFFC000
FFFFFFFFFFFFFFFFFFFFFFFFFFFFFF8000
FFFFFFFFFFFFFFFFFFFFFFFFFFFFFF0000
FFFFFFFFFFFFFFFFFFFFFFFFFFFFFC0000
FFFFFFFFFFFFFFFFFFFFFFFFFFFFF80000
FFFFFFFFFFFFFFFFFFFFFFFFFFFFE00000
FFFFFFFFFFFFFFFFFFFFFFFFFFFF800000
FFFFFFFFFFFFFFFFFFFFFFFFFFFC000000
FFFFFFFFFFFFFFFFFFFFFFFFFFE0000000
FFFFFFFFFFFFFFFFFFFFFFFFFC00000000
ENDCHAR
STARTCHAR six
ENCODING 54
SWIDTH 872 0
DWIDTH 151 0
BBX 135 126 7 0
BITMAP
000000000000FFFFFFFFFFFFFFFFFFFFC0
00000000007FFFFFFFFFFFFFFFFFFFFFC0
0000000007FFFFFFFFFFFFFFFFFFFFFFC0
000000003FFFFFFFFFFFFFFFFFFFFFFFC0
00000001FFFFFFFFFFFFFFFFFFFFFFFFC0
00000007FFFFFFFFFFFFFFFFFFFFFFFFC0
0000001FFFFFFFFFFFFFFFFFFFFFFFFFC0
0000007FFFFFFFFFFFFFFFFFFFFFFFFFC0
000001FFFFFFFFFFFFFFFFFFFFFFFFFFC0
000003FFFFFFFFFFFFFFFFFFFFFFFFFFC0
00000FFFFFFFFFFFFFFFFFFFFFFFFFFFC0
00001FFFFFFFFFFFFFFFFFFFFFFFFFFFC0
00003FFFFFFFFFFFFFFFFFFFFFFFFFFFC0
00007FFFFFFFFFFFFFFFFFFFFFFFFFFFC0
0000FFFFFFFFFFFFFFFFFFFFFFFFFFFFC0
0001FFFFFFFFFFFFFFFFFFFFFFFFFFFFC0
0003FFFFFFFFFFFFFFFFFFFFFFFFFFFFC0
0007FFFFFFFFFFFFFFFFFFFFFFFFFFFFC0
000FFFFFFFFFFFFFFFFFFFFFFFFFFFFFC0
001FFFFFFFFFFFFFFFFFFFFFFFFFFFFFC0
001FFFFFFFFFFFFFFFFFFFFFFFFFFFFFC0
003FFFFFFFFFFFFFFFFFFFFFFFFFFFFFC0
007FFFFFFFFFC000000000000000000000
007FFFFFFFF80000000000000000000000
00FFFFFFFFC00000000000000000000000
00FFFFFFFE000000000000000000000000
01FFFFFFF8000000000000000000000000
01FFFFFFF0000000000000000000000000
03FFFFFFC0000000000000000000000000
03FFFFFF80000000000000000000000000
07FFFFFF00000000000000000000000000
07FFFFFE00000000000000000000000000
07FFFFFC00000000000000000000000000
0FFFFFF800000000000000000000000000
0FFFFFF800000000000000000000000000
0FFFFFF000000000000000000000000000
1FFFFFE000000000000000000000000000
1FFFFFE000000000000000000000000000
1FFFFFC000000000000000000000000000
1FFFFFC000000000000000000000000000
3FFFFFC000000000000000000000000000
3FFFFF8000000000000000000000000000
3FFFFF8000000000000000000000000000
3FFFFF8000000000000000000000000000
3FFFFF0000000000000000000000000000
7FFFFF0000000000000000000000000000
7FFFFF0000000000000000000000000000
7FFFFE0000000000000000000000000000
7FFFFE0000000000000000000000000000
7FFFFE0000000000000000000000000000
7FFFFE0000000000000000000000000000
7FFFFE0000000000000000000000000000
7FFFFFFFFFFFFFFFFFFFFFFFFF80000000
7FFFFFFFFFFFFFFFFFFFFFFFFFFC000000
FFFFFFFFFFFFFFFFFFFFFFFFFFFFC00000
FFFFFFFFFFFFFFFFFFFFFFFFFFFFF00000
FFFFFFFFFFFFFFFFFFFFFFFFFFFFFC0000
FFFFFFFFFFFFFFFFFFFFFFFFFFFFFF0000
FFFFFFFFFFFFFFFFFFFFFFFFFFFFFFC000
FFFFFFFFFFFFFFFFFFFFFFFFFFFFFFE000
FFFFFFFFFFFFFFFFFFFFFFFFFFFFFFF800
FFFFFFFFFFFFFFFFFFFFFFFFFFFFFFFC00
FFFFFFFFFFFFFFFFFFFFFFFFFFFFFFFE00
FFFFFFFFFFFFFFFFFFFFFFFFFFFFFFFE00
FFFFFFFFFFFFFFFFFFFFFFFFFFFFFFFF00
FFFFFFFFFFFFFFFFFFFFFFFFFFFFFFFF80
FFFFFFFFFFFFFFFFFFFFFFFFFFFFFFFFC0
FFFFFFFFFFFFFFFFFFFFFFFFFFFFFFFFC0
FFFFFFFFFFFFFFFFFFFFFFFFFFFFFFFFE0
FFFFFFFFFFFFFFFFFFFFFFFFFFFFFFFFE0
7FFFFFFFFFFFFFFFFFFFFFFFFFFFFFFFF0
7FFFFE0000000000000000000FFFFFFFF0
7FFFFE00000000000000000000FFFFFFF0
7FFFFE000000000000000000001FFFFFF8
7FFFFE000000000000000000000FFFFFF8
7FFFFE0000000000000000000007FFFFF8
7FFFFE0000000000000000000003FFFFFC
7FFFFF0000000000000000000001FFFFFC
7FFFFF0000000000000000000000FFFFFC
3FFFFF0000000000000000000000FFFFFC
3FFFFF00000000000000000000007FFFFC
3FFFFF80000000000000000000007FFFFC
3FFFFF80000000000000000000007FFFFC
3FFFFF80000000000000000000007FFFFE
1FFFFFC0000000000000000000007FFFFE
1FFFFFC0000000000000000000003FFFFE
1FFFFFC0000000000000000000003FFFFE
1FFFFFE0000000000000000000003FFFFE
0FFFFFE0000000000000000000007FFFFE
0FFFFFF0000000000000000000007FFFFE
0FFFFFF0000000000000000000007FFFFE
07FFFFF8000000000000000000007FFFFE
07FFFFFC000000000000000000007FFFFC
07FFFFFE000000000000000000007FFFFC
03FFFFFE00000000000000000000FFFFFC
03FFFFFF00000000000000000000FFFFFC
01FFFFFFC0000000000000000001FFFFFC
01FFFFFFE0000000000000000003FFFFFC
00FFFFFFF0000000000000000003FFFFFC
00FFFFFFFC000000000000000007FFFFF8
007FFFFFFF00000000000000001FFFFFF8
007FFFFFFFC0000000000000003FFFFFF8
003FFFFFFFF800000000000000FFFFFFF8
003FFFFFFFFFC000000000000FFFFFFFF0
001FFFFFFFFFFFFFFFFFFFFFFFFFFFFFF0
000FFFFFFFFFFFFFFFFFFFFFFFFFFFFFF0
000FFFFFFFFFFFFFFFFFFFFFFFFFFFFFE0
0007FFFFFFFFFFFFFFFFFFFFFFFFFFFFE0
0003FFFFFFFFFFFFFFFFFFFFFFFFFFFFC0
0001FFFFFFFFFFFFFFFFFFFFFFFFFFFF80
0000FFFFFFFFFFFFFFFFFFFFFFFFFFFF80
00007FFFFFFFFFFFFFFFFFFFFFFFFFFF00
00003FFFFFFFFFFFFFFFFFFFFFFFFFFE00
00001FFFFFFFFFFFFFFFFFFFFFFFFFFE00
00000FFFFFFFFFFFFFFFFFFFFFFFFFFC00
000007FFFFFFFFFFFFFFFFFFFFFFFFF800
000001FFFFFFFFFFFFFFFFFFFFFFFFF000
000000FFFFFFFFFFFFFFFFFFFFFFFFE000
0000003FFFFFFFFFFFFFFFFFFFFFFFC000
0000000FFFFFFFFFFFFFFFFFFFFFFF0000
00000003FFFFFFFFFFFFFFFFFFFFFE0000
00000000FFFFFFFFFFFFFFFFFFFFF80000
000000001FFFFFFFFFFFFFFFFFFFE00000
0000000003FFFFFFFFFFFFFFFFFF000000
00000000003FFFFFFFFFFFFFFFF8000000
000000000000FFFFFFFFFFFFFF00000000
ENDCHAR
STARTCHAR seven
ENCODING 55
SWIDTH 756 0
DWIDTH 131 0
BBX 119 126 8 0
BITMAP
FFFFFFFFFFFFFFFFFFFFFFFFFFFE00
FFFFFFFFFFFFFFFFFFFFFFFFFFFFC0
FFFFFFFFFFFFFFFFFFFFFFFFFFFFE0
FFFFFFFFFFFFFFFFFFFFFFFFFFFFF0
FFFFFFFFFFFFFFFFFFFFFFFFFFFFF8
FFFFFFFFFFFFFFFFFFFFFFFFFFFFFC
FFFFFFFFFFFFFFFFFFFFFFFFFFFFFC
FFFFFFFFFFFFFFFFFFFFFFFFFFFFFE
FFFFFFFFFFFFFFFFFFFFFFFFFFFFFE
FFFFFFFFFFFFFFFFFFFFFFFFFFFFFE
FFFFFFFFFFFFFFFFFFFFFFFFFFFFFE
FFFFFFFFFFFFFFFFFFFFFFFFFFFFFE
FFFFFFFFFFFFFFFFFFFFFFFFFFFFFE
FFFFFFFFFFFFFFFFFFFFFFFFFFFFFE
FFFFFFFFFFFFFFFFFFFFFFFFFFFFFE
FFFFFFFFFFFFFFFFFFFFFFFFFFFFFC
FFFFFFFFFFFFFFFFFFFFFFFFFFFFFC
FFFFFFFFFFFFFFFFFFFFFFFFFFFFF8
FFFFFFFFFFFFFFFFFFFFFFFFFFFFF8
FFFFFFFFFFFFFFFFFFFFFFFFFFFFF0
FFFFFFFFFFFFFFFFFFFFFFFFFFFFE0
FFFFFFFFFFFFFFFFFFFFFFFFFFFFC0
0000000000000000000003FFFFFFC0
0000000000000000000007FFFFFF80
0000000000000000000007FFFFFF00
000000000000000000000FFFFFFE00
000000000000000000001FFFFFFC00
000000000000000000003FFFFFFC00
000000000000000000007FFFFFF800
00000000000000000000FFFFFFF000
00000000000000000000FFFFFFE000
00000000000000000001FFFFFFC000
00000000000000000003FFFFFF8000
00000000000000000007FFFFFF8000
0000000000000000000FFFFFFF0000
0000000000000000001FFFFFFE0000
0000000000000000001FFFFFFC0000
0000000000000000003FFFFFF80000
0000000000000000007FFFFFF80000
000000000000000000FFFFFFF00000
000000000000000001FFFFFFE00000
000000000000000003FFFFFFC00000
000000000000000003FFFFFF800000
000000000000000007FFFFFF000000
00000000000000000FFFFFFF000000
00000000000000001FFFFFFE000000
00000000000000003FFFFFFC000000
00000000000000003FFFFFF8000000
00000000000000007FFFFFF0000000
0000000000000000FFFFFFF0000000
0000000000000001FFFFFFE0000000
0000000000000003FFFFFFC0000000
0000000000000007FFFFFF80000000
0000000000000007FFFFFF00000000
000000000000000FFFFFFF00000000
000000000000001FFFFFFE00000000
000000000000003FFFFFFC00000000
000000000000007FFFFFF800000000
00000000000000FFFFFFF000000000
00000000000000FFFFFFE000000000
00000000000001FFFFFFE000000000
00000000000003FFFFFFC000000000
00000000000007FFFFFF8000000000
0000000000000FFFFFFF0000000000
0000000000001FFFFFFE0000000000
0000000000001FFFFFFE0000000000
0000000000003FFFFFFC0000000000
0000000000007FFFFFF80000000000
000000000000FFFFFFF00000000000
000000000001FFFFFFE00000000000
000000000001FFFFFFC00000000000
000000000003FFFFFFC00000000000
000000000007FFFFFF800000000000
00000000000FFFFFFF000000000000
00000000001FFFFFFE000000000000
00000000003FFFFFFC000000000000
00000000003FFFFFFC000000000000
00000000007FFFFFF8000000000000
0000000000FFFFFFF0000000000000
0000000001FFFFFFE0000000000000
0000000003FFFFFFC0000000000000
0000000007FFFFFF80000000000000
0000000007FFFFFF80000000000000
000000000FFFFFFF00000000000000
000000001FFFFFFE00000000000000
000000003FFFFFFC00000000000000
000000007FFFFFF800000000000000
00000000FFFFFFF800000000000000
00000000FFFFFFF000000000000000
00000001FFFFFFE000000000000000
00000003FFFFFFC000000000000000
00000007FFFFFF8000000000000000
0000000FFFFFFF8000000000000000
0000001FFFFFFF0000000000000000
0000001FFFFFFE0000000000000000
0000003FFFFFFC0000000000000000
0000007FFFFFF80000000000000000
000000FFFFFFF00000000000000000
000001FFFFFFF00000000000000000
000001FFFFFFE00000000000000000
000003FFFFFFC00000000000000000
000007FFFFFF800000000000000000
00000FFFFFFF000000000000000000
00001FFFFFFF000000000000000000
00003FFFFFFE000000000000000000
00003FFFFFFC000000000000000000
00007FFFFFF8000000000000000000
0000FFFFFFF0000000000000000000
0001FFFFFFE0000000000000000000
0003FFFFFFE0000000000000000000
0007FFFFFFC0000000000000000000
0007FFFFFF80000000000000000000
000FFFFFFF00000000000000000000
001FFFFFFE00000000000000000000
003FFFFFFE00000000000000000000
007FFFFFFC00000000000000000000
00FFFFFFF800000000000000000000
00FFFFFFF000000000000000000000
01FFFFFFE000000000000000000000
03FFFFFFE000000000000000000000
07FFFFFFC000000000000000000000
0FFFFFFF8000000000000000000000
0FFFFFFF0000000000000000000000
1FFFFFFE0000000000000000000000
3FFFFFFC0000000000000000000000
7FFFFFFC0000000000000000000000
ENDCHAR
STARTCHAR eight
ENCODING 56
SWIDTH 898 0
DWIDTH 155 0
BBX 138 126 9 0
BITMAP
000000003FFFFFFFFFFFFFFFFE0000000000
0000000FFFFFFFFFFFFFFFFFFFF800000000
0000007FFFFFFFFFFFFFFFFFFFFF80000000
000003FFFFFFFFFFFFFFFFFFFFFFF0000000
00001FFFFFFFFFFFFFFFFFFFFFFFFC000000
00007FFFFFFFFFFFFFFFFFFFFFFFFF000000
0000FFFFFFFFFFFFFFFFFFFFFFFFFFC00000
0003FFFFFFFFFFFFFFFFFFFFFFFFFFE00000
0007FFFFFFFFFFFFFFFFFFFFFFFFFFF80000
000FFFFFFFFFFFFFFFFFFFFFFFFFFFFC0000
001FFFFFFFFFFFFFFFFFFFFFFFFFFFFE0000
003FFFFFFFFFFFFFFFFFFFFFFFFFFFFF0000
007FFFFFFFFFFFFFFFFFFFFFFFFFFFFF8000
00FFFFFFFFFFFFFFFFFFFFFFFFFFFFFF8000
01FFFFFFFFFFFFFFFFFFFFFFFFFFFFFFC000
01FFFFFFFFFFFFFFFFFFFFFFFFFFFFFFE000
03FFFFFFFFFFFFFFFFFFFFFFFFFFFFFFE000
07FFFFFFFFFFFFFFFFFFFFFFFFFFFFFFF000
07FFFFFFFFFFFFFFFFFFFFFFFFFFFFFFF000
07FFFFFFFFFFFFFFFFFFFFFFFFFFFFFFF800
0FFFFFFFFFFFFFFFFFFFFFFFFFFFFFFFF800
0FFFFFFFFFFFFFFFFFFFFFFFFFFFFFFFFC00
0FFFFFFFFE000000000000003FFFFFFFFC00
1FFFFFFFC00000000000000001FFFFFFFC00
1FFFFFFF0000000000000000003FFFFFFC00
1FFFFFFC0000000000000000001FFFFFFE00
1FFFFFF000000000000000000007FFFFFE00
1FFFFFE000000000000000000003FFFFFE00
3FFFFFE000000000000000000001FFFFFE00
3FFFFFC000000000000000000001FFFFFE00
3FFFFFC000000000000000000000FFFFFE00
3FFFFF8000000000000000000000FFFFFE00
3FFFFF8000000000000000000000FFFFFE00
3FFFFF80000000000000000000007FFFFE00
3FFFFF80000000000000000000007FFFFE00
3FFFFF00000000000000000000007FFFFE00
3FFFFF00000000000000000000007FFFFE00
1FFFFF00000000000000000000007FFFFE00
1FFFFF00000000000000000000007FFFFE00
1FFFFF00000000000000000000007FFFFE00
1FFFFF80000000000000000000007FFFFE00
1FFFFF80000000000000000000007FFFFC00
1FFFFF8000000000000000000000FFFFFC00
0FFFFF8000000000000000000000FFFFFC00
0FFFFFC000000000000000000000FFFFF800
0FFFFFC000000000000000000001FFFFF800
07FFFFE000000000000000000001FFFFF800
07FFFFF000000000000000000003FFFFF000
03FFFFF800000000000000000007FFFFE000
01FFFFFC0000000000000000001FFFFFE000
01FFFFFF0000000000000000007FFFFFC000
00FFFFFFF00000000000000007FFFFFF8000
007FFFFFFFFFFFFFFFFFFFFFFFFFFFFF0000
003FFFFFFFFFFFFFFFFFFFFFFFFFFFFE0000
001FFFFFFFFFFFFFFFFFFFFFFFFFFFFC0000
0007FFFFFFFFFFFFFFFFFFFFFFFFFFF80000
0003FFFFFFFFFFFFFFFFFFFFFFFFFFE00000
0000FFFFFFFFFFFFFFFFFFFFFFFFFFC00000
00003FFFFFFFFFFFFFFFFFFFFFFFFE000000
00003FFFFFFFFFFFFFFFFFFFFFFFFE000000
0000FFFFFFFFFFFFFFFFFFFFFFFFFFC00000
0003FFFFFFFFFFFFFFFFFFFFFFFFFFE00000
000FFFFFFFFFFFFFFFFFFFFFFFFFFFF80000
001FFFFFFFFFFFFFFFFFFFFFFFFFFFFC0000
003FFFFFFFFFFFFFFFFFFFFFFFFFFFFF0000
007FFFFFFFFFFFFFFFFFFFFFFFFFFFFF8000
00FFFFFFFFFFFFFFFFFFFFFFFFFFFFFFC000
01FFFFFFFFFFFFFFFFFFFFFFFFFFFFFFE000
03FFFFFFFFFFFFFFFFFFFFFFFFFFFFFFE000
07FFFFFFFFFFFFFFFFFFFFFFFFFFFFFFF000
0FFFFFFFFFFFFFFFFFFFFFFFFFFFFFFFF800
0FFFFFFFE00000000000000003FFFFFFFC00
1FFFFFFF0000000000000000003FFFFFFC00
1FFFFFFC0000000000000000000FFFFFFE00
3FFFFFF000000000000000000007FFFFFE00
3FFFFFE000000000000000000001FFFFFE00
7FFFFFC000000000000000000000FFFFFF00
7FFFFF8000000000000000000000FFFFFF00
7FFFFF00000000000000000000007FFFFF00
7FFFFF00000000000000000000003FFFFF80
FFFFFE00000000000000000000003FFFFF80
FFFFFE00000000000000000000001FFFFF80
FFFFFE00000000000000000000001FFFFF80
FFFFFC00000000000000000000001FFFFF80
FFFFFC00000000000000000000001FFFFF80
FFFFFC00000000000000000000001FFFFF80
FFFFFC00000000000000000000001FFFFFC0
FFFFFC00000000000000000000001FFFFFC0
FFFFFC00000000000000000000001FFFFFC0
FFFFFC00000000000000000000001FFFFF80
FFFFFC00000000000000000000001FFFFF80
FFFFFC00000000000000000000001FFFFF80
FFFFFE00000000000000000000001FFFFF80
FFFFFE00000000000000000000003FFFFF80
FFFFFF00000000000000000000003FFFFF80
FFFFFF00000000000000000000007FFFFF80
7FFFFF80000000000000000000007FFFFF80
7FFFFFC000000000000000000000FFFFFF00
7FFFFFE000000000000000000001FFFFFF00
7FFFFFF000000000000000000007FFFFFF00
3FFFFFFC0000000000000000000FFFFFFF00
3FFFFFFF0000000000000000003FFFFFFE00
3FFFFFFFC00000000000000001FFFFFFFE00
1FFFFFFFFE000000000000003FFFFFFFFE00
1FFFFFFFFFFFFFFFFFFFFFFFFFFFFFFFFC00
0FFFFFFFFFFFFFFFFFFFFFFFFFFFFFFFFC00
0FFFFFFFFFFFFFFFFFFFFFFFFFFFFFFFF800
07FFFFFFFFFFFFFFFFFFFFFFFFFFFFFFF800
07FFFFFFFFFFFFFFFFFFFFFFFFFFFFFFF000
03FFFFFFFFFFFFFFFFFFFFFFFFFFFFFFF000
03FFFFFFFFFFFFFFFFFFFFFFFFFFFFFFE000
01FFFFFFFFFFFFFFFFFFFFFFFFFFFFFFC000
00FFFFFFFFFFFFFFFFFFFFFFFFFFFFFF8000
007FFFFFFFFFFFFFFFFFFFFFFFFFFFFF0000
003FFFFFFFFFFFFFFFFFFFFFFFFFFFFF0000
001FFFFFFFFFFFFFFFFFFFFFFFFFFFFE0000
000FFFFFFFFFFFFFFFFFFFFFFFFFFFF80000
0007FFFFFFFFFFFFFFFFFFFFFFFFFFF00000
0003FFFFFFFFFFFFFFFFFFFFFFFFFFE00000
0000FFFFFFFFFFFFFFFFFFFFFFFFFF800000
00007FFFFFFFFFFFFFFFFFFFFFFFFF000000
00001FFFFFFFFFFFFFFFFFFFFFFFFC000000
000003FFFFFFFFFFFFFFFFFFFFFFF0000000
000000FFFFFFFFFFFFFFFFFFFFFF80000000
0000001FFFFFFFFFFFFFFFFFFFFC00000000
00000000FFFFFFFFFFFFFFFFFF0000000000
ENDCHAR
STARTCHAR nine
ENCODING 57
SWIDTH 861 0
DWIDTH 149 0
BBX 135 126 7 0
BITMAP
00000003FFFFFFFFFFFFFE000000000000
0000003FFFFFFFFFFFFFFFF80000000000
000001FFFFFFFFFFFFFFFFFF8000000000
000007FFFFFFFFFFFFFFFFFFF000000000
00001FFFFFFFFFFFFFFFFFFFFE00000000
00007FFFFFFFFFFFFFFFFFFFFF80000000
0001FFFFFFFFFFFFFFFFFFFFFFE0000000
0003FFFFFFFFFFFFFFFFFFFFFFF8000000
0007FFFFFFFFFFFFFFFFFFFFFFFC000000
000FFFFFFFFFFFFFFFFFFFFFFFFF000000
001FFFFFFFFFFFFFFFFFFFFFFFFF800000
003FFFFFFFFFFFFFFFFFFFFFFFFFE00000
007FFFFFFFFFFFFFFFFFFFFFFFFFF00000
00FFFFFFFFFFFFFFFFFFFFFFFFFFF80000
01FFFFFFFFFFFFFFFFFFFFFFFFFFFC0000
01FFFFFFFFFFFFFFFFFFFFFFFFFFFE0000
03FFFFFFFFFFFFFFFFFFFFFFFFFFFF0000
03FFFFFFFFFFFFFFFFFFFFFFFFFFFF8000
07FFFFFFFFFFFFFFFFFFFFFFFFFFFFC000
0FFFFFFFFFFFFFFFFFFFFFFFFFFFFFC000
0FFFFFFFFFFFFFFFFFFFFFFFFFFFFFE000
0FFFFFFFFFFFFFFFFFFFFFFFFFFFFFF000
1FFFFFFFE0000000000007FFFFFFFFF000
1FFFFFFF000000000000003FFFFFFFF800
3FFFFFFC0000000000000007FFFFFFFC00
3FFFFFF80000000000000001FFFFFFFC00
3FFFFFF000000000000000007FFFFFFE00
3FFFFFE000000000000000001FFFFFFE00
7FFFFFC000000000000000000FFFFFFF00
7FFFFF80000000000000000007FFFFFF00
7FFFFF80000000000000000003FFFFFF80
7FFFFF00000000000000000001FFFFFF80
7FFFFF00000000000000000000FFFFFF80
7FFFFE000000000000000000007FFFFFC0
FFFFFE000000000000000000003FFFFFC0
FFFFFE000000000000000000003FFFFFE0
FFFFFE000000000000000000001FFFFFE0
FFFFFE000000000000000000000FFFFFE0
FFFFFE000000000000000000000FFFFFE0
FFFFFE000000000000000000000FFFFFF0
FFFFFE0000000000000000000007FFFFF0
FFFFFE0000000000000000000007FFFFF0
FFFFFE0000000000000000000003FFFFF0
FFFFFE0000000000000000000003FFFFF8
FFFFFE0000000000000000000003FFFFF8
7FFFFE0000000000000000000001FFFFF8
7FFFFE0000000000000000000001FFFFF8
7FFFFE0000000000000000000001FFFFF8
7FFFFF0000000000000000000001FFFFFC
7FFFFF0000000000000000000001FFFFFC
7FFFFF8000000000000000000000FFFFFC
7FFFFF8000000000000000000000FFFFFC
3FFFFFC000000000000000000000FFFFFC
3FFFFFE000000000000000000000FFFFFC
3FFFFFF000000000000000000000FFFFFC
1FFFFFFC00000000000000000000FFFFFC
1FFFFFFF00000000000000000000FFFFFC
1FFFFFFFE00000000000000000007FFFFC
0FFFFFFFFFFFFFFFFFFFFFFFFFFFFFFFFE
0FFFFFFFFFFFFFFFFFFFFFFFFFFFFFFFFE
07FFFFFFFFFFFFFFFFFFFFFFFFFFFFFFFE
07FFFFFFFFFFFFFFFFFFFFFFFFFFFFFFFE
03FFFFFFFFFFFFFFFFFFFFFFFFFFFFFFFE
03FFFFFFFFFFFFFFFFFFFFFFFFFFFFFFFE
01FFFFFFFFFFFFFFFFFFFFFFFFFFFFFFFE
00FFFFFFFFFFFFFFFFFFFFFFFFFFFFFFFE
007FFFFFFFFFFFFFFFFFFFFFFFFFFFFFFE
003FFFFFFFFFFFFFFFFFFFFFFFFFFFFFFE
001FFFFFFFFFFFFFFFFFFFFFFFFFFFFFFE
0007FFFFFFFFFFFFFFFFFFFFFFFFFFFFFE
0003FFFFFFFFFFFFFFFFFFFFFFFFFFFFFE
0000FFFFFFFFFFFFFFFFFFFFFFFFFFFFFC
00003FFFFFFFFFFFFFFFFFFFFFFFFFFFFC
00000FFFFFFFFFFFFFFFFFFFFFFFFFFFFC
000000FFFFFFFFFFFFFFFFFFFFFFFFFFFC
00000007FFFFFFFFFFFFFFFFFFFFFFFFFC
0000000000000000000000000000FFFFFC
0000000000000000000000000001FFFFFC
0000000000000000000000000001FFFFFC
0000000000000000000000000001FFFFFC
0000000000000000000000000001FFFFFC
0000000000000000000000000003FFFFF8
0000000000000000000000000003FFFFF8
0000000000000000000000000003FFFFF8
0000000000000000000000000007FFFFF8
0000000000000000000000000007FFFFF8
0000000000000000000000000007FFFFF0
000000000000000000000000000FFFFFF0
000000000000000000000000000FFFFFF0
000000000000000000000000001FFFFFF0
000000000000000000000000001FFFFFE0
000000000000000000000000003FFFFFE0
000000000000000000000000007FFFFFE0
00000000000000000000000000FFFFFFC0
00000000000000000000000000FFFFFFC0
00000000000000000000000001FFFFFF80
00000000000000000000000003FFFFFF80
0000000000000000000000000FFFFFFF80
0000000000000000000000001FFFFFFF00
0000000000000000000000007FFFFFFF00
000000000000000000000001FFFFFFFE00
000000000000000000000007FFFFFFFE00
00000000000000000000003FFFFFFFFC00
0000000000000000000007FFFFFFFFF800
0003FFFFFFFFFFFFFFFFFFFFFFFFFFF800
0003FFFFFFFFFFFFFFFFFFFFFFFFFFF000
0003FFFFFFFFFFFFFFFFFFFFFFFFFFE000
0003FFFFFFFFFFFFFFFFFFFFFFFFFFE000
0003FFFFFFFFFFFFFFFFFFFFFFFFFFC000
0003FFFFFFFFFFFFFFFFFFFFFFFFFF8000
0003FFFFFFFFFFFFFFFFFFFFFFFFFF0000
0003FFFFFFFFFFFFFFFFFFFFFFFFFE0000
0003FFFFFFFFFFFFFFFFFFFFFFFFFC0000
0003FFFFFFFFFFFFFFFFFFFFFFFFF80000
0003FFFFFFFFFFFFFFFFFFFFFFFFF00000
0003FFFFFFFFFFFFFFFFFFFFFFFFE00000
0003FFFFFFFFFFFFFFFFFFFFFFFF800000
0003FFFFFFFFFFFFFFFFFFFFFFFF000000
0003FFFFFFFFFFFFFFFFFFFFFFFC000000
0003FFFFFFFFFFFFFFFFFFFFFFF0000000
0003FFFFFFFFFFFFFFFFFFFFFFC0000000
0003FFFFFFFFFFFFFFFFFFFFFF00000000
0003FFFFFFFFFFFFFFFFFFFFF800000000
0003FFFFFFFFFFFFFFFFFFFFC000000000
0003FFFFFFFFFFFFFFFFFFFC0000000000
0003FFFFFFFFFFFFFFFFFE000000000000
ENDCHAR
STARTCHAR colon
ENCODING 58
SWIDTH 262 0
DWIDTH 45 0
BBX 23 81 11 0
BITMAP
00FE00
03FF80
0FFFE0
1FFFF0
3FFFF8
3FFFFC
7FFFFC
7FFFFE
FFFFFE
FFFFFE
FFFFFE
FFFFFE
FFFFFE
FFFFFE
FFFFFE
FFFFFE
7FFFFE
7FFFFC
7FFFFC
3FFFF8
1FFFF0
0FFFE0
03FF80
00FE00
000000
000000
000000
000000
000000
000000
000000
000000
000000
000000
000000
000000
000000
000000
000000
000000
000000
000000
000000
000000
000000
000000
000000
000000
000000
000000
000000
000000
000000
000000
000000
000000
000000
00FE00
03FF80
0FFFE0
1FFFF0
3FFFF8
3FFFFC
7FFFFC
7FFFFE
FFFFFE
FFFFFE
FFFFFE
FFFFFE
FFFFFE
FFFFFE
FFFFFE
FFFFFE
7FFFFE
7FFFFC
3FFFFC
3FFFF8
1FFFF0
0FFFE0
03FF80
00FE00
ENDCHAR
STARTCHAR semicolon
ENCODING 59
SWIDTH 262 0
DWIDTH 45 0
BBX 23 100 11 -20
BITMAP
00FE00
03FFC0
0FFFE0
1FFFF0
3FFFF8
3FFFFC
7FFFFC
7FFFFE
FFFFFE
FFFFFE
FFFFFE
FFFFFE
FFFFFE
FFFFFE
FFFFFE
FFFFFE
7FFFFE
7FFFFC
3FFFFC
3FFFF8
1FFFF0
0FFFE0
03FFC0
00FE00
000000
000000
000000
000000
000000
000000
000000
000000
000000
000000
000000
000000
000000
000000
000000
000000
000000
000000
000000
000000
000000
000000
000000
000000
000000
000000
000000
000000
000000
000000
000000
7FFFFE
7FFFFE
7FFFFC
7FFFFC
7FFFFC
7FFFFC
7FFFFC
7FFFF8
7FFFF8
7FFFF8
7FFFF8
7FFFF8
7FFFF8
7FFFF0
7FFFF0
7FFFF0
7FFFF0
7FFFF0
7FFFE0
7FFFE0
7FFFE0
7FFFE0
7FFFE0
7FFFC0
7FFFC0
7FFFC0
7FFFC0
7FFFC0
7FFF80
7FFF80
7FFF80
7FFF80
7FFF80
7FFF00
7FFF00
7FFF00
7FFF00
7FFF00
7FFF00
7FFE00
7FFE00
7FFE00
7FFE00
7FFE00
7FFC00
ENDCHAR
STARTCHAR less
ENCODING 60
SWIDTH 690 0
DWIDTH 119 0
BBX 97 94 11 17
BITMAP
00000000000000000000000080
00000000000000000000000380
00000000000000000000000F80
00000000000000000000003F80
0000000000000000000001FF80
0000000000000000000007FF80
000000000000000000001FFF80
00000000000000000000FFFF80
00000000000000000003FFFF80
0000000000000000001FFFFF80
0000000000000000007FFFFF80
000000000000000001FFFFFF80
00000000000000000FFFFFFF80
00000000000000003FFFFFFF80
0000000000000000FFFFFFFF80
0000000000000007FFFFFFFF80
000000000000001FFFFFFFFF00
00000000000000FFFFFFFFFC00
00000000000003FFFFFFFFE000
0000000000000FFFFFFFFF8000
0000000000007FFFFFFFFC0000
000000000001FFFFFFFFE00000
00000000000FFFFFFFFF800000
00000000003FFFFFFFFC000000
0000000000FFFFFFFFF0000000
0000000007FFFFFFFF80000000
000000001FFFFFFFFE00000000
000000007FFFFFFFF000000000
00000003FFFFFFFFC000000000
0000000FFFFFFFFE0000000000
0000007FFFFFFFF00000000000
000001FFFFFFFFC00000000000
000007FFFFFFFE000000000000
00003FFFFFFFF8000000000000
0000FFFFFFFFC0000000000000
0007FFFFFFFF00000000000000
001FFFFFFFF800000000000000
007FFFFFFFE000000000000000
03FFFFFFFF0000000000000000
0FFFFFFFF80000000000000000
1FFFFFFFE00000000000000000
3FFFFFFF000000000000000000
7FFFFFFC000000000000000000
7FFFFFE0000000000000000000
FFFFFF80000000000000000000
FFFFFC00000000000000000000
FFFFF000000000000000000000
FFFFF000000000000000000000
FFFFFE00000000000000000000
FFFFFF80000000000000000000
7FFFFFF0000000000000000000
7FFFFFFC000000000000000000
3FFFFFFF800000000000000000
1FFFFFFFE00000000000000000
07FFFFFFFC0000000000000000
01FFFFFFFF0000000000000000
007FFFFFFFE000000000000000
000FFFFFFFF800000000000000
0003FFFFFFFF00000000000000
0000FFFFFFFFC0000000000000
00001FFFFFFFF8000000000000
000007FFFFFFFF000000000000
000001FFFFFFFFC00000000000
0000003FFFFFFFF80000000000
0000000FFFFFFFFE0000000000
00000001FFFFFFFFC000000000
000000007FFFFFFFF000000000
000000001FFFFFFFFE00000000
0000000003FFFFFFFF80000000
0000000000FFFFFFFFF0000000
00000000003FFFFFFFFC000000
000000000007FFFFFFFF800000
000000000001FFFFFFFFE00000
0000000000003FFFFFFFFC0000
0000000000000FFFFFFFFF0000
00000000000003FFFFFFFFE000
000000000000007FFFFFFFFC00
000000000000001FFFFFFFFF00
0000000000000007FFFFFFFF80
0000000000000000FFFFFFFF80
00000000000000003FFFFFFF80
000000000000000007FFFFFF80
000000000000000001FFFFFF80
0000000000000000007FFFFF80
0000000000000000000FFFFF80
00000000000000000003FFFF80
00000000000000000000FFFF80
000000000000000000001FFF80
0000000000000000000007FF80
0000000000000000000000FF80
00000000000000000000003F80
00000000000000000000000F80
00000000000000000000000180
00000000000000000000000080
ENDCHAR
STARTCHAR equal
ENCODING 61
SWIDTH 690 0
DWIDTH 119 0
BBX 97 62 11 33
BITMAP
FFFFFFFFFFFFFFFFFFFFFFFF80
FFFFFFFFFFFFFFFFFFFFFFFF80
FFFFFFFFFFFFFFFFFFFFFFFF80
FFFFFFFFFFFFFFFFFFFFFFFF80
FFFFFFFFFFFFFFFFFFFFFFFF80
FFFFFFFFFFFFFFFFFFFFFFFF80
FFFFFFFFFFFFFFFFFFFFFFFF80
FFFFFFFFFFFFFFFFFFFFFFFF80
FFFFFFFFFFFFFFFFFFFFFFFF80
FFFFFFFFFFFFFFFFFFFFFFFF80
FFFFFFFFFFFFFFFFFFFFFFFF80
FFFFFFFFFFFFFFFFFFFFFFFF80
FFFFFFFFFFFFFFFFFFFFFFFF80
FFFFFFFFFFFFFFFFFFFFFFFF80
FFFFFFFFFFFFFFFFFFFFFFFF80
00000000000000000000000000
00000000000000000000000000
00000000000000000000000000
00000000000000000000000000
00000000000000000000000000
00000000000000000000000000
00000000000000000000000000
00000000000000000000000000
00000000000000000000000000
00000000000000000000000000
00000000000000000000000000
00000000000000000000000000
00000000000000000000000000
00000000000000000000000000
00000000000000000000000000
00000000000000000000000000
00000000000000000000000000
00000000000000000000000000
00000000000000000000000000
00000000000000000000000000
00000000000000000000000000
00000000000000000000000000
00000000000000000000000000
00000000000000000000000000
00000000000000000000000000
00000000000000000000000000
00000000000000000000000000
00000000000000000000000000
00000000000000000000000000
00000000000000000000000000
00000000000000000000000000
00000000000000000000000000
FFFFFFFFFFFFFFFFFFFFFFFF80
FFFFFFFFFFFFFFFFFFFFFFFF80
FFFFFFFFFFFFFFFFFFFFFFFF80
FFFFFFFFFFFFFFFFFFFFFFFF80
FFFFFFFFFFFFFFFFFFFFFFFF80
FFFFFFFFFFFFFFFFFFFFFFFF80
FFFFFFFFFFFFFFFFFFFFFFFF80
FFFFFFFFFFFFFFFFFFFFFFFF80
FFFFFFFFFFFFFFFFFFFFFFFF80
FFFFFFFFFFFFFFFFFFFFFFFF80
FFFFFFFFFFFFFFFFFFFFFFFF80
FFFFFFFFFFFFFFFFFFFFFFFF80
FFFFFFFFFFFFFFFFFFFFFFFF80
FFFFFFFFFFFFFFFFFFFFFFFF80
FFFFFFFFFFFFFFFFFFFFFFFF80
ENDCHAR
STARTCHAR greater
ENCODING 62
SWIDTH 690 0
DWIDTH 119 0
BBX 97 94 11 17
BITMAP
80000000000000000000000000
E0000000000000000000000000
F8000000000000000000000000
FF000000000000000000000000
FFC00000000000000000000000
FFF00000000000000000000000
FFFE0000000000000000000000
FFFF8000000000000000000000
FFFFF000000000000000000000
FFFFFC00000000000000000000
FFFFFF00000000000000000000
FFFFFFE0000000000000000000
FFFFFFF8000000000000000000
FFFFFFFF000000000000000000
FFFFFFFFC00000000000000000
FFFFFFFFF00000000000000000
7FFFFFFFFE0000000000000000
0FFFFFFFFF8000000000000000
03FFFFFFFFE000000000000000
007FFFFFFFFC00000000000000
001FFFFFFFFF00000000000000
0003FFFFFFFFE0000000000000
0000FFFFFFFFF8000000000000
00001FFFFFFFFE000000000000
000003FFFFFFFFC00000000000
000000FFFFFFFFF00000000000
0000001FFFFFFFFC0000000000
00000007FFFFFFFF8000000000
00000000FFFFFFFFE000000000
000000003FFFFFFFFC00000000
0000000007FFFFFFFF00000000
0000000001FFFFFFFFC0000000
00000000003FFFFFFFF8000000
000000000007FFFFFFFE000000
000000000001FFFFFFFFC00000
0000000000003FFFFFFFF00000
0000000000000FFFFFFFFC0000
00000000000001FFFFFFFF8000
000000000000007FFFFFFFE000
000000000000000FFFFFFFF800
0000000000000003FFFFFFFC00
00000000000000007FFFFFFE00
00000000000000000FFFFFFF00
000000000000000003FFFFFF80
0000000000000000007FFFFF80
0000000000000000001FFFFF80
00000000000000000003FFFF80
00000000000000000007FFFF80
0000000000000000001FFFFF80
000000000000000000FFFFFF80
000000000000000003FFFFFF80
00000000000000001FFFFFFF00
00000000000000007FFFFFFE00
0000000000000003FFFFFFFC00
000000000000001FFFFFFFF800
000000000000007FFFFFFFC000
00000000000003FFFFFFFF0000
0000000000000FFFFFFFFC0000
0000000000007FFFFFFFE00000
000000000001FFFFFFFF800000
00000000000FFFFFFFFE000000
00000000003FFFFFFFF0000000
0000000001FFFFFFFFC0000000
0000000007FFFFFFFE00000000
000000003FFFFFFFF800000000
00000000FFFFFFFFE000000000
00000007FFFFFFFF0000000000
0000001FFFFFFFFC0000000000
000000FFFFFFFFF00000000000
000003FFFFFFFF800000000000
00001FFFFFFFFE000000000000
00007FFFFFFFF8000000000000
0003FFFFFFFFC0000000000000
001FFFFFFFFF00000000000000
007FFFFFFFF800000000000000
03FFFFFFFFE000000000000000
0FFFFFFFFF8000000000000000
7FFFFFFFFC0000000000000000
FFFFFFFFF00000000000000000
FFFFFFFFC00000000000000000
FFFFFFFE000000000000000000
FFFFFFF8000000000000000000
FFFFFFC0000000000000000000
FFFFFF00000000000000000000
FFFFFC00000000000000000000
FFFFE000000000000000000000
FFFF8000000000000000000000
FFFE0000000000000000000000
FFF00000000000000000000000
FFC00000000000000000000000
FE000000000000000000000000
F8000000000000000000000000
E0000000000000000000000000
80000000000000000000000000
ENDCHAR
STARTCHAR question
ENCODING 63
SWIDTH 776 0
DWIDTH 134 0
BBX 121 126 8 0
BITMAP
FFFFFFFFFFFFFFFFFFFFFFC000000000
FFFFFFFFFFFFFFFFFFFFFFFF00000000
FFFFFFFFFFFFFFFFFFFFFFFFE0000000
FFFFFFFFFFFFFFFFFFFFFFFFF8000000
FFFFFFFFFFFFFFFFFFFFFFFFFE000000
FFFFFFFFFFFFFFFFFFFFFFFFFF800000
FFFFFFFFFFFFFFFFFFFFFFFFFFE00000
FFFFFFFFFFFFFFFFFFFFFFFFFFF00000
FFFFFFFFFFFFFFFFFFFFFFFFFFFC0000
FFFFFFFFFFFFFFFFFFFFFFFFFFFE0000
FFFFFFFFFFFFFFFFFFFFFFFFFFFF0000
FFFFFFFFFFFFFFFFFFFFFFFFFFFF8000
FFFFFFFFFFFFFFFFFFFFFFFFFFFFC000
FFFFFFFFFFFFFFFFFFFFFFFFFFFFC000
FFFFFFFFFFFFFFFFFFFFFFFFFFFFE000
FFFFFFFFFFFFFFFFFFFFFFFFFFFFF000
FFFFFFFFFFFFFFFFFFFFFFFFFFFFF000
FFFFFFFFFFFFFFFFFFFFFFFFFFFFF800
FFFFFFFFFFFFFFFFFFFFFFFFFFFFFC00
FFFFFFFFFFFFFFFFFFFFFFFFFFFFFC00
FFFFFFFFFFFFFFFFFFFFFFFFFFFFFC00
FFFFFFFFFFFFFFFFFFFFFFFFFFFFFE00
0000000000000000000001FFFFFFFE00
00000000000000000000001FFFFFFE00
000000000000000000000007FFFFFF00
000000000000000000000003FFFFFF00
000000000000000000000001FFFFFF00
000000000000000000000000FFFFFF00
000000000000000000000000FFFFFF80
0000000000000000000000007FFFFF80
0000000000000000000000003FFFFF80
0000000000000000000000003FFFFF80
0000000000000000000000003FFFFF80
0000000000000000000000003FFFFF80
0000000000000000000000003FFFFF80
0000000000000000000000001FFFFF80
0000000000000000000000001FFFFF80
0000000000000000000000001FFFFF80
0000000000000000000000003FFFFF80
0000000000000000000000003FFFFF80
0000000000000000000000003FFFFF80
0000000000000000000000003FFFFF80
0000000000000000000000003FFFFF00
0000000000000000000000007FFFFF00
0000000000000000000000007FFFFF00
000000000000000000000000FFFFFF00
000000000000000000000001FFFFFE00
000000000000000000000003FFFFFE00
000000000000000000000007FFFFFE00
00000000000000000000001FFFFFFC00
0000000000000000000000FFFFFFFC00
000000007FFFFFFFFFFFFFFFFFFFF800
0000000FFFFFFFFFFFFFFFFFFFFFF800
0000007FFFFFFFFFFFFFFFFFFFFFF000
000001FFFFFFFFFFFFFFFFFFFFFFF000
000007FFFFFFFFFFFFFFFFFFFFFFE000
00000FFFFFFFFFFFFFFFFFFFFFFFC000
00001FFFFFFFFFFFFFFFFFFFFFFF8000
00003FFFFFFFFFFFFFFFFFFFFFFF0000
00007FFFFFFFFFFFFFFFFFFFFFFE0000
0000FFFFFFFFFFFFFFFFFFFFFFFC0000
0001FFFFFFFFFFFFFFFFFFFFFFF80000
0001FFFFFFFFFFFFFFFFFFFFFFF00000
0003FFFFFFFFFFFFFFFFFFFFFFE00000
0003FFFFFFFFFFFFFFFFFFFFFF800000
0007FFFFFFFFFFFFFFFFFFFFFE000000
0007FFFFFFFFFFFFFFFFFFFFF8000000
0007FFFFFFFFFFFFFFFFFFFFE0000000
000FFFFFFFFFFFFFFFFFFFFE00000000
000FFFFFFFFFFFFFFFFFFFE000000000
000FFFFFF80000000000000000000000
000FFFFFE00000000000000000000000
000FFFFF800000000000000000000000
001FFFFF800000000000000000000000
001FFFFF000000000000000000000000
001FFFFF000000000000000000000000
001FFFFF000000000000000000000000
001FFFFF000000000000000000000000
001FFFFF000000000000000000000000
001FFFFF000000000000000000000000
001FFFFF000000000000000000000000
001FFFFF000000000000000000000000
001FFFFF000000000000000000000000
001FFFFF000000000000000000000000
00000000000000000000000000000000
00000000000000000000000000000000
00000000000000000000000000000000
00000000000000000000000000000000
00000000000000000000000000000000
00000000000000000000000000000000
00000000000000000000000000000000
00000000000000000000000000000000
00000000000000000000000000000000
00000000000000000000000000000000
00000000000000000000000000000000
00000000000000000000000000000000
00000000000000000000000000000000
00000000000000000000000000000000
00000000000000000000000000000000
00000000000000000000000000000000
00000000000000000000000000000000
00000000000000000000000000000000
00003FC0000000000000000000000000
0000FFF0000000000000000000000000
0001FFFC000000000000000000000000
0003FFFE000000000000000000000000
0007FFFF000000000000000000000000
000FFFFF000000000000000000000000
001FFFFF800000000000000000000000
001FFFFF800000000000000000000000
001FFFFF800000000000000000000000
001FFFFFC00000000000000000000000
003FFFFFC00000000000000000000000
003FFFFFC00000000000000000000000
003FFFFFC00000000000000000000000
003FFFFFC00000000000000000000000
001FFFFFC00000000000000000000000
001FFFFF800000000000000000000000
001FFFFF800000000000000000000000
001FFFFF800000000000000000000000
000FFFFF000000000000000000000000
0007FFFF000000000000000000000000
0003FFFE000000000000000000000000
0001FFFC000000000000000000000000
0000FFF0000000000000000000000000
00003FC0000000000000000000000000
ENDCHAR
STARTCHAR at
ENCODING 64
SWIDTH 833 0
DWIDTH 144 0
BBX 126 126 7 0
BITMAP
00000000000001FFFFFFFFFFFFFFFFFC
0000000000007FFFFFFFFFFFFFFFFFFC
000000000007FFFFFFFFFFFFFFFFFFFC
00000000003FFFFFFFFFFFFFFFFFFFFC
0000000001FFFFFFFFFFFFFFFFFFFFFC
0000000007FFFFFFFFFFFFFFFFFFFFFC
000000001FFFFFFFFFFFFFFFFFFFFFFC
000000007FFFFFFFFFFFFFFFFFFFFFFC
00000001FFFFFFFFFFFFFFFFFFFFFFFC
00000003FFFFFFFFFFFFFFFFFFFFFFFC
0000000FFFFFFFFFFFFFFFFFFFFFFFFC
0000003FFFFFFFFFFFFFFFFFFFFFFFFC
0000007FFFFFFFFFFFFFFFFFFFFFFFFC
000000FFFFFFFFFFFFFFFFFFFFFFFFFC
000001FFFFFFFFFFFFFFFFFFFFFFFFFC
000007FFFFFFFFFFFFFFFFFFFFFFFFFC
00000FFFFFFFFF00000000000003FFFC
00001FFFFFFFC000000000000003FFFC
00003FFFFFFE0000000000000003FFFC
00007FFFFFF00000000000000003FFFC
0000FFFFFFC00000000000000003FFFC
0000FFFFFF000000000000000003FFFC
0001FFFFFC000000000000000003FFFC
0003FFFFF0000000000000000003FFFC
0007FFFFE0000000000000000003FFFC
000FFFFF80000000000000000003FFFC
000FFFFF00000000000000000003FFFC
001FFFFE00000000000000000003FFFC
003FFFFC00000000000000000003FFFC
003FFFF800000000000000000003FFFC
007FFFF000000000000000000003FFFC
007FFFE000000000000000000003FFFC
00FFFFC000000000000000000003FFFC
00FFFF8000000000000000000003FFFC
01FFFF8000000000000000000003FFFC
01FFFF00000000FFFFFFFFFE0003FFFC
03FFFE0000000FFFFFFFFFFE0003FFFC
03FFFE0000003FFFFFFFFFFE0003FFFC
07FFFC000000FFFFFFFFFFFE0003FFFC
07FFFC000001FFFFFFFFFFFE0003FFFC
0FFFF8000007FFFFFFFFFFFE0003FFFC
0FFFF800000FFFFFFFFFFFFE0003FFFC
0FFFF000001FFFFFFFFFFFFE0003FFFC
1FFFF000001FFFFFFFFFFFFE0003FFFC
1FFFF000003FFFFFFFFFFFFE0003FFFC
1FFFE000007FFFFFFFFFFFFE0003FFFC
1FFFE00000FFFFFFFFFFFFFE0003FFFC
3FFFE00000FFFFF80000FFFE0003FFFC
3FFFC00001FFFFC00000FFFE0003FFFC
3FFFC00001FFFF000000FFFE0003FFFC
3FFFC00003FFFE000000FFFE0003FFFC
7FFFC00003FFFC000000FFFE0003FFFC
7FFFC00003FFF8000000FFFE0003FFFC
7FFF800007FFF8000000FFFE0003FFFC
7FFF800007FFF0000000FFFE0003FFFC
7FFF800007FFF0000000FFFE0003FFFC
7FFF800007FFF0000000FFFE0003FFFC
7FFF80000FFFE0000000FFFE0003FFFC
FFFF80000FFFE0000000FFFE0003FFFC
FFFF80000FFFE0000000FFFE0003FFFC
FFFF80000FFFE0000000FFFE0003FFFC
FFFF80000FFFE0000000FFFE0003FFFC
FFFF80000FFFE0000000FFFE0003FFFC
FFFF80000FFFE0000000FFFE0003FFFC
FFFF80000FFFE0000000FFFE0003FFFC
FFFF80000FFFE0000000FFFE0003FFFC
FFFF80000FFFE0000000FFFE0003FFFC
FFFF80000FFFE0000000FFFE0003FFFC
FFFF80000FFFF0000000FFFE0003FFFC
FFFF800007FFF0000000FFFE0003FFFC
FFFF800007FFF8000000FFFE0003FFFC
7FFF800007FFF8000000FFFE0003FFFC
7FFF800007FFFC000000FFFE0003FFFC
7FFFC00003FFFE000000FFFE0003FFFC
7FFFC00003FFFF000000FFFE0003FFFC
7FFFC00003FFFF800000FFFE0003FFFC
7FFFC00001FFFFC00000FFFE0003FFFC
7FFFC00001FFFFF80000FFFE0003FFFC
3FFFE00000FFFFFFFFFFFFFFFFFFFFFC
3FFFE00000FFFFFFFFFFFFFFFFFFFFFC
3FFFE000007FFFFFFFFFFFFFFFFFFFFC
3FFFF000007FFFFFFFFFFFFFFFFFFFFC
1FFFF000003FFFFFFFFFFFFFFFFFFFFC
1FFFF800001FFFFFFFFFFFFFFFFFFFFC
1FFFF800000FFFFFFFFFFFFFFFFFFFFC
1FFFF8000007FFFFFFFFFFFFFFFFFFFC
0FFFFC000003FFFFFFFFFFFFFFFFFFFC
0FFFFC000001FFFFFFFFFFFFFFFFFFFC
07FFFE000000FFFFFFFFFFFFFFFFFFFC
07FFFF0000003FFFFFFFFFFFFFFFFFFC
07FFFF0000000FFFFFFFFFFFFFFFFFFC
03FFFF80000000FFFFFFFFFFFFFFFFFC
03FFFFC0000000000000000000000000
01FFFFC0000000000000000000000000
01FFFFE0000000000000000000000000
00FFFFF0000000000000000000000000
00FFFFF8000000000000000000000000
007FFFFC000000000000000000000000
003FFFFE000000000000000000000000
003FFFFF000000000000000000000000
001FFFFF800000000000000000000000
000FFFFFE00000000000000000000000
000FFFFFF00000000000000000000000
0007FFFFFC0000000000000000000000
0003FFFFFF0000000000000000000000
0001FFFFFFC000000000000000000000
0000FFFFFFF000000000000000000000
00007FFFFFFE00000000000000000000
00003FFFFFFFC0000000000000000000
00001FFFFFFFFF000000000000000000
00000FFFFFFFFFFFFFFFFFFFFFFFFFFC
000007FFFFFFFFFFFFFFFFFFFFFFFFFC
000003FFFFFFFFFFFFFFFFFFFFFFFFFC
000001FFFFFFFFFFFFFFFFFFFFFFFFFC
0000007FFFFFFFFFFFFFFFFFFFFFFFFC
0000003FFFFFFFFFFFFFFFFFFFFFFFFC
0000000FFFFFFFFFFFFFFFFFFFFFFFFC
00000007FFFFFFFFFFFFFFFFFFFFFFFC
00000001FFFFFFFFFFFFFFFFFFFFFFFC
000000007FFFFFFFFFFFFFFFFFFFFFFC
000000001FFFFFFFFFFFFFFFFFFFFFFC
0000000003FFFFFFFFFFFFFFFFFFFFFC
00000000007FFFFFFFFFFFFFFFFFFFFC
00000000000FFFFFFFFFFFFFFFFFFFFC
000000000000FFFFFFFFFFFFFFFFFFFC
00000000000001FFFFFFFFFFFFFFFFFC
ENDCHAR
STARTCHAR A
ENCODING 65
SWIDTH 989 0
DWIDTH 171 0
BBX 167 128 2 0
BITMAP
000000000000000000001000000000000000000000
00000000000000000001FF00000000000000000000
00000000000000000007FFC0000000000000000000
0000000000000000000FFFE0000000000000000000
0000000000000000001FFFF0000000000000000000
0000000000000000003FFFF8000000000000000000
0000000000000000007FFFF8000000000000000000
0000000000000000007FFFFC000000000000000000
000000000000000000FFFFFE000000000000000000
000000000000000000FFFFFE000000000000000000
000000000000000001FFFFFF000000000000000000
000000000000000003FFFFFF000000000000000000
000000000000000003FFFFFF800000000000000000
000000000000000007FFFFFFC00000000000000000
000000000000000007FFFFFFC00000000000000000
00000000000000000FFFFFFFE00000000000000000
00000000000000001FFFFFFFE00000000000000000
00000000000000001FFFFFFFF00000000000000000
00000000000000003FFFFFFFF80000000000000000
00000000000000003FFFFFFFF80000000000000000
00000000000000007FFFFFFFFC0000000000000000
0000000000000000FFFFFFFFFC0000000000000000
0000000000000000FFFFFFFFFE0000000000000000
0000000000000001FFFFFFFFFF0000000000000000
0000000000000001FFFFFFFFFF0000000000000000
0000000000000003FFFFFFFFFF8000000000000000
0000000000000007FFFFFFFFFF8000000000000000
0000000000000007FFFFFFFFFFC000000000000000
000000000000000FFFFFFFFFFFE000000000000000
000000000000000FFFFFFFFFFFE000000000000000
000000000000001FFFFFFFFFFFF000000000000000
000000000000003FFFFFFFFFFFF000000000000000
000000000000003FFFFFDFFFFFF800000000000000
000000000000007FFFFF8FFFFFFC00000000000000
000000000000007FFFFF8FFFFFFC00000000000000
00000000000000FFFFFF07FFFFFE00000000000000
00000000000001FFFFFF03FFFFFE00000000000000
00000000000001FFFFFE03FFFFFF00000000000000
00000000000003FFFFFE01FFFFFF80000000000000
00000000000003FFFFFC01FFFFFF80000000000000
00000000000007FFFFF800FFFFFFC0000000000000
0000000000000FFFFFF8007FFFFFC0000000000000
0000000000000FFFFFF0007FFFFFE0000000000000
0000000000001FFFFFF0003FFFFFF0000000000000
0000000000001FFFFFE0003FFFFFF0000000000000
0000000000003FFFFFC0001FFFFFF8000000000000
0000000000007FFFFFC0000FFFFFF8000000000000
0000000000007FFFFF80000FFFFFFC000000000000
000000000000FFFFFF800007FFFFFE000000000000
000000000000FFFFFF000007FFFFFE000000000000
000000000001FFFFFE000003FFFFFF000000000000
000000000003FFFFFE000001FFFFFF000000000000
000000000003FFFFFC000001FFFFFF800000000000
000000000007FFFFFC000000FFFFFFC00000000000
000000000007FFFFF8000000FFFFFFC00000000000
00000000000FFFFFF00000007FFFFFE00000000000
00000000001FFFFFF00000003FFFFFE00000000000
00000000001FFFFFE00000003FFFFFF00000000000
00000000003FFFFFE00000001FFFFFF80000000000
00000000003FFFFFC00000001FFFFFF80000000000
00000000007FFFFF800000000FFFFFFC0000000000
0000000000FFFFFF8000000007FFFFFC0000000000
0000000000FFFFFF0000000007FFFFFE0000000000
0000000001FFFFFF0000000003FFFFFF0000000000
0000000001FFFFFE0000000003FFFFFF0000000000
0000000003FFFFFE0000000001FFFFFF8000000000
0000000007FFFFFC0000000000FFFFFF8000000000
0000000007FFFFF80000000000FFFFFFC000000000
000000000FFFFFF800000000007FFFFFE000000000
000000000FFFFFF000000000007FFFFFE000000000
000000001FFFFFF000000000003FFFFFF000000000
000000003FFFFFE000000000001FFFFFF800000000
000000003FFFFFC000000000001FFFFFF800000000
000000007FFFFFC000000000000FFFFFFC00000000
000000007FFFFF8000000000000FFFFFFC00000000
00000000FFFFFF80000000000007FFFFFE00000000
00000001FFFFFF00000000000003FFFFFE00000000
00000001FFFFFE00000000000003FFFFFF00000000
00000003FFFFFE0000FFFFFFFFFFFFFFFF80000000
00000003FFFFFC0001FFFFFFFFFFFFFFFF80000000
00000007FFFFFC0001FFFFFFFFFFFFFFFFC0000000
0000000FFFFFF80003FFFFFFFFFFFFFFFFE0000000
0000000FFFFFF00007FFFFFFFFFFFFFFFFE0000000
0000001FFFFFF00007FFFFFFFFFFFFFFFFF0000000
0000001FFFFFE0000FFFFFFFFFFFFFFFFFF0000000
0000003FFFFFE0000FFFFFFFFFFFFFFFFFF8000000
0000007FFFFFC0001FFFFFFFFFFFFFFFFFFC000000
0000007FFFFFC0001FFFFFFFFFFFFFFFFFFC000000
000000FFFFFF80003FFFFFFFFFFFFFFFFFFE000000
000000FFFFFF00007FFFFFFFFFFFFFFFFFFE000000
000001FFFFFF00007FFFFFFFFFFFFFFFFFFF000000
000003FFFFFE0000FFFFFFFFFFFFFFFFFFFF800000
000003FFFFFE0000FFFFFFFFFFFFFFFFFFFF800000
000007FFFFFC0001FFFFFFFFFFFFFFFFFFFFC00000
000007FFFFF80003FFFFFFFFFFFFFFFFFFFFC00000
00000FFFFFF80003FFFFFFFFFFFFFFFFFFFFE00000
00001FFFFFF00000000000000000007FFFFFF00000
00001FFFFFF00000000000000000003FFFFFF00000
00003FFFFFE00000000000000000001FFFFFF80000
00003FFFFFC00000000000000000001FFFFFF80000
00007FFFFFC00000000000000000000FFFFFFC0000
0000FFFFFF800000000000000000000FFFFFFE0000
0000FFFFFF8000000000000000000007FFFFFE0000
0001FFFFFF0000000000000000000003FFFFFF0000
0001FFFFFE0000000000000000000003FFFFFF0000
0003FFFFFE0000000000000000000001FFFFFF8000
0007FFFFFC0000000000000000000001FFFFFFC000
0007FFFFFC0000000000000000000000FFFFFFC000
000FFFFFF800000000000000000000007FFFFFE000
000FFFFFF000000000000000000000007FFFFFE000
001FFFFFF000000000000000000000003FFFFFF000
003FFFFFE000000000000000000000003FFFFFF800
003FFFFFE000000000000000000000001FFFFFF800
007FFFFFC000000000000000000000001FFFFFFC00
007FFFFFC000000000000000000000000FFFFFFC00
00FFFFFF80000000000000000000000007FFFFFE00
01FFFFFF00000000000000000000000007FFFFFF00
01FFFFFF00000000000000000000000003FFFFFF00
03FFFFFE00000000000000000000000003FFFFFF80
03FFFFFE00000000000000000000000001FFFFFF80
07FFFFFC00000000000000000000000000FFFFFFC0
0FFFFFF800000000000000000000000000FFFFFFE0
0FFFFFF8000000000000000000000000007FFFFFE0
1FFFFFF0000000000000000000000000007FFFFFF0
1FFFFFF0000000000000000000000000003FFFFFF0
3FFFFFE0000000000000000000000000001FFFFFF8
7FFFFFC0000000000000000000000000001FFFFFFC
FFFFFFC0000000000000000000000000000FFFFFFE
ENDCHAR
STARTCHAR B
ENCODING 66
SWIDTH 891 0
DWIDTH 154 0
BBX 135 126 11 0
BITMAP
FFFFFFFFFFFFFFFFFFFFFFFFF800000000
FFFFFFFFFFFFFFFFFFFFFFFFFFC0000000
FFFFFFFFFFFFFFFFFFFFFFFFFFFC000000
FFFFFFFFFFFFFFFFFFFFFFFFFFFF800000
FFFFFFFFFFFFFFFFFFFFFFFFFFFFE00000
FFFFFFFFFFFFFFFFFFFFFFFFFFFFF80000
FFFFFFFFFFFFFFFFFFFFFFFFFFFFFE0000
FFFFFFFFFFFFFFFFFFFFFFFFFFFFFF0000
FFFFFFFFFFFFFFFFFFFFFFFFFFFFFFC000
FFFFFFFFFFFFFFFFFFFFFFFFFFFFFFE000
FFFFFFFFFFFFFFFFFFFFFFFFFFFFFFF000
FFFFFFFFFFFFFFFFFFFFFFFFFFFFFFF800
FFFFFFFFFFFFFFFFFFFFFFFFFFFFFFFC00
FFFFFFFFFFFFFFFFFFFFFFFFFFFFFFFE00
FFFFFFFFFFFFFFFFFFFFFFFFFFFFFFFE00
FFFFFFFFFFFFFFFFFFFFFFFFFFFFFFFF00
FFFFFFFFFFFFFFFFFFFFFFFFFFFFFFFF80
FFFFFFFFFFFFFFFFFFFFFFFFFFFFFFFF80
FFFFFFFFFFFFFFFFFFFFFFFFFFFFFFFFC0
FFFFFFFFFFFFFFFFFFFFFFFFFFFFFFFFC0
FFFFFFFFFFFFFFFFFFFFFFFFFFFFFFFFE0
FFFFFFFFFFFFFFFFFFFFFFFFFFFFFFFFE0
FFFFFC000000000000000003FFFFFFFFE0
FFFFFC0000000000000000000FFFFFFFF0
FFFFFC00000000000000000001FFFFFFF0
FFFFFC000000000000000000007FFFFFF0
FFFFFC000000000000000000003FFFFFF0
FFFFFC000000000000000000001FFFFFF0
FFFFFC000000000000000000000FFFFFF0
FFFFFC0000000000000000000007FFFFF0
FFFFFC0000000000000000000007FFFFF8
FFFFFC0000000000000000000007FFFFF8
FFFFFC0000000000000000000003FFFFF8
FFFFFC0000000000000000000003FFFFF8
FFFFFC0000000000000000000003FFFFF8
FFFFFC0000000000000000000003FFFFF0
FFFFFC0000000000000000000003FFFFF0
FFFFFC0000000000000000000003FFFFF0
FFFFFC0000000000000000000003FFFFF0
FFFFFC0000000000000000000003FFFFF0
FFFFFC0000000000000000000003FFFFF0
FFFFFC0000000000000000000003FFFFF0
FFFFFC0000000000000000000003FFFFE0
FFFFFC0000000000000000000007FFFFE0
FFFFFC0000000000000000000007FFFFE0
FFFFFC000000000000000000000FFFFFC0
FFFFFC000000000000000000000FFFFFC0
FFFFFC000000000000000000001FFFFF80
FFFFFC000000000000000000003FFFFF80
FFFFFC00000000000000000000FFFFFF00
FFFFFC00000000000000000003FFFFFE00
FFFFFC0000000000000000003FFFFFFE00
FFFFFC0003FFFFFFFFFFFFFFFFFFFFFC00
FFFFFC0003FFFFFFFFFFFFFFFFFFFFF800
FFFFFC0003FFFFFFFFFFFFFFFFFFFFF000
FFFFFC0003FFFFFFFFFFFFFFFFFFFFC000
FFFFFC0003FFFFFFFFFFFFFFFFFFFF8000
FFFFFC0003FFFFFFFFFFFFFFFFFFFE0000
FFFFFC0003FFFFFFFFFFFFFFFFFFF80000
FFFFFC0003FFFFFFFFFFFFFFFFFFF00000
FFFFFC0003FFFFFFFFFFFFFFFFFFFE0000
FFFFFC0003FFFFFFFFFFFFFFFFFFFF8000
FFFFFC0003FFFFFFFFFFFFFFFFFFFFC000
FFFFFC0003FFFFFFFFFFFFFFFFFFFFF000
FFFFFC0003FFFFFFFFFFFFFFFFFFFFF800
FFFFFC0003FFFFFFFFFFFFFFFFFFFFFC00
FFFFFC0003FFFFFFFFFFFFFFFFFFFFFE00
FFFFFC0003FFFFFFFFFFFFFFFFFFFFFF00
FFFFFC0003FFFFFFFFFFFFFFFFFFFFFF80
FFFFFC0003FFFFFFFFFFFFFFFFFFFFFFC0
FFFFFC0003FFFFFFFFFFFFFFFFFFFFFFC0
FFFFFC0000000000000000001FFFFFFFE0
FFFFFC00000000000000000001FFFFFFE0
FFFFFC000000000000000000007FFFFFF0
FFFFFC000000000000000000001FFFFFF0
FFFFFC000000000000000000000FFFFFF8
FFFFFC0000000000000000000007FFFFF8
FFFFFC0000000000000000000003FFFFF8
FFFFFC0000000000000000000003FFFFFC
FFFFFC0000000000000000000001FFFFFC
FFFFFC0000000000000000000001FFFFFC
FFFFFC0000000000000000000000FFFFFC
FFFFFC0000000000000000000000FFFFFE
FFFFFC0000000000000000000000FFFFFE
FFFFFC0000000000000000000000FFFFFE
FFFFFC0000000000000000000000FFFFFE
FFFFFC0000000000000000000000FFFFFE
FFFFFC0000000000000000000000FFFFFE
FFFFFC0000000000000000000000FFFFFE
FFFFFC0000000000000000000000FFFFFE
FFFFFC0000000000000000000000FFFFFE
FFFFFC0000000000000000000000FFFFFE
FFFFFC0000000000000000000000FFFFFE
FFFFFC0000000000000000000001FFFFFC
FFFFFC0000000000000000000001FFFFFC
FFFFFC0000000000000000000003FFFFFC
FFFFFC0000000000000000000003FFFFFC
FFFFFC0000000000000000000007FFFFFC
FFFFFC000000000000000000000FFFFFFC
FFFFFC000000000000000000003FFFFFF8
FFFFFC00000000000000000000FFFFFFF8
FFFFFC00000000000000000003FFFFFFF8
FFFFFC0000000000000000001FFFFFFFF0
FFFFFC000000000000000003FFFFFFFFF0
FFFFFFFFFFFFFFFFFFFFFFFFFFFFFFFFF0
FFFFFFFFFFFFFFFFFFFFFFFFFFFFFFFFE0
FFFFFFFFFFFFFFFFFFFFFFFFFFFFFFFFE0
FFFFFFFFFFFFFFFFFFFFFFFFFFFFFFFFC0
FFFFFFFFFFFFFFFFFFFFFFFFFFFFFFFF80
FFFFFFFFFFFFFFFFFFFFFFFFFFFFFFFF80
FFFFFFFFFFFFFFFFFFFFFFFFFFFFFFFF00
FFFFFFFFFFFFFFFFFFFFFFFFFFFFFFFE00
FFFFFFFFFFFFFFFFFFFFFFFFFFFFFFFE00
FFFFFFFFFFFFFFFFFFFFFFFFFFFFFFFC00
FFFFFFFFFFFFFFFFFFFFFFFFFFFFFFF800
FFFFFFFFFFFFFFFFFFFFFFFFFFFFFFF000
FFFFFFFFFFFFFFFFFFFFFFFFFFFFFFE000
FFFFFFFFFFFFFFFFFFFFFFFFFFFFFFC000
FFFFFFFFFFFFFFFFFFFFFFFFFFFFFF0000
FFFFFFFFFFFFFFFFFFFFFFFFFFFFFE0000
FFFFFFFFFFFFFFFFFFFFFFFFFFFFF80000
FFFFFFFFFFFFFFFFFFFFFFFFFFFFE00000
FFFFFFFFFFFFFFFFFFFFFFFFFFFF800000
FFFFFFFFFFFFFFFFFFFFFFFFFFFC000000
FFFFFFFFFFFFFFFFFFFFFFFFFFE0000000
FFFFFFFFFFFFFFFFFFFFFFFFFC00000000
ENDCHAR
STARTCHAR C
ENCODING 67
SWIDTH 829 0
DWIDTH 143 0
BBX 130 126 7 0
BITMAP
00000000000007FFFFFFFFFFFFFFFFFFC0
000000000001FFFFFFFFFFFFFFFFFFFFC0
00000000001FFFFFFFFFFFFFFFFFFFFFC0
0000000000FFFFFFFFFFFFFFFFFFFFFFC0
0000000007FFFFFFFFFFFFFFFFFFFFFFC0
000000003FFFFFFFFFFFFFFFFFFFFFFFC0
00000000FFFFFFFFFFFFFFFFFFFFFFFFC0
00000003FFFFFFFFFFFFFFFFFFFFFFFFC0
00000007FFFFFFFFFFFFFFFFFFFFFFFFC0
0000001FFFFFFFFFFFFFFFFFFFFFFFFFC0
0000007FFFFFFFFFFFFFFFFFFFFFFFFFC0
000000FFFFFFFFFFFFFFFFFFFFFFFFFFC0
000001FFFFFFFFFFFFFFFFFFFFFFFFFFC0
000007FFFFFFFFFFFFFFFFFFFFFFFFFFC0
00000FFFFFFFFFFFFFFFFFFFFFFFFFFFC0
00001FFFFFFFFFFFFFFFFFFFFFFFFFFFC0
00003FFFFFFFFFFFFFFFFFFFFFFFFFFFC0
00007FFFFFFFFFFFFFFFFFFFFFFFFFFFC0
0000FFFFFFFFFFFFFFFFFFFFFFFFFFFFC0
0001FFFFFFFFFFFFFFFFFFFFFFFFFFFFC0
0003FFFFFFFFFFFFFFFFFFFFFFFFFFFFC0
0007FFFFFFFFFFFFFFFFFFFFFFFFFFFFC0
0007FFFFFFFFFE00000000000000000000
000FFFFFFFFFC000000000000000000000
001FFFFFFFFE0000000000000000000000
001FFFFFFFF80000000000000000000000
003FFFFFFFE00000000000000000000000
007FFFFFFF800000000000000000000000
007FFFFFFE000000000000000000000000
00FFFFFFFC000000000000000000000000
00FFFFFFF0000000000000000000000000
01FFFFFFE0000000000000000000000000
01FFFFFFC0000000000000000000000000
03FFFFFF80000000000000000000000000
03FFFFFF00000000000000000000000000
07FFFFFE00000000000000000000000000
07FFFFFE00000000000000000000000000
0FFFFFFC00000000000000000000000000
0FFFFFF800000000000000000000000000
0FFFFFF800000000000000000000000000
1FFFFFF000000000000000000000000000
1FFFFFE000000000000000000000000000
1FFFFFE000000000000000000000000000
3FFFFFC000000000000000000000000000
3FFFFFC000000000000000000000000000
3FFFFFC000000000000000000000000000
3FFFFF8000000000000000000000000000
3FFFFF8000000000000000000000000000
7FFFFF0000000000000000000000000000
7FFFFF0000000000000000000000000000
7FFFFF0000000000000000000000000000
7FFFFF0000000000000000000000000000
7FFFFE0000000000000000000000000000
7FFFFE0000000000000000000000000000
7FFFFE0000000000000000000000000000
FFFFFE0000000000000000000000000000
FFFFFE0000000000000000000000000000
FFFFFC0000000000000000000000000000
FFFFFC0000000000000000000000000000
FFFFFC0000000000000000000000000000
FFFFFC0000000000000000000000000000
FFFFFC0000000000000000000000000000
FFFFFC0000000000000000000000000000
FFFFFC0000000000000000000000000000
FFFFFC0000000000000000000000000000
FFFFFC0000000000000000000000000000
FFFFFC0000000000000000000000000000
FFFFFC0000000000000000000000000000
7FFFFE0000000000000000000000000000
7FFFFE0000000000000000000000000000
7FFFFE0000000000000000000000000000
7FFFFE0000000000000000000000000000
7FFFFE0000000000000000000000000000
7FFFFE0000000000000000000000000000
7FFFFF0000000000000000000000000000
3FFFFF0000000000000000000000000000
3FFFFF0000000000000000000000000000
3FFFFF8000000000000000000000000000
3FFFFF8000000000000000000000000000
3FFFFF8000000000000000000000000000
1FFFFFC000000000000000000000000000
1FFFFFC000000000000000000000000000
1FFFFFE000000000000000000000000000
0FFFFFE000000000000000000000000000
0FFFFFF000000000000000000000000000
0FFFFFF000000000000000000000000000
07FFFFF800000000000000000000000000
07FFFFF800000000000000000000000000
07FFFFFC00000000000000000000000000
03FFFFFE00000000000000000000000000
03FFFFFF00000000000000000000000000
01FFFFFF80000000000000000000000000
01FFFFFF80000000000000000000000000
00FFFFFFC0000000000000000000000000
00FFFFFFF0000000000000000000000000
007FFFFFF8000000000000000000000000
007FFFFFFC000000000000000000000000
003FFFFFFE000000000000000000000000
001FFFFFFF800000000000000000000000
001FFFFFFFE00000000000000000000000
000FFFFFFFF80000000000000000000000
0007FFFFFFFE0000000000000000000000
0007FFFFFFFFC000000000000000000000
0003FFFFFFFFFE00000000000000000000
0001FFFFFFFFFFFFFFFFFFFFFFFFFFFFC0
0000FFFFFFFFFFFFFFFFFFFFFFFFFFFFC0
00007FFFFFFFFFFFFFFFFFFFFFFFFFFFC0
00003FFFFFFFFFFFFFFFFFFFFFFFFFFFC0
00001FFFFFFFFFFFFFFFFFFFFFFFFFFFC0
00000FFFFFFFFFFFFFFFFFFFFFFFFFFFC0
000007FFFFFFFFFFFFFFFFFFFFFFFFFFC0
000003FFFFFFFFFFFFFFFFFFFFFFFFFFC0
000001FFFFFFFFFFFFFFFFFFFFFFFFFFC0
000000FFFFFFFFFFFFFFFFFFFFFFFFFFC0
0000003FFFFFFFFFFFFFFFFFFFFFFFFFC0
0000001FFFFFFFFFFFFFFFFFFFFFFFFFC0
0000000FFFFFFFFFFFFFFFFFFFFFFFFFC0
00000003FFFFFFFFFFFFFFFFFFFFFFFFC0
00000000FFFFFFFFFFFFFFFFFFFFFFFFC0
000000003FFFFFFFFFFFFFFFFFFFFFFFC0
000000000FFFFFFFFFFFFFFFFFFFFFFFC0
0000000003FFFFFFFFFFFFFFFFFFFFFFC0
00000000007FFFFFFFFFFFFFFFFFFFFFC0
00000000000FFFFFFFFFFFFFFFFFFFFFC0
000000000001FFFFFFFFFFFFFFFFFFFFC0
00000000000007FFFFFFFFFFFFFFFFFFC0
ENDCHAR
STARTCHAR D
ENCODING 68
SWIDTH 879 0
DWIDTH 152 0
BBX 134 126 11 0
BITMAP
FFFFFFFFFFFFFFFFFFFF80000000000000
FFFFFFFFFFFFFFFFFFFFFE000000000000
FFFFFFFFFFFFFFFFFFFFFFE00000000000
FFFFFFFFFFFFFFFFFFFFFFFE0000000000
FFFFFFFFFFFFFFFFFFFFFFFF8000000000
FFFFFFFFFFFFFFFFFFFFFFFFF000000000
FFFFFFFFFFFFFFFFFFFFFFFFFC00000000
FFFFFFFFFFFFFFFFFFFFFFFFFF00000000
FFFFFFFFFFFFFFFFFFFFFFFFFF80000000
FFFFFFFFFFFFFFFFFFFFFFFFFFE0000000
FFFFFFFFFFFFFFFFFFFFFFFFFFF8000000
FFFFFFFFFFFFFFFFFFFFFFFFFFFC000000
FFFFFFFFFFFFFFFFFFFFFFFFFFFE000000
FFFFFFFFFFFFFFFFFFFFFFFFFFFF800000
FFFFFFFFFFFFFFFFFFFFFFFFFFFFC00000
FFFFFFFFFFFFFFFFFFFFFFFFFFFFE00000
FFFFFFFFFFFFFFFFFFFFFFFFFFFFF00000
FFFFFFFFFFFFFFFFFFFFFFFFFFFFF80000
FFFFFFFFFFFFFFFFFFFFFFFFFFFFFC0000
FFFFFFFFFFFFFFFFFFFFFFFFFFFFFE0000
FFFFFFFFFFFFFFFFFFFFFFFFFFFFFF0000
FFFFFFFFFFFFFFFFFFFFFFFFFFFFFF8000
FFFFFC00000000000001FFFFFFFFFF8000
FFFFFC000000000000000FFFFFFFFFC000
FFFFFC0000000000000001FFFFFFFFE000
FFFFFC00000000000000007FFFFFFFF000
FFFFFC00000000000000001FFFFFFFF000
FFFFFC000000000000000007FFFFFFF800
FFFFFC000000000000000001FFFFFFF800
FFFFFC000000000000000000FFFFFFFC00
FFFFFC0000000000000000003FFFFFFE00
FFFFFC0000000000000000001FFFFFFE00
FFFFFC0000000000000000000FFFFFFF00
FFFFFC00000000000000000007FFFFFF00
FFFFFC00000000000000000003FFFFFF00
FFFFFC00000000000000000001FFFFFF80
FFFFFC00000000000000000001FFFFFF80
FFFFFC00000000000000000000FFFFFFC0
FFFFFC000000000000000000007FFFFFC0
FFFFFC000000000000000000003FFFFFC0
FFFFFC000000000000000000003FFFFFE0
FFFFFC000000000000000000001FFFFFE0
FFFFFC000000000000000000001FFFFFE0
FFFFFC000000000000000000000FFFFFF0
FFFFFC000000000000000000000FFFFFF0
FFFFFC0000000000000000000007FFFFF0
FFFFFC0000000000000000000007FFFFF0
FFFFFC0000000000000000000007FFFFF8
FFFFFC0000000000000000000003FFFFF8
FFFFFC0000000000000000000003FFFFF8
FFFFFC0000000000000000000003FFFFF8
FFFFFC0000000000000000000001FFFFF8
FFFFFC0000000000000000000001FFFFF8
FFFFFC0000000000000000000001FFFFFC
FFFFFC0000000000000000000001FFFFFC
FFFFFC0000000000000000000001FFFFFC
FFFFFC0000000000000000000000FFFFFC
FFFFFC0000000000000000000000FFFFFC
FFFFFC0000000000000000000000FFFFFC
FFFFFC0000000000000000000000FFFFFC
FFFFFC0000000000000000000000FFFFFC
FFFFFC0000000000000000000000FFFFFC
FFFFFC0000000000000000000000FFFFFC
FFFFFC0000000000000000000000FFFFFC
FFFFFC0000000000000000000000FFFFFC
FFFFFC0000000000000000000000FFFFFC
FFFFFC0000000000000000000000FFFFFC
FFFFFC0000000000000000000000FFFFFC
FFFFFC0000000000000000000000FFFFFC
FFFFFC0000000000000000000000FFFFFC
FFFFFC0000000000000000000001FFFFF8
FFFFFC0000000000000000000001FFFFF8
FFFFFC0000000000000000000001FFFFF8
FFFFFC0000000000000000000001FFFFF8
FFFFFC0000000000000000000001FFFFF8
FFFFFC0000000000000000000003FFFFF8
FFFFFC0000000000000000000003FFFFF8
FFFFFC0000000000000000000003FFFFF0
FFFFFC0000000000000000000007FFFFF0
FFFFFC0000000000000000000007FFFFF0
FFFFFC0000000000000000000007FFFFF0
FFFFFC000000000000000000000FFFFFE0
FFFFFC000000000000000000000FFFFFE0
FFFFFC000000000000000000001FFFFFE0
FFFFFC000000000000000000001FFFFFC0
FFFFFC000000000000000000003FFFFFC0
FFFFFC000000000000000000007FFFFFC0
FFFFFC000000000000000000007FFFFF80
FFFFFC00000000000000000000FFFFFF80
FFFFFC00000000000000000001FFFFFF00
FFFFFC00000000000000000003FFFFFF00
FFFFFC00000000000000000003FFFFFF00
FFFFFC00000000000000000007FFFFFE00
FFFFFC0000000000000000000FFFFFFE00
FFFFFC0000000000000000001FFFFFFC00
FFFFFC0000000000000000007FFFFFF800
FFFFFC000000000000000000FFFFFFF800
FFFFFC000000000000000001FFFFFFF000
FFFFFC000000000000000007FFFFFFF000
FFFFFC00000000000000001FFFFFFFE000
FFFFFC00000000000000007FFFFFFFC000
FFFFFC0000000000000001FFFFFFFFC000
FFFFFC000000000000000FFFFFFFFF8000
FFFFFC00000000000001FFFFFFFFFF0000
FFFFFFFFFFFFFFFFFFFFFFFFFFFFFE0000
FFFFFFFFFFFFFFFFFFFFFFFFFFFFFE0000
FFFFFFFFFFFFFFFFFFFFFFFFFFFFFC0000
FFFFFFFFFFFFFFFFFFFFFFFFFFFFF80000
FFFFFFFFFFFFFFFFFFFFFFFFFFFFF00000
FFFFFFFFFFFFFFFFFFFFFFFFFFFFE00000
FFFFFFFFFFFFFFFFFFFFFFFFFFFFC00000
FFFFFFFFFFFFFFFFFFFFFFFFFFFF800000
FFFFFFFFFFFFFFFFFFFFFFFFFFFE000000
FFFFFFFFFFFFFFFFFFFFFFFFFFFC000000
FFFFFFFFFFFFFFFFFFFFFFFFFFF8000000
FFFFFFFFFFFFFFFFFFFFFFFFFFE0000000
FFFFFFFFFFFFFFFFFFFFFFFFFFC0000000
FFFFFFFFFFFFFFFFFFFFFFFFFF00000000
FFFFFFFFFFFFFFFFFFFFFFFFFE00000000
FFFFFFFFFFFFFFFFFFFFFFFFF800000000
FFFFFFFFFFFFFFFFFFFFFFFFE000000000
FFFFFFFFFFFFFFFFFFFFFFFF0000000000
FFFFFFFFFFFFFFFFFFFFFFFC0000000000
FFFFFFFFFFFFFFFFFFFFFFE00000000000
FFFFFFFFFFFFFFFFFFFFFE000000000000
FFFFFFFFFFFFFFFFFFFF80000000000000
ENDCHAR
STARTCHAR E
ENCODING 69
SWIDTH 759 0
DWIDTH 131 0
BBX 112 126 11 0
BITMAP
FFFFFFFFFFFFFFFFFFFFFFFFFFFF
FFFFFFFFFFFFFFFFFFFFFFFFFFFF
FFFFFFFFFFFFFFFFFFFFFFFFFFFF
FFFFFFFFFFFFFFFFFFFFFFFFFFFF
FFFFFFFFFFFFFFFFFFFFFFFFFFFF
FFFFFFFFFFFFFFFFFFFFFFFFFFFF
FFFFFFFFFFFFFFFFFFFFFFFFFFFF
FFFFFFFFFFFFFFFFFFFFFFFFFFFF
FFFFFFFFFFFFFFFFFFFFFFFFFFFF
FFFFFFFFFFFFFFFFFFFFFFFFFFFF
FFFFFFFFFFFFFFFFFFFFFFFFFFFF
FFFFFFFFFFFFFFFFFFFFFFFFFFFF
FFFFFFFFFFFFFFFFFFFFFFFFFFFF
FFFFFFFFFFFFFFFFFFFFFFFFFFFF
FFFFFFFFFFFFFFFFFFFFFFFFFFFF
FFFFFFFFFFFFFFFFFFFFFFFFFFFF
FFFFFFFFFFFFFFFFFFFFFFFFFFFF
FFFFFFFFFFFFFFFFFFFFFFFFFFFF
FFFFFFFFFFFFFFFFFFFFFFFFFFFF
FFFFFFFFFFFFFFFFFFFFFFFFFFFF
FFFFFFFFFFFFFFFFFFFFFFFFFFFF
FFFFFFFFFFFFFFFFFFFFFFFFFFFF
FFFFFC0000000000000000000000
FFFFFC0000000000000000000000
FFFFFC0000000000000000000000
FFFFFC0000000000000000000000
FFFFFC0000000000000000000000
FFFFFC0000000000000000000000
FFFFFC0000000000000000000000
FFFFFC0000000000000000000000
FFFFFC0000000000000000000000
FFFFFC0000000000000000000000
FFFFFC0000000000000000000000
FFFFFC0000000000000000000000
FFFFFC0000000000000000000000
FFFFFC0000000000000000000000
FFFFFC0000000000000000000000
FFFFFC0000000000000000000000
FFFFFC0000000000000000000000
FFFFFC0000000000000000000000
FFFFFC0000000000000000000000
FFFFFC0000000000000000000000
FFFFFC0000000000000000000000
FFFFFC0000000000000000000000
FFFFFC0000000000000000000000
FFFFFC0000000000000000000000
FFFFFC0000000000000000000000
FFFFFC0000000000000000000000
FFFFFC0000000000000000000000
FFFFFC0000000000000000000000
FFFFFC0000000000000000000000
FFFFFC0000000000000000000000
FFFFFC0003FFFFFFFFFFFFFFFFF0
FFFFFC0003FFFFFFFFFFFFFFFFF0
FFFFFC0003FFFFFFFFFFFFFFFFF0
FFFFFC0003FFFFFFFFFFFFFFFFF0
FFFFFC0003FFFFFFFFFFFFFFFFF0
FFFFFC0003FFFFFFFFFFFFFFFFF0
FFFFFC0003FFFFFFFFFFFFFFFFF0
FFFFFC0003FFFFFFFFFFFFFFFFF0
FFFFFC0003FFFFFFFFFFFFFFFFF0
FFFFFC0003FFFFFFFFFFFFFFFFF0
FFFFFC0003FFFFFFFFFFFFFFFFF0
FFFFFC0003FFFFFFFFFFFFFFFFF0
FFFFFC0003FFFFFFFFFFFFFFFFF0
FFFFFC0003FFFFFFFFFFFFFFFFF0
FFFFFC0003FFFFFFFFFFFFFFFFF0
FFFFFC0003FFFFFFFFFFFFFFFFF0
FFFFFC0003FFFFFFFFFFFFFFFFF0
FFFFFC0003FFFFFFFFFFFFFFFFF0
FFFFFC0003FFFFFFFFFFFFFFFFF0
FFFFFC0000000000000000000000
FFFFFC0000000000000000000000
FFFFFC0000000000000000000000
FFFFFC0000000000000000000000
FFFFFC0000000000000000000000
FFFFFC0000000000000000000000
FFFFFC0000000000000000000000
FFFFFC0000000000000000000000
FFFFFC0000000000000000000000
FFFFFC0000000000000000000000
FFFFFC0000000000000000000000
FFFFFC0000000000000000000000
FFFFFC0000000000000000000000
FFFFFC0000000000000000000000
FFFFFC0000000000000000000000
FFFFFC0000000000000000000000
FFFFFC0000000000000000000000
FFFFFC0000000000000000000000
FFFFFC0000000000000000000000
FFFFFC0000000000000000000000
FFFFFC0000000000000000000000
FFFFFC0000000000000000000000
FFFFFC0000000000000000000000
FFFFFC0000000000000000000000
FFFFFC0000000000000000000000
FFFFFC0000000000000000000000
FFFFFC0000000000000000000000
FFFFFC0000000000000000000000
FFFFFC0000000000000000000000
FFFFFC0000000000000000000000
FFFFFC0000000000000000000000
FFFFFC0000000000000000000000
FFFFFC0000000000000000000000
FFFFFFFFFFFFFFFFFFFFFFFFFFFF
FFFFFFFFFFFFFFFFFFFFFFFFFFFF
FFFFFFFFFFFFFFFFFFFFFFFFFFFF
FFFFFFFFFFFFFFFFFFFFFFFFFFFF
FFFFFFFFFFFFFFFFFFFFFFFFFFFF
FFFFFFFFFFFFFFFFFFFFFFFFFFFF
FFFFFFFFFFFFFFFFFFFFFFFFFFFF
FFFFFFFFFFFFFFFFFFFFFFFFFFFF
FFFFFFFFFFFFFFFFFFFFFFFFFFFF
FFFFFFFFFFFFFFFFFFFFFFFFFFFF
FFFFFFFFFFFFFFFFFFFFFFFFFFFF
FFFFFFFFFFFFFFFFFFFFFFFFFFFF
FFFFFFFFFFFFFFFFFFFFFFFFFFFF
FFFFFFFFFFFFFFFFFFFFFFFFFFFF
FFFFFFFFFFFFFFFFFFFFFFFFFFFF
FFFFFFFFFFFFFFFFFFFFFFFFFFFF
FFFFFFFFFFFFFFFFFFFFFFFFFFFF
FFFFFFFFFFFFFFFFFFFFFFFFFFFF
FFFFFFFFFFFFFFFFFFFFFFFFFFFF
FFFFFFFFFFFFFFFFFFFFFFFFFFFF
FFFFFFFFFFFFFFFFFFFFFFFFFFFF
FFFFFFFFFFFFFFFFFFFFFFFFFFFF
ENDCHAR
STARTCHAR F
ENCODING 70
SWIDTH 705 0
DWIDTH 122 0
BBX 107 126 11 0
BITMAP
FFFFFFFFFFFFFFFFFFFFFFFFFFE0
FFFFFFFFFFFFFFFFFFFFFFFFFFE0
FFFFFFFFFFFFFFFFFFFFFFFFFFE0
FFFFFFFFFFFFFFFFFFFFFFFFFFE0
FFFFFFFFFFFFFFFFFFFFFFFFFFE0
FFFFFFFFFFFFFFFFFFFFFFFFFFE0
FFFFFFFFFFFFFFFFFFFFFFFFFFE0
FFFFFFFFFFFFFFFFFFFFFFFFFFE0
FFFFFFFFFFFFFFFFFFFFFFFFFFE0
FFFFFFFFFFFFFFFFFFFFFFFFFFE0
FFFFFFFFFFFFFFFFFFFFFFFFFFE0
FFFFFFFFFFFFFFFFFFFFFFFFFFE0
FFFFFFFFFFFFFFFFFFFFFFFFFFE0
FFFFFFFFFFFFFFFFFFFFFFFFFFE0
FFFFFFFFFFFFFFFFFFFFFFFFFFE0
FFFFFFFFFFFFFFFFFFFFFFFFFFE0
FFFFFFFFFFFFFFFFFFFFFFFFFFE0
FFFFFFFFFFFFFFFFFFFFFFFFFFE0
FFFFFFFFFFFFFFFFFFFFFFFFFFE0
FFFFFFFFFFFFFFFFFFFFFFFFFFE0
FFFFFFFFFFFFFFFFFFFFFFFFFFE0
FFFFFFFFFFFFFFFFFFFFFFFFFFE0
FFFFFC0000000000000000000000
FFFFFC0000000000000000000000
FFFFFC0000000000000000000000
FFFFFC0000000000000000000000
FFFFFC0000000000000000000000
FFFFFC0000000000000000000000
FFFFFC0000000000000000000000
FFFFFC0000000000000000000000
FFFFFC0000000000000000000000
FFFFFC0000000000000000000000
FFFFFC0000000000000000000000
FFFFFC0000000000000000000000
FFFFFC0000000000000000000000
FFFFFC0000000000000000000000
FFFFFC0000000000000000000000
FFFFFC0000000000000000000000
FFFFFC0000000000000000000000
FFFFFC0000000000000000000000
FFFFFC0000000000000000000000
FFFFFC0000000000000000000000
FFFFFC0000000000000000000000
FFFFFC0000000000000000000000
FFFFFC0000000000000000000000
FFFFFC0000000000000000000000
FFFFFC0000000000000000000000
FFFFFC0000000000000000000000
FFFFFC0000000000000000000000
FFFFFC0000000000000000000000
FFFFFC0000000000000000000000
FFFFFC0000000000000000000000
FFFFFC0000000000000000000000
FFFFFC0000000000000000000000
FFFFFC0000000000000000000000
FFFFFC0003FFFFFFFFFFFFFFF800
FFFFFC0003FFFFFFFFFFFFFFF800
FFFFFC0003FFFFFFFFFFFFFFF800
FFFFFC0003FFFFFFFFFFFFFFF800
FFFFFC0003FFFFFFFFFFFFFFF800
FFFFFC0003FFFFFFFFFFFFFFF800
FFFFFC0003FFFFFFFFFFFFFFF800
FFFFFC0003FFFFFFFFFFFFFFF800
FFFFFC0003FFFFFFFFFFFFFFF800
FFFFFC0003FFFFFFFFFFFFFFF800
FFFFFC0003FFFFFFFFFFFFFFF800
FFFFFC0003FFFFFFFFFFFFFFF800
FFFFFC0003FFFFFFFFFFFFFFF800
FFFFFC0003FFFFFFFFFFFFFFF800
FFFFFC0003FFFFFFFFFFFFFFF800
FFFFFC0003FFFFFFFFFFFFFFF800
FFFFFC0003FFFFFFFFFFFFFFF800
FFFFFC0003FFFFFFFFFFFFFFF800
FFFFFC0003FFFFFFFFFFFFFFF800
FFFFFC0000000000000000000000
FFFFFC0000000000000000000000
FFFFFC0000000000000000000000
FFFFFC0000000000000000000000
FFFFFC0000000000000000000000
FFFFFC0000000000000000000000
FFFFFC0000000000000000000000
FFFFFC0000000000000000000000
FFFFFC0000000000000000000000
FFFFFC0000000000000000000000
FFFFFC0000000000000000000000
FFFFFC0000000000000000000000
FFFFFC0000000000000000000000
FFFFFC0000000000000000000000
FFFFFC0000000000000000000000
FFFFFC0000000000000000000000
FFFFFC0000000000000000000000
FFFFFC0000000000000000000000
FFFFFC0000000000000000000000
FFFFFC0000000000000000000000
FFFFFC0000000000000000000000
FFFFFC0000000000000000000000
FFFFFC0000000000000000000000
FFFFFC0000000000000000000000
FFFFFC0000000000000000000000
FFFFFC0000000000000000000000
FFFFFC0000000000000000000000
FFFFFC0000000000000000000000
FFFFFC0000000000000000000000
FFFFFC0000000000000000000000
FFFFFC0000000000000000000000
FFFFFC0000000000000000000000
FFFFFC0000000000000000000000
FFFFFC0000000000000000000000
FFFFFC0000000000000000000000
FFFFFC0000000000000000000000
FFFFFC0000000000000000000000
FFFFFC0000000000000000000000
FFFFFC0000000000000000000000
FFFFFC0000000000000000000000
FFFFFC0000000000000000000000
FFFFFC0000000000000000000000
FFFFFC0000000000000000000000
FFFFFC0000000000000000000000
FFFFFC0000000000000000000000
FFFFFC0000000000000000000000
FFFFFC0000000000000000000000
FFFFFC0000000000000000000000
FFFFFC0000000000000000000000
FFFFFC0000000000000000000000
FFFFFC0000000000000000000000
FFFFFC0000000000000000000000
ENDCHAR
STARTCHAR G
ENCODING 71
SWIDTH 888 0
DWIDTH 154 0
BBX 137 126 7 0
BITMAP
00000000000007FFFFFFFFFFFFFFFFFFC000
000000000001FFFFFFFFFFFFFFFFFFFFC000
00000000001FFFFFFFFFFFFFFFFFFFFFC000
0000000000FFFFFFFFFFFFFFFFFFFFFFC000
0000000007FFFFFFFFFFFFFFFFFFFFFFC000
000000003FFFFFFFFFFFFFFFFFFFFFFFC000
00000000FFFFFFFFFFFFFFFFFFFFFFFFC000
00000003FFFFFFFFFFFFFFFFFFFFFFFFC000
00000007FFFFFFFFFFFFFFFFFFFFFFFFC000
0000001FFFFFFFFFFFFFFFFFFFFFFFFFC000
0000007FFFFFFFFFFFFFFFFFFFFFFFFFC000
000000FFFFFFFFFFFFFFFFFFFFFFFFFFC000
000001FFFFFFFFFFFFFFFFFFFFFFFFFFC000
000007FFFFFFFFFFFFFFFFFFFFFFFFFFC000
00000FFFFFFFFFFFFFFFFFFFFFFFFFFFC000
00001FFFFFFFFFFFFFFFFFFFFFFFFFFFC000
00003FFFFFFFFFFFFFFFFFFFFFFFFFFFC000
00007FFFFFFFFFFFFFFFFFFFFFFFFFFFC000
0000FFFFFFFFFFFFFFFFFFFFFFFFFFFFC000
0001FFFFFFFFFFFFFFFFFFFFFFFFFFFFC000
0003FFFFFFFFFFFFFFFFFFFFFFFFFFFFC000
0007FFFFFFFFFFFFFFFFFFFFFFFFFFFFC000
0007FFFFFFFFFE0000000000000000000000
000FFFFFFFFFC00000000000000000000000
001FFFFFFFFE000000000000000000000000
001FFFFFFFF8000000000000000000000000
003FFFFFFFE0000000000000000000000000
007FFFFFFF80000000000000000000000000
007FFFFFFE00000000000000000000000000
00FFFFFFFC00000000000000000000000000
00FFFFFFF000000000000000000000000000
01FFFFFFE000000000000000000000000000
01FFFFFFC000000000000000000000000000
03FFFFFF8000000000000000000000000000
03FFFFFF0000000000000000000000000000
07FFFFFE0000000000000000000000000000
07FFFFFE0000000000000000000000000000
0FFFFFFC0000000000000000000000000000
0FFFFFF80000000000000000000000000000
0FFFFFF80000000000000000000000000000
1FFFFFF00000000000000000000000000000
1FFFFFE00000000000000000000000000000
1FFFFFE00000000000000000000000000000
3FFFFFC00000000000000000000000000000
3FFFFFC00000000000000000000000000000
3FFFFFC00000000000000000000000000000
3FFFFF800000000000000000000000000000
3FFFFF800000000000000000000000000000
7FFFFF000000000000000000000000000000
7FFFFF000000000000000000000000000000
7FFFFF000000000000000000000000000000
7FFFFF000000000000000000000000000000
7FFFFE000000003FFFFFFFFFFFFFFFFFFF80
7FFFFE000000003FFFFFFFFFFFFFFFFFFF80
7FFFFE000000003FFFFFFFFFFFFFFFFFFF80
FFFFFE000000003FFFFFFFFFFFFFFFFFFF80
FFFFFE000000003FFFFFFFFFFFFFFFFFFF80
FFFFFC000000003FFFFFFFFFFFFFFFFFFF80
FFFFFC000000003FFFFFFFFFFFFFFFFFFF80
FFFFFC000000003FFFFFFFFFFFFFFFFFFF80
FFFFFC000000003FFFFFFFFFFFFFFFFFFF80
FFFFFC000000003FFFFFFFFFFFFFFFFFFF80
FFFFFC000000003FFFFFFFFFFFFFFFFFFF80
FFFFFC000000003FFFFFFFFFFFFFFFFFFF80
FFFFFC000000003FFFFFFFFFFFFFFFFFFF80
FFFFFC000000003FFFFFFFFFFFFFFFFFFF80
FFFFFC000000003FFFFFFFFFFFFFFFFFFF80
FFFFFC000000003FFFFFFFFFFFFFFFFFFF80
7FFFFE000000003FFFFFFFFFFFFFFFFFFF80
7FFFFE000000003FFFFFFFFFFFFFFFFFFF80
7FFFFE000000003FFFFFFFFFFFFFFFFFFF80
7FFFFE00000000000000000000001FFFFF80
7FFFFE00000000000000000000001FFFFF80
7FFFFE00000000000000000000001FFFFF80
7FFFFF00000000000000000000001FFFFF80
3FFFFF00000000000000000000001FFFFF80
3FFFFF00000000000000000000001FFFFF80
3FFFFF80000000000000000000001FFFFF80
3FFFFF80000000000000000000001FFFFF80
3FFFFF80000000000000000000001FFFFF80
1FFFFFC0000000000000000000001FFFFF80
1FFFFFC0000000000000000000001FFFFF80
1FFFFFE0000000000000000000001FFFFF80
0FFFFFE0000000000000000000001FFFFF80
0FFFFFF0000000000000000000001FFFFF80
0FFFFFF0000000000000000000001FFFFF80
07FFFFF8000000000000000000001FFFFF80
07FFFFF8000000000000000000001FFFFF80
07FFFFFC000000000000000000001FFFFF80
03FFFFFE000000000000000000001FFFFF80
03FFFFFF000000000000000000001FFFFF80
01FFFFFF800000000000000000001FFFFF80
01FFFFFF800000000000000000001FFFFF80
00FFFFFFC00000000000000000001FFFFF80
00FFFFFFF00000000000000000001FFFFF80
007FFFFFF80000000000000000001FFFFF80
007FFFFFFC0000000000000000001FFFFF80
003FFFFFFE0000000000000000001FFFFF80
001FFFFFFF8000000000000000001FFFFF80
001FFFFFFFE000000000000000001FFFFF80
000FFFFFFFF800000000000000001FFFFF80
0007FFFFFFFE00000000000000001FFFFF80
0007FFFFFFFFC0000000000000001FFFFF80
0003FFFFFFFFFE000000000000001FFFFF80
0001FFFFFFFFFFFFFFFFFFFFFFFFFFFFFF80
0000FFFFFFFFFFFFFFFFFFFFFFFFFFFFFF80
00007FFFFFFFFFFFFFFFFFFFFFFFFFFFFF80
00003FFFFFFFFFFFFFFFFFFFFFFFFFFFFF80
00001FFFFFFFFFFFFFFFFFFFFFFFFFFFFF80
00000FFFFFFFFFFFFFFFFFFFFFFFFFFFFF80
000007FFFFFFFFFFFFFFFFFFFFFFFFFFFF80
000003FFFFFFFFFFFFFFFFFFFFFFFFFFFF80
000001FFFFFFFFFFFFFFFFFFFFFFFFFFFF80
000000FFFFFFFFFFFFFFFFFFFFFFFFFFFF80
0000003FFFFFFFFFFFFFFFFFFFFFFFFFFF80
0000001FFFFFFFFFFFFFFFFFFFFFFFFFFF80
0000000FFFFFFFFFFFFFFFFFFFFFFFFFFF80
00000003FFFFFFFFFFFFFFFFFFFFFFFFFF80
00000000FFFFFFFFFFFFFFFFFFFFFFFFFF80
000000003FFFFFFFFFFFFFFFFFFFFFFFFF80
000000000FFFFFFFFFFFFFFFFFFFFFFFFF80
0000000003FFFFFFFFFFFFFFFFFFFFFFFF80
00000000007FFFFFFFFFFFFFFFFFFFFFFF80
00000000000FFFFFFFFFFFFFFFFFFFFFFF80
000000000001FFFFFFFFFFFFFFFFFFFFFF80
00000000000007FFFFFFFFFFFFFFFFFFFF80
ENDCHAR
STARTCHAR H
ENCODING 72
SWIDTH 838 0
DWIDTH 145 0
BBX 123 126 11 0
BITMAP
FFFFFC00000000000000000007FFFFE0
FFFFFC00000000000000000007FFFFE0
FFFFFC00000000000000000007FFFFE0
FFFFFC00000000000000000007FFFFE0
FFFFFC00000000000000000007FFFFE0
FFFFFC00000000000000000007FFFFE0
FFFFFC00000000000000000007FFFFE0
FFFFFC00000000000000000007FFFFE0
FFFFFC00000000000000000007FFFFE0
FFFFFC00000000000000000007FFFFE0
FFFFFC00000000000000000007FFFFE0
FFFFFC00000000000000000007FFFFE0
FFFFFC00000000000000000007FFFFE0
FFFFFC00000000000000000007FFFFE0
FFFFFC00000000000000000007FFFFE0
FFFFFC00000000000000000007FFFFE0
FFFFFC00000000000000000007FFFFE0
FFFFFC00000000000000000007FFFFE0
FFFFFC00000000000000000007FFFFE0
FFFFFC00000000000000000007FFFFE0
FFFFFC00000000000000000007FFFFE0
FFFFFC00000000000000000007FFFFE0
FFFFFC00000000000000000007FFFFE0
FFFFFC00000000000000000007FFFFE0
FFFFFC00000000000000000007FFFFE0
FFFFFC00000000000000000007FFFFE0
FFFFFC00000000000000000007FFFFE0
FFFFFC00000000000000000007FFFFE0
FFFFFC00000000000000000007FFFFE0
FFFFFC00000000000000000007FFFFE0
FFFFFC00000000000000000007FFFFE0
FFFFFC00000000000000000007FFFFE0
FFFFFC00000000000000000007FFFFE0
FFFFFC00000000000000000007FFFFE0
FFFFFC00000000000000000007FFFFE0
FFFFFC00000000000000000007FFFFE0
FFFFFC00000000000000000007FFFFE0
FFFFFC00000000000000000007FFFFE0
FFFFFC00000000000000000007FFFFE0
FFFFFC00000000000000000007FFFFE0
FFFFFC00000000000000000007FFFFE0
FFFFFC00000000000000000007FFFFE0
FFFFFC00000000000000000007FFFFE0
FFFFFC00000000000000000007FFFFE0
FFFFFC00000000000000000007FFFFE0
FFFFFC00000000000000000007FFFFE0
FFFFFC00000000000000000007FFFFE0
FFFFFC00000000000000000007FFFFE0
FFFFFC00000000000000000007FFFFE0
FFFFFC00000000000000000007FFFFE0
FFFFFC00000000000000000007FFFFE0
FFFFFC0003FFFFFFFFFFFFFFFFFFFFE0
FFFFFC0003FFFFFFFFFFFFFFFFFFFFE0
FFFFFC0003FFFFFFFFFFFFFFFFFFFFE0
FFFFFC0003FFFFFFFFFFFFFFFFFFFFE0
FFFFFC0003FFFFFFFFFFFFFFFFFFFFE0
FFFFFC0003FFFFFFFFFFFFFFFFFFFFE0
FFFFFC0003FFFFFFFFFFFFFFFFFFFFE0
FFFFFC0003FFFFFFFFFFFFFFFFFFFFE0
FFFFFC0003FFFFFFFFFFFFFFFFFFFFE0
FFFFFC0003FFFFFFFFFFFFFFFFFFFFE0
FFFFFC0003FFFFFFFFFFFFFFFFFFFFE0
FFFFFC0003FFFFFFFFFFFFFFFFFFFFE0
FFFFFC0003FFFFFFFFFFFFFFFFFFFFE0
FFFFFC0003FFFFFFFFFFFFFFFFFFFFE0
FFFFFC0003FFFFFFFFFFFFFFFFFFFFE0
FFFFFC0003FFFFFFFFFFFFFFFFFFFFE0
FFFFFC0003FFFFFFFFFFFFFFFFFFFFE0
FFFFFC0003FFFFFFFFFFFFFFFFFFFFE0
FFFFFC0003FFFFFFFFFFFFFFFFFFFFE0
FFFFFC0003FFFFFFFFFFFFFFFFFFFFE0
FFFFFC00000000000000000007FFFFE0
FFFFFC00000000000000000007FFFFE0
FFFFFC00000000000000000007FFFFE0
FFFFFC00000000000000000007FFFFE0
FFFFFC00000000000000000007FFFFE0
FFFFFC00000000000000000007FFFFE0
FFFFFC00000000000000000007FFFFE0
FFFFFC00000000000000000007FFFFE0
FFFFFC00000000000000000007FFFFE0
FFFFFC00000000000000000007FFFFE0
FFFFFC00000000000000000007FFFFE0
FFFFFC00000000000000000007FFFFE0
FFFFFC00000000000000000007FFFFE0
FFFFFC00000000000000000007FFFFE0
FFFFFC00000000000000000007FFFFE0
FFFFFC00000000000000000007FFFFE0
FFFFFC00000000000000000007FFFFE0
FFFFFC00000000000000000007FFFFE0
FFFFFC00000000000000000007FFFFE0
FFFFFC00000000000000000007FFFFE0
FFFFFC00000000000000000007FFFFE0
FFFFFC00000000000000000007FFFFE0
FFFFFC00000000000000000007FFFFE0
FFFFFC00000000000000000007FFFFE0
FFFFFC00000000000000000007FFFFE0
FFFFFC00000000000000000007FFFFE0
FFFFFC00000000000000000007FFFFE0
FFFFFC00000000000000000007FFFFE0
FFFFFC00000000000000000007FFFFE0
FFFFFC00000000000000000007FFFFE0
FFFFFC00000000000000000007FFFFE0
FFFFFC00000000000000000007FFFFE0
FFFFFC00000000000000000007FFFFE0
FFFFFC00000000000000000007FFFFE0
FFFFFC00000000000000000007FFFFE0
FFFFFC00000000000000000007FFFFE0
FFFFFC00000000000000000007FFFFE0
FFFFFC00000000000000000007FFFFE0
FFFFFC00000000000000000007FFFFE0
FFFFFC00000000000000000007FFFFE0
FFFFFC00000000000000000007FFFFE0
FFFFFC00000000000000000007FFFFE0
FFFFFC00000000000000000007FFFFE0
FFFFFC00000000000000000007FFFFE0
FFFFFC00000000000000000007FFFFE0
FFFFFC00000000000000000007FFFFE0
FFFFFC00000000000000000007FFFFE0
FFFFFC00000000000000000007FFFFE0
FFFFFC00000000000000000007FFFFE0
FFFFFC00000000000000000007FFFFE0
FFFFFC00000000000000000007FFFFE0
FFFFFC00000000000000000007FFFFE0
FFFFFC00000000000000000007FFFFE0
FFFFFC00000000000000000007FFFFE0
FFFFFC00000000000000000007FFFFE0
ENDCHAR
STARTCHAR I
ENCODING 73
SWIDTH 267 0
DWIDTH 46 0
BBX 22 126 12 0
BITMAP
FFFFFC
FFFFFC
FFFFFC
FFFFFC
FFFFFC
FFFFFC
FFFFFC
FFFFFC
FFFFFC
FFFFFC
FFFFFC
FFFFFC
FFFFFC
FFFFFC
FFFFFC
FFFFFC
FFFFFC
FFFFFC
FFFFFC
FFFFFC
FFFFFC
FFFFFC
FFFFFC
FFFFFC
FFFFFC
FFFFFC
FFFFFC
FFFFFC
FFFFFC
FFFFFC
FFFFFC
FFFFFC
FFFFFC
FFFFFC
FFFFFC
FFFFFC
FFFFFC
FFFFFC
FFFFFC
FFFFFC
FFFFFC
FFFFFC
FFFFFC
FFFFFC
FFFFFC
FFFFFC
FFFFFC
FFFFFC
FFFFFC
FFFFFC
FFFFFC
FFFFFC
FFFFFC
FFFFFC
FFFFFC
FFFFFC
FFFFFC
FFFFFC
FFFFFC
FFFFFC
FFFFFC
FFFFFC
FFFFFC
FFFFFC
FFFFFC
FFFFFC
FFFFFC
FFFFFC
FFFFFC
FFFFFC
FFFFFC
FFFFFC
FFFFFC
FFFFFC
FFFFFC
FFFFFC
FFFFFC
FFFFFC
FFFFFC
FFFFFC
FFFFFC
FFFFFC
FFFFFC
FFFFFC
FFFFFC
FFFFFC
FFFFFC
FFFFFC
FFFFFC
FFFFFC
FFFFFC
FFFFFC
FFFFFC
FFFFFC
FFFFFC
FFFFFC
FFFFFC
FFFFFC
FFFFFC
FFFFFC
FFFFFC
FFFFFC
FFFFFC
FFFFFC
FFFFFC
FFFFFC
FFFFFC
FFFFFC
FFFFFC
FFFFFC
FFFFFC
FFFFFC
FFFFFC
FFFFFC
FFFFFC
FFFFFC
FFFFFC
FFFFFC
FFFFFC
FFFFFC
FFFFFC
FFFFFC
FFFFFC
FFFFFC
FFFFFC
FFFFFC
ENDCHAR
STARTCHAR J
ENCODING 74
SWIDTH 708 0
DWIDTH 122 0
BBX 109 126 4 0
BITMAP
0000000000000000000000FFFFF8
0000000000000000000000FFFFF8
0000000000000000000000FFFFF8
0000000000000000000000FFFFF8
0000000000000000000000FFFFF8
0000000000000000000000FFFFF8
0000000000000000000000FFFFF8
0000000000000000000000FFFFF8
0000000000000000000000FFFFF8
0000000000000000000000FFFFF8
0000000000000000000000FFFFF8
0000000000000000000000FFFFF8
0000000000000000000000FFFFF8
0000000000000000000000FFFFF8
0000000000000000000000FFFFF8
0000000000000000000000FFFFF8
0000000000000000000000FFFFF8
0000000000000000000000FFFFF8
0000000000000000000000FFFFF8
0000000000000000000000FFFFF8
0000000000000000000000FFFFF8
0000000000000000000000FFFFF8
0000000000000000000000FFFFF8
0000000000000000000000FFFFF8
0000000000000000000000FFFFF8
0000000000000000000000FFFFF8
0000000000000000000000FFFFF8
0000000000000000000000FFFFF8
0000000000000000000000FFFFF8
0000000000000000000000FFFFF8
0000000000000000000000FFFFF8
0000000000000000000000FFFFF8
0000000000000000000000FFFFF8
0000000000000000000000FFFFF8
0000000000000000000000FFFFF8
0000000000000000000000FFFFF8
0000000000000000000000FFFFF8
0000000000000000000000FFFFF8
0000000000000000000000FFFFF8
0000000000000000000000FFFFF8
0000000000000000000000FFFFF8
0000000000000000000000FFFFF8
0000000000000000000000FFFFF8
0000000000000000000000FFFFF8
0000000000000000000000FFFFF8
0000000000000000000000FFFFF8
0000000000000000000000FFFFF8
0000000000000000000000FFFFF8
0000000000000000000000FFFFF8
0000000000000000000000FFFFF8
0000000000000000000000FFFFF8
0000000000000000000000FFFFF8
0000000000000000000000FFFFF8
0000000000000000000000FFFFF8
0000000000000000000000FFFFF8
0000000000000000000000FFFFF8
0000000000000000000000FFFFF8
0000000000000000000000FFFFF8
0000000000000000000000FFFFF8
0000000000000000000000FFFFF8
0000000000000000000000FFFFF8
0000000000000000000000FFFFF8
0000000000000000000000FFFFF8
0000000000000000000000FFFFF8
0000000000000000000000FFFFF8
0000000000000000000000FFFFF8
0000000000000000000000FFFFF8
0000000000000000000000FFFFF8
0000000000000000000000FFFFF8
0000000000000000000001FFFFF8
0000000000000000000001FFFFF8
0000000000000000000001FFFFF8
0000000000000000000001FFFFF8
0000000000000000000001FFFFF8
0000000000000000000001FFFFF8
0000000000000000000001FFFFF8
0000000000000000000001FFFFF8
0000000000000000000001FFFFF8
0000000000000000000001FFFFF8
0000000000000000000003FFFFF8
0000000000000000000003FFFFF8
0000000000000000000003FFFFF8
0000000000000000000003FFFFF8
0000000000000000000007FFFFF0
0000000000000000000007FFFFF0
0000000000000000000007FFFFF0
000000000000000000000FFFFFF0
000000000000000000000FFFFFF0
000000000000000000001FFFFFE0
000000000000000000001FFFFFE0
000000000000000000003FFFFFE0
000000000000000000007FFFFFE0
000000000000000000007FFFFFC0
00000000000000000000FFFFFFC0
00000000000000000001FFFFFFC0
00000000000000000003FFFFFF80
00000000000000000007FFFFFF80
0000000000000000001FFFFFFF00
0000000000000000003FFFFFFF00
000000000000000000FFFFFFFE00
000000000000000007FFFFFFFE00
00000000000000003FFFFFFFFC00
0000000000000003FFFFFFFFFC00
00000000000000FFFFFFFFFFF800
FFFFFFFFFFFFFFFFFFFFFFFFF800
FFFFFFFFFFFFFFFFFFFFFFFFF000
FFFFFFFFFFFFFFFFFFFFFFFFE000
FFFFFFFFFFFFFFFFFFFFFFFFC000
FFFFFFFFFFFFFFFFFFFFFFFFC000
FFFFFFFFFFFFFFFFFFFFFFFF8000
FFFFFFFFFFFFFFFFFFFFFFFF0000
FFFFFFFFFFFFFFFFFFFFFFFE0000
FFFFFFFFFFFFFFFFFFFFFFFC0000
FFFFFFFFFFFFFFFFFFFFFFF00000
FFFFFFFFFFFFFFFFFFFFFFE00000
FFFFFFFFFFFFFFFFFFFFFFC00000
FFFFFFFFFFFFFFFFFFFFFF000000
FFFFFFFFFFFFFFFFFFFFFE000000
FFFFFFFFFFFFFFFFFFFFF8000000
FFFFFFFFFFFFFFFFFFFFE0000000
FFFFFFFFFFFFFFFFFFFF00000000
FFFFFFFFFFFFFFFFFFFC00000000
FFFFFFFFFFFFFFFFFFE000000000
FFFFFFFFFFFFFFFFFE0000000000
FFFFFFFFFFFFFFFFC00000000000
FFFFFFFFFFFFFFC0000000000000
ENDCHAR
STARTCHAR K
ENCODING 75
SWIDTH 875 0
DWIDTH 151 0
BBX 137 126 11 0
BITMAP
FFFFFC0000000000000000000FFFFFFFFE00
FFFFFC0000000000000000001FFFFFFFF800
FFFFFC0000000000000000003FFFFFFFE000
FFFFFC000000000000000000FFFFFFFFC000
FFFFFC000000000000000001FFFFFFFF0000
FFFFFC000000000000000003FFFFFFFE0000
FFFFFC00000000000000000FFFFFFFFC0000
FFFFFC00000000000000001FFFFFFFF00000
FFFFFC00000000000000003FFFFFFFE00000
FFFFFC0000000000000000FFFFFFFFC00000
FFFFFC0000000000000001FFFFFFFF000000
FFFFFC0000000000000003FFFFFFFE000000
FFFFFC0000000000000007FFFFFFFC000000
FFFFFC000000000000001FFFFFFFF0000000
FFFFFC000000000000003FFFFFFFE0000000
FFFFFC000000000000007FFFFFFFC0000000
FFFFFC00000000000001FFFFFFFF00000000
FFFFFC00000000000003FFFFFFFE00000000
FFFFFC00000000000007FFFFFFFC00000000
FFFFFC0000000000001FFFFFFFF000000000
FFFFFC0000000000003FFFFFFFE000000000
FFFFFC0000000000007FFFFFFFC000000000
FFFFFC000000000000FFFFFFFF0000000000
FFFFFC000000000003FFFFFFFE0000000000
FFFFFC000000000007FFFFFFFC0000000000
FFFFFC00000000000FFFFFFFF00000000000
FFFFFC00000000003FFFFFFFE00000000000
FFFFFC00000000007FFFFFFFC00000000000
FFFFFC0000000000FFFFFFFF000000000000
FFFFFC0000000003FFFFFFFE000000000000
FFFFFC0000000007FFFFFFFC000000000000
FFFFFC000000000FFFFFFFF0000000000000
FFFFFC000000001FFFFFFFE0000000000000
FFFFFC000000007FFFFFFFC0000000000000
FFFFFC00000000FFFFFFFF00000000000000
FFFFFC00000001FFFFFFFE00000000000000
FFFFFC00000007FFFFFFFC00000000000000
FFFFFC0000000FFFFFFFF000000000000000
FFFFFC0000001FFFFFFFE000000000000000
FFFFFC0000007FFFFFFFC000000000000000
FFFFFC000000FFFFFFFF0000000000000000
FFFFFC000001FFFFFFFE0000000000000000
FFFFFC000003FFFFFFFC0000000000000000
FFFFFC00000FFFFFFFF00000000000000000
FFFFFC00001FFFFFFFE00000000000000000
FFFFFC00003FFFFFFFC00000000000000000
FFFFFC0000FFFFFFFF000000000000000000
FFFFFC0001FFFFFFFE000000000000000000
FFFFFC0003FFFFFFFC000000000000000000
FFFFFC000FFFFFFFF0000000000000000000
FFFFFC001FFFFFFFE0000000000000000000
FFFFFC003FFFFFFFC0000000000000000000
FFFFFC007FFFFFFF00000000000000000000
FFFFFC00FFFFFFFE00000000000000000000
FFFFFC01FFFFFFFC00000000000000000000
FFFFFC03FFFFFFF000000000000000000000
FFFFFC07FFFFFFE000000000000000000000
FFFFFC07FFFFFFC000000000000000000000
FFFFFC07FFFFFF0000000000000000000000
FFFFFC07FFFFFE0000000000000000000000
FFFFFC07FFFFFC0000000000000000000000
FFFFFC07FFFFF00000000000000000000000
FFFFFC07FFFFF80000000000000000000000
FFFFFC07FFFFFE0000000000000000000000
FFFFFC07FFFFFF0000000000000000000000
FFFFFC07FFFFFF8000000000000000000000
FFFFFC03FFFFFFE000000000000000000000
FFFFFC03FFFFFFF000000000000000000000
FFFFFC01FFFFFFF800000000000000000000
FFFFFC00FFFFFFFE00000000000000000000
FFFFFC007FFFFFFF00000000000000000000
FFFFFC003FFFFFFF80000000000000000000
FFFFFC000FFFFFFFE0000000000000000000
FFFFFC0007FFFFFFF0000000000000000000
FFFFFC0003FFFFFFF8000000000000000000
FFFFFC0001FFFFFFFE000000000000000000
FFFFFC00007FFFFFFF000000000000000000
FFFFFC00003FFFFFFF800000000000000000
FFFFFC00001FFFFFFFE00000000000000000
FFFFFC00000FFFFFFFF00000000000000000
FFFFFC000003FFFFFFF80000000000000000
FFFFFC000001FFFFFFFC0000000000000000
FFFFFC000000FFFFFFFF0000000000000000
FFFFFC0000003FFFFFFF8000000000000000
FFFFFC0000001FFFFFFFC000000000000000
FFFFFC0000000FFFFFFFF000000000000000
FFFFFC00000007FFFFFFF800000000000000
FFFFFC00000001FFFFFFFC00000000000000
FFFFFC00000000FFFFFFFF00000000000000
FFFFFC000000007FFFFFFF80000000000000
FFFFFC000000003FFFFFFFC0000000000000
FFFFFC000000000FFFFFFFF0000000000000
FFFFFC0000000007FFFFFFF8000000000000
FFFFFC0000000003FFFFFFFC000000000000
FFFFFC0000000000FFFFFFFF000000000000
FFFFFC00000000007FFFFFFF800000000000
FFFFFC00000000003FFFFFFFC00000000000
FFFFFC00000000001FFFFFFFF00000000000
FFFFFC000000000007FFFFFFF80000000000
FFFFFC000000000003FFFFFFFC0000000000
FFFFFC000000000001FFFFFFFE0000000000
FFFFFC000000000000FFFFFFFF8000000000
FFFFFC0000000000003FFFFFFFC000000000
FFFFFC0000000000001FFFFFFFE000000000
FFFFFC0000000000000FFFFFFFF800000000
FFFFFC00000000000007FFFFFFFC00000000
FFFFFC00000000000001FFFFFFFE00000000
FFFFFC00000000000000FFFFFFFF80000000
FFFFFC000000000000007FFFFFFFC0000000
FFFFFC000000000000001FFFFFFFE0000000
FFFFFC000000000000000FFFFFFFF8000000
FFFFFC0000000000000007FFFFFFFC000000
FFFFFC0000000000000003FFFFFFFE000000
FFFFFC0000000000000000FFFFFFFF800000
FFFFFC00000000000000007FFFFFFFC00000
FFFFFC00000000000000003FFFFFFFE00000
FFFFFC00000000000000001FFFFFFFF80000
FFFFFC000000000000000007FFFFFFFC0000
FFFFFC000000000000000003FFFFFFFE0000
FFFFFC000000000000000001FFFFFFFF8000
FFFFFC0000000000000000007FFFFFFFC000
FFFFFC0000000000000000003FFFFFFFE000
FFFFFC0000000000000000001FFFFFFFF800
FFFFFC0000000000000000000FFFFFFFFC00
FFFFFC00000000000000000003FFFFFFFE00
FFFFFC00000000000000000001FFFFFFFF80
ENDCHAR
STARTCHAR L
ENCODING 76
SWIDTH 707 0
DWIDTH 122 0
BBX 106 126 11 0
BITMAP
FFFFFC0000000000000000000000
FFFFFC0000000000000000000000
FFFFFC0000000000000000000000
FFFFFC0000000000000000000000
FFFFFC0000000000000000000000
FFFFFC0000000000000000000000
FFFFFC0000000000000000000000
FFFFFC0000000000000000000000
FFFFFC0000000000000000000000
FFFFFC0000000000000000000000
FFFFFC0000000000000000000000
FFFFFC0000000000000000000000
FFFFFC0000000000000000000000
FFFFFC0000000000000000000000
FFFFFC0000000000000000000000
FFFFFC0000000000000000000000
FFFFFC0000000000000000000000
FFFFFC0000000000000000000000
FFFFFC0000000000000000000000
FFFFFC0000000000000000000000
FFFFFC0000000000000000000000
FFFFFC0000000000000000000000
FFFFFC0000000000000000000000
FFFFFC0000000000000000000000
FFFFFC0000000000000000000000
FFFFFC0000000000000000000000
FFFFFC0000000000000000000000
FFFFFC0000000000000000000000
FFFFFC0000000000000000000000
FFFFFC0000000000000000000000
FFFFFC0000000000000000000000
FFFFFC0000000000000000000000
FFFFFC0000000000000000000000
FFFFFC0000000000000000000000
FFFFFC0000000000000000000000
FFFFFC0000000000000000000000
FFFFFC0000000000000000000000
FFFFFC0000000000000000000000
FFFFFC0000000000000000000000
FFFFFC0000000000000000000000
FFFFFC0000000000000000000000
FFFFFC0000000000000000000000
FFFFFC0000000000000000000000
FFFFFC0000000000000000000000
FFFFFC0000000000000000000000
FFFFFC0000000000000000000000
FFFFFC0000000000000000000000
FFFFFC0000000000000000000000
FFFFFC0000000000000000000000
FFFFFC0000000000000000000000
FFFFFC0000000000000000000000
FFFFFC0000000000000000000000
FFFFFC0000000000000000000000
FFFFFC0000000000000000000000
FFFFFC0000000000000000000000
FFFFFC0000000000000000000000
FFFFFC0000000000000000000000
FFFFFC0000000000000000000000
FFFFFC0000000000000000000000
FFFFFC0000000000000000000000
FFFFFC0000000000000000000000
FFFFFC0000000000000000000000
FFFFFC0000000000000000000000
FFFFFC0000000000000000000000
FFFFFC0000000000000000000000
FFFFFC0000000000000000000000
FFFFFC0000000000000000000000
FFFFFC0000000000000000000000
FFFFFC0000000000000000000000
FFFFFC0000000000000000000000
FFFFFC0000000000000000000000
FFFFFC0000000000000000000000
FFFFFC0000000000000000000000
FFFFFC0000000000000000000000
FFFFFC0000000000000000000000
FFFFFC0000000000000000000000
FFFFFC0000000000000000000000
FFFFFC0000000000000000000000
FFFFFC0000000000000000000000
FFFFFC0000000000000000000000
FFFFFC0000000000000000000000
FFFFFC0000000000000000000000
FFFFFC0000000000000000000000
FFFFFC0000000000000000000000
FFFFFC0000000000000000000000
FFFFFC0000000000000000000000
FFFFFC0000000000000000000000
FFFFFC0000000000000000000000
FFFFFC0000000000000000000000
FFFFFC0000000000000000000000
FFFFFC0000000000000000000000
FFFFFC0000000000000000000000
FFFFFC0000000000000000000000
FFFFFC0000000000000000000000
FFFFFC0000000000000000000000
FFFFFC0000000000000000000000
FFFFFC0000000000000000000000
FFFFFC0000000000000000000000
FFFFFC0000000000000000000000
FFFFFC0000000000000000000000
FFFFFC0000000000000000000000
FFFFFC0000000000000000000000
FFFFFC0000000000000000000000
FFFFFC0000000000000000000000
FFFFFFFFFFFFFFFFFFFFFFFFFFC0
FFFFFFFFFFFFFFFFFFFFFFFFFFC0
FFFFFFFFFFFFFFFFFFFFFFFFFFC0
FFFFFFFFFFFFFFFFFFFFFFFFFFC0
FFFFFFFFFFFFFFFFFFFFFFFFFFC0
FFFFFFFFFFFFFFFFFFFFFFFFFFC0
FFFFFFFFFFFFFFFFFFFFFFFFFFC0
FFFFFFFFFFFFFFFFFFFFFFFFFFC0
FFFFFFFFFFFFFFFFFFFFFFFFFFC0
FFFFFFFFFFFFFFFFFFFFFFFFFFC0
FFFFFFFFFFFFFFFFFFFFFFFFFFC0
FFFFFFFFFFFFFFFFFFFFFFFFFFC0
FFFFFFFFFFFFFFFFFFFFFFFFFFC0
FFFFFFFFFFFFFFFFFFFFFFFFFFC0
FFFFFFFFFFFFFFFFFFFFFFFFFFC0
FFFFFFFFFFFFFFFFFFFFFFFFFFC0
FFFFFFFFFFFFFFFFFFFFFFFFFFC0
FFFFFFFFFFFFFFFFFFFFFFFFFFC0
FFFFFFFFFFFFFFFFFFFFFFFFFFC0
FFFFFFFFFFFFFFFFFFFFFFFFFFC0
FFFFFFFFFFFFFFFFFFFFFFFFFFC0
FFFFFFFFFFFFFFFFFFFFFFFFFFC0
ENDCHAR
STARTCHAR M
ENCODING 77
SWIDTH 1115 0
DWIDTH 193 0
BBX 185 128 4 -2
BITMAP
0000000000FE00000000000000000000001FC00000000000
0000000007FF80000000000000000000007FF00000000000
000000000FFFE000000000000000000001FFF80000000000
000000001FFFF000000000000000000003FFFC0000000000
000000003FFFF800000000000000000003FFFE0000000000
000000003FFFF800000000000000000007FFFF0000000000
000000007FFFFC0000000000000000000FFFFF0000000000
000000007FFFFE0000000000000000000FFFFF8000000000
000000007FFFFE0000000000000000001FFFFF8000000000
00000000FFFFFE0000000000000000001FFFFF8000000000
00000000FFFFFF0000000000000000001FFFFFC000000000
00000000FFFFFF0000000000000000003FFFFFC000000000
00000001FFFFFF8000000000000000003FFFFFC000000000
00000001FFFFFF8000000000000000007FFFFFC000000000
00000001FFFFFFC000000000000000007FFFFFE000000000
00000001FFFFFFC00000000000000000FFFFFFE000000000
00000003FFFFFFC00000000000000000FFFFFFE000000000
00000003FFFFFFE00000000000000000FFFFFFE000000000
00000003FFFFFFE00000000000000001FFFFFFF000000000
00000003FFFFFFF00000000000000001FFFFFFF000000000
00000007FFFFFFF00000000000000003FFFFFFF000000000
00000007FFFFFFF80000000000000003FFFFFFF800000000
00000007FFFFFFF80000000000000007FFFFFFF800000000
0000000FFFFFFFFC0000000000000007FFFFFFF800000000
0000000FFFFFFFFC000000000000000FFFFFFFF800000000
0000000FFFFFFFFC000000000000000FFFFFFFFC00000000
0000000FFFFFFFFE000000000000000FFFFFFFFC00000000
0000001FFFFFFFFE000000000000001FFFFFFFFC00000000
0000001FFFFFFFFF000000000000001FFFFFFFFC00000000
0000001FFFFFFFFF000000000000003FFFFFFFFE00000000
0000001FFFFFFFFF800000000000003FFFFFFFFE00000000
0000003FFFFFFFFF800000000000007FFFFFFFFE00000000
0000003FFFFFFFFFC00000000000007FFFFFFFFF00000000
0000003FFFFFFFFFC0000000000000FFFFFFFFFF00000000
0000007FFFFFFFFFC0000000000000FFFFFFFFFF00000000
0000007FFFFFFFFFE0000000000000FFFFFFFFFF00000000
0000007FFFFFFFFFE0000000000001FFFFFFFFFF80000000
0000007FFFFFFFFFF0000000000001FFFFFFFFFF80000000
000000FFFFFFFFFFF0000000000003FFFFFFFFFF80000000
000000FFFFFFFFFFF8000000000003FFFFEFFFFF80000000
000000FFFFF9FFFFF8000000000007FFFFEFFFFFC0000000
000001FFFFF9FFFFF8000000000007FFFFCFFFFFC0000000
000001FFFFF9FFFFFC000000000007FFFFCFFFFFC0000000
000001FFFFF8FFFFFC00000000000FFFFF87FFFFE0000000
000001FFFFF0FFFFFE00000000000FFFFF87FFFFE0000000
000003FFFFF07FFFFE00000000001FFFFF07FFFFE0000000
000003FFFFF07FFFFF00000000001FFFFF03FFFFE0000000
000003FFFFE03FFFFF00000000003FFFFF03FFFFF0000000
000003FFFFE03FFFFF80000000003FFFFE03FFFFF0000000
000007FFFFE01FFFFF80000000007FFFFE03FFFFF0000000
000007FFFFE01FFFFF80000000007FFFFC01FFFFF8000000
000007FFFFC01FFFFFC0000000007FFFFC01FFFFF8000000
00000FFFFFC00FFFFFC000000000FFFFF801FFFFF8000000
00000FFFFFC00FFFFFE000000000FFFFF801FFFFF8000000
00000FFFFFC007FFFFE000000001FFFFF000FFFFFC000000
00000FFFFF8007FFFFF000000001FFFFF000FFFFFC000000
00001FFFFF8003FFFFF000000003FFFFF000FFFFFC000000
00001FFFFF8003FFFFF800000003FFFFE0007FFFFC000000
00001FFFFF0003FFFFF800000007FFFFE0007FFFFE000000
00001FFFFF0001FFFFF800000007FFFFC0007FFFFE000000
00003FFFFF0001FFFFFC00000007FFFFC0007FFFFE000000
00003FFFFF0000FFFFFC0000000FFFFF80003FFFFF000000
00003FFFFE0000FFFFFE0000000FFFFF80003FFFFF000000
00007FFFFE00007FFFFE0000001FFFFF80003FFFFF000000
00007FFFFE00007FFFFF0000001FFFFF00001FFFFF000000
00007FFFFC00003FFFFF0000003FFFFF00001FFFFF800000
00007FFFFC00003FFFFF0000003FFFFE00001FFFFF800000
0000FFFFFC00003FFFFF8000003FFFFE00001FFFFF800000
0000FFFFFC00001FFFFF8000007FFFFC00000FFFFF800000
0000FFFFF800001FFFFFC000007FFFFC00000FFFFFC00000
0001FFFFF800000FFFFFC00000FFFFF800000FFFFFC00000
0001FFFFF800000FFFFFE00000FFFFF800000FFFFFC00000
0001FFFFF8000007FFFFE00001FFFFF8000007FFFFE00000
0001FFFFF0000007FFFFF00001FFFFF0000007FFFFE00000
0003FFFFF0000003FFFFF00003FFFFF0000007FFFFE00000
0003FFFFF0000003FFFFF00003FFFFE0000003FFFFE00000
0003FFFFE0000003FFFFF80003FFFFE0000003FFFFF00000
0003FFFFE0000001FFFFF80007FFFFC0000003FFFFF00000
0007FFFFE0000001FFFFFC0007FFFFC0000003FFFFF00000
0007FFFFE0000000FFFFFC000FFFFF80000001FFFFF00000
0007FFFFC0000000FFFFFE000FFFFF80000001FFFFF80000
000FFFFFC00000007FFFFE001FFFFF80000001FFFFF80000
000FFFFFC00000007FFFFF001FFFFF00000001FFFFF80000
000FFFFFC00000007FFFFF003FFFFF00000000FFFFFC0000
000FFFFF800000003FFFFF003FFFFE00000000FFFFFC0000
001FFFFF800000003FFFFF803FFFFE00000000FFFFFC0000
001FFFFF800000001FFFFF807FFFFC000000007FFFFC0000
001FFFFF000000001FFFFFC07FFFFC000000007FFFFE0000
001FFFFF000000000FFFFFC0FFFFF8000000007FFFFE0000
003FFFFF000000000FFFFFE0FFFFF8000000007FFFFE0000
003FFFFF0000000007FFFFE1FFFFF8000000003FFFFF0000
003FFFFE0000000007FFFFE1FFFFF0000000003FFFFF0000
007FFFFE0000000007FFFFF1FFFFF0000000003FFFFF0000
007FFFFE0000000003FFFFF3FFFFE0000000001FFFFF0000
007FFFFC0000000003FFFFFBFFFFE0000000001FFFFF8000
007FFFFC0000000001FFFFFFFFFFC0000000001FFFFF8000
00FFFFFC0000000001FFFFFFFFFFC0000000001FFFFF8000
00FFFFFC0000000000FFFFFFFFFF80000000000FFFFF8000
00FFFFF80000000000FFFFFFFFFF80000000000FFFFFC000
01FFFFF800000000007FFFFFFFFF80000000000FFFFFC000
01FFFFF800000000007FFFFFFFFF00000000000FFFFFC000
01FFFFF800000000007FFFFFFFFF000000000007FFFFE000
01FFFFF000000000003FFFFFFFFE000000000007FFFFE000
03FFFFF000000000003FFFFFFFFE000000000007FFFFE000
03FFFFF000000000001FFFFFFFFC000000000003FFFFE000
03FFFFE000000000001FFFFFFFFC000000000003FFFFF000
03FFFFE000000000000FFFFFFFF8000000000003FFFFF000
07FFFFE000000000000FFFFFFFF8000000000003FFFFF000
07FFFFE0000000000007FFFFFFF8000000000001FFFFF000
07FFFFC0000000000007FFFFFFF0000000000001FFFFF800
0FFFFFC0000000000007FFFFFFF0000000000001FFFFF800
0FFFFFC0000000000003FFFFFFE0000000000001FFFFF800
0FFFFFC0000000000003FFFFFFE0000000000000FFFFFC00
0FFFFF80000000000001FFFFFFC0000000000000FFFFFC00
1FFFFF80000000000001FFFFFFC0000000000000FFFFFC00
1FFFFF80000000000000FFFFFF800000000000007FFFFC00
1FFFFF00000000000000FFFFFF800000000000007FFFFE00
3FFFFF00000000000000FFFFFF800000000000007FFFFE00
3FFFFF000000000000007FFFFF000000000000007FFFFE00
3FFFFF000000000000007FFFFF000000000000003FFFFE00
3FFFFE000000000000003FFFFE000000000000003FFFFF00
7FFFFE000000000000003FFFFE000000000000003FFFFF00
7FFFFE000000000000001FFFFC000000000000001FFFFF00
7FFFFC000000000000000FFFF8000000000000001FFFFF80
7FFFFC0000000000000007FFF0000000000000001FFFFF80
FFFFFC0000000000000003FFE0000000000000001FFFFF80
0000000000000000000000FF800000000000000000000000
000000000000000000000008000000000000000000000000
ENDCHAR
STARTCHAR N
ENCODING 78
SWIDTH 873 0
DWIDTH 151 0
BBX 131 126 10 0
BITMAP
00FE000000000000000000000003FFFFE0
03FF800000000000000000000003FFFFE0
0FFFE00000000000000000000003FFFFE0
1FFFF00000000000000000000003FFFFE0
1FFFF80000000000000000000003FFFFE0
3FFFFC0000000000000000000003FFFFE0
3FFFFE0000000000000000000003FFFFE0
7FFFFF0000000000000000000003FFFFE0
7FFFFF8000000000000000000003FFFFE0
7FFFFFC000000000000000000003FFFFE0
7FFFFFE000000000000000000003FFFFE0
FFFFFFF000000000000000000003FFFFE0
FFFFFFF800000000000000000003FFFFE0
FFFFFFFC00000000000000000003FFFFE0
FFFFFFFE00000000000000000003FFFFE0
FFFFFFFF00000000000000000003FFFFE0
FFFFFFFF80000000000000000003FFFFE0
FFFFFFFFC0000000000000000003FFFFE0
FFFFFFFFE0000000000000000003FFFFE0
FFFFFFFFF0000000000000000003FFFFE0
FFFFFFFFF8000000000000000003FFFFE0
FFFFFFFFFC000000000000000003FFFFE0
FFFFFFFFFE000000000000000003FFFFE0
FFFFFFFFFF000000000000000003FFFFE0
FFFFFFFFFF800000000000000003FFFFE0
FFFFFFFFFFC00000000000000003FFFFE0
FFFFFFFFFFE00000000000000003FFFFE0
FFFFFFFFFFF00000000000000003FFFFE0
FFFFFFFFFFF80000000000000003FFFFE0
FFFFFFFFFFFC0000000000000003FFFFE0
FFFFFFFFFFFE0000000000000003FFFFE0
FFFFFFFFFFFF0000000000000003FFFFE0
FFFFFFFFFFFFC000000000000003FFFFE0
FFFFFFFFFFFFE000000000000003FFFFE0
FFFFFFFFFFFFF000000000000003FFFFE0
FFFFFBFFFFFFF800000000000003FFFFE0
FFFFF9FFFFFFFC00000000000003FFFFE0
FFFFF8FFFFFFFE00000000000003FFFFE0
FFFFF87FFFFFFF00000000000003FFFFE0
FFFFF83FFFFFFF80000000000003FFFFE0
FFFFF81FFFFFFFC0000000000003FFFFE0
FFFFF80FFFFFFFE0000000000003FFFFE0
FFFFF807FFFFFFF0000000000003FFFFE0
FFFFF803FFFFFFF8000000000003FFFFE0
FFFFF801FFFFFFFC000000000003FFFFE0
FFFFF800FFFFFFFE000000000003FFFFE0
FFFFF8007FFFFFFF000000000003FFFFE0
FFFFF8003FFFFFFF800000000003FFFFE0
FFFFF8001FFFFFFFC00000000003FFFFE0
FFFFF8000FFFFFFFE00000000003FFFFE0
FFFFF80007FFFFFFF00000000003FFFFE0
FFFFF80003FFFFFFF80000000003FFFFE0
FFFFF80001FFFFFFFC0000000003FFFFE0
FFFFF80000FFFFFFFE0000000003FFFFE0
FFFFF800007FFFFFFF0000000003FFFFE0
FFFFF800003FFFFFFF8000000003FFFFE0
FFFFF800001FFFFFFFC000000003FFFFE0
FFFFF800000FFFFFFFE000000003FFFFE0
FFFFF8000007FFFFFFF000000003FFFFE0
FFFFF8000003FFFFFFF800000003FFFFE0
FFFFF8000001FFFFFFFC00000003FFFFE0
FFFFF8000000FFFFFFFE00000003FFFFE0
FFFFF80000007FFFFFFF00000003FFFFE0
FFFFF80000003FFFFFFF80000003FFFFE0
FFFFF80000001FFFFFFFC0000003FFFFE0
FFFFF80000000FFFFFFFE0000003FFFFE0
FFFFF800000007FFFFFFF0000003FFFFE0
FFFFF800000003FFFFFFF8000003FFFFE0
FFFFF800000001FFFFFFFC000003FFFFE0
FFFFF800000000FFFFFFFE000003FFFFE0
FFFFF8000000007FFFFFFF000003FFFFE0
FFFFF8000000003FFFFFFF800003FFFFE0
FFFFF8000000001FFFFFFFC00003FFFFE0
FFFFF80000000007FFFFFFE00003FFFFE0
FFFFF80000000003FFFFFFF00003FFFFE0
FFFFF80000000001FFFFFFF80003FFFFE0
FFFFF80000000000FFFFFFFC0003FFFFE0
FFFFF800000000007FFFFFFE0003FFFFE0
FFFFF800000000003FFFFFFF0003FFFFE0
FFFFF800000000001FFFFFFF8003FFFFE0
FFFFF800000000000FFFFFFFC003FFFFE0
FFFFF8000000000007FFFFFFE003FFFFE0
FFFFF8000000000003FFFFFFF003FFFFE0
FFFFF8000000000001FFFFFFF803FFFFE0
FFFFF8000000000000FFFFFFFC03FFFFE0
FFFFF80000000000007FFFFFFE03FFFFE0
FFFFF80000000000003FFFFFFF03FFFFE0
FFFFF80000000000001FFFFFFF83FFFFE0
FFFFF80000000000000FFFFFFFC3FFFFE0
FFFFF800000000000007FFFFFFE3FFFFE0
FFFFF800000000000003FFFFFFFBFFFFE0
FFFFF800000000000001FFFFFFFBFFFFE0
FFFFF800000000000000FFFFFFFFFFFFE0
FFFFF8000000000000007FFFFFFFFFFFE0
FFFFF8000000000000003FFFFFFFFFFFE0
FFFFF8000000000000001FFFFFFFFFFFE0
FFFFF8000000000000000FFFFFFFFFFFE0
FFFFF80000000000000007FFFFFFFFFFE0
FFFFF80000000000000003FFFFFFFFFFE0
FFFFF80000000000000001FFFFFFFFFFE0
FFFFF80000000000000000FFFFFFFFFFE0
FFFFF800000000000000007FFFFFFFFFE0
FFFFF800000000000000003FFFFFFFFFE0
FFFFF800000000000000001FFFFFFFFFE0
FFFFF800000000000000000FFFFFFFFFE0
FFFFF8000000000000000007FFFFFFFFE0
FFFFF8000000000000000003FFFFFFFFE0
FFFFF8000000000000000001FFFFFFFFE0
FFFFF8000000000000000000FFFFFFFFE0
FFFFF80000000000000000007FFFFFFFE0
FFFFF80000000000000000003FFFFFFFE0
FFFFF80000000000000000001FFFFFFFE0
FFFFF800000000000000000007FFFFFFE0
FFFFF800000000000000000003FFFFFFE0
FFFFF800000000000000000001FFFFFFE0
FFFFF800000000000000000000FFFFFFE0
FFFFF8000000000000000000007FFFFFC0
FFFFF8000000000000000000003FFFFFC0
FFFFF8000000000000000000001FFFFFC0
FFFFF8000000000000000000000FFFFFC0
FFFFF80000000000000000000007FFFF80
FFFFF80000000000000000000003FFFF80
FFFFF80000000000000000000001FFFF00
FFFFF80000000000000000000000FFFE00
FFFFF800000000000000000000003FF800
FFFFF800000000000000000000000FE000
ENDCHAR
STARTCHAR O
ENCODING 79
SWIDTH 968 0
DWIDTH 167 0
BBX 154 126 7 0
BITMAP
00000000000007FFFFFFFFFFF800000000000000
000000000001FFFFFFFFFFFFFFE0000000000000
00000000001FFFFFFFFFFFFFFFFE000000000000
0000000000FFFFFFFFFFFFFFFFFFC00000000000
0000000007FFFFFFFFFFFFFFFFFFF80000000000
000000003FFFFFFFFFFFFFFFFFFFFE0000000000
00000000FFFFFFFFFFFFFFFFFFFFFF8000000000
00000003FFFFFFFFFFFFFFFFFFFFFFE000000000
00000007FFFFFFFFFFFFFFFFFFFFFFF800000000
0000001FFFFFFFFFFFFFFFFFFFFFFFFE00000000
0000007FFFFFFFFFFFFFFFFFFFFFFFFF00000000
000000FFFFFFFFFFFFFFFFFFFFFFFFFFC0000000
000001FFFFFFFFFFFFFFFFFFFFFFFFFFE0000000
000007FFFFFFFFFFFFFFFFFFFFFFFFFFF0000000
00000FFFFFFFFFFFFFFFFFFFFFFFFFFFFC000000
00001FFFFFFFFFFFFFFFFFFFFFFFFFFFFE000000
00003FFFFFFFFFFFFFFFFFFFFFFFFFFFFF000000
00007FFFFFFFFFFFFFFFFFFFFFFFFFFFFF800000
0000FFFFFFFFFFFFFFFFFFFFFFFFFFFFFFC00000
0001FFFFFFFFFFFFFFFFFFFFFFFFFFFFFFE00000
0003FFFFFFFFFFFFFFFFFFFFFFFFFFFFFFE00000
0007FFFFFFFFFFFFFFFFFFFFFFFFFFFFFFF00000
0007FFFFFFFFFE00000000001FFFFFFFFFF80000
000FFFFFFFFFC0000000000001FFFFFFFFFC0000
001FFFFFFFFE000000000000003FFFFFFFFE0000
001FFFFFFFF80000000000000007FFFFFFFE0000
003FFFFFFFE00000000000000001FFFFFFFF0000
007FFFFFFF8000000000000000007FFFFFFF8000
007FFFFFFE0000000000000000003FFFFFFF8000
00FFFFFFFC0000000000000000000FFFFFFFC000
00FFFFFFF000000000000000000007FFFFFFC000
01FFFFFFE000000000000000000003FFFFFFE000
01FFFFFFC000000000000000000001FFFFFFE000
03FFFFFF8000000000000000000000FFFFFFF000
03FFFFFF00000000000000000000007FFFFFF000
07FFFFFE00000000000000000000003FFFFFF800
07FFFFFE00000000000000000000001FFFFFF800
0FFFFFFC00000000000000000000000FFFFFF800
0FFFFFF8000000000000000000000007FFFFFC00
0FFFFFF8000000000000000000000007FFFFFC00
1FFFFFF0000000000000000000000003FFFFFC00
1FFFFFE0000000000000000000000003FFFFFE00
1FFFFFE0000000000000000000000001FFFFFE00
3FFFFFC0000000000000000000000001FFFFFE00
3FFFFFC0000000000000000000000000FFFFFF00
3FFFFFC0000000000000000000000000FFFFFF00
3FFFFF800000000000000000000000007FFFFF00
3FFFFF800000000000000000000000007FFFFF00
7FFFFF000000000000000000000000007FFFFF00
7FFFFF000000000000000000000000003FFFFF80
7FFFFF000000000000000000000000003FFFFF80
7FFFFF000000000000000000000000003FFFFF80
7FFFFE000000000000000000000000003FFFFF80
7FFFFE000000000000000000000000001FFFFF80
7FFFFE000000000000000000000000001FFFFF80
FFFFFE000000000000000000000000001FFFFF80
FFFFFE000000000000000000000000001FFFFF80
FFFFFC000000000000000000000000001FFFFF80
FFFFFC000000000000000000000000001FFFFF80
FFFFFC000000000000000000000000001FFFFF80
FFFFFC000000000000000000000000000FFFFFC0
FFFFFC000000000000000000000000000FFFFFC0
FFFFFC000000000000000000000000000FFFFFC0
FFFFFC000000000000000000000000000FFFFFC0
FFFFFC000000000000000000000000000FFFFF80
FFFFFC000000000000000000000000001FFFFF80
FFFFFC000000000000000000000000001FFFFF80
FFFFFC000000000000000000000000001FFFFF80
7FFFFE000000000000000000000000001FFFFF80
7FFFFE000000000000000000000000001FFFFF80
7FFFFE000000000000000000000000001FFFFF80
7FFFFE000000000000000000000000001FFFFF80
7FFFFE000000000000000000000000001FFFFF80
7FFFFE000000000000000000000000003FFFFF80
7FFFFF000000000000000000000000003FFFFF00
3FFFFF000000000000000000000000003FFFFF00
3FFFFF000000000000000000000000003FFFFF00
3FFFFF800000000000000000000000007FFFFF00
3FFFFF800000000000000000000000007FFFFF00
3FFFFF80000000000000000000000000FFFFFE00
1FFFFFC0000000000000000000000000FFFFFE00
1FFFFFC0000000000000000000000000FFFFFE00
1FFFFFE0000000000000000000000001FFFFFE00
0FFFFFE0000000000000000000000001FFFFFC00
0FFFFFF0000000000000000000000003FFFFFC00
0FFFFFF0000000000000000000000003FFFFFC00
07FFFFF8000000000000000000000007FFFFF800
07FFFFF800000000000000000000000FFFFFF800
07FFFFFC00000000000000000000000FFFFFF000
03FFFFFE00000000000000000000001FFFFFF000
03FFFFFF00000000000000000000003FFFFFF000
01FFFFFF80000000000000000000007FFFFFE000
01FFFFFF8000000000000000000000FFFFFFE000
00FFFFFFC000000000000000000001FFFFFFC000
00FFFFFFF000000000000000000003FFFFFFC000
007FFFFFF800000000000000000007FFFFFF8000
007FFFFFFC0000000000000000000FFFFFFF8000
003FFFFFFE0000000000000000003FFFFFFF0000
001FFFFFFF8000000000000000007FFFFFFE0000
001FFFFFFFE00000000000000001FFFFFFFE0000
000FFFFFFFF80000000000000007FFFFFFFC0000
0007FFFFFFFE000000000000003FFFFFFFF80000
0007FFFFFFFFC0000000000001FFFFFFFFF80000
0003FFFFFFFFFE00000000001FFFFFFFFFF00000
0001FFFFFFFFFFFFFFFFFFFFFFFFFFFFFFE00000
0000FFFFFFFFFFFFFFFFFFFFFFFFFFFFFFC00000
00007FFFFFFFFFFFFFFFFFFFFFFFFFFFFF800000
00003FFFFFFFFFFFFFFFFFFFFFFFFFFFFF000000
00001FFFFFFFFFFFFFFFFFFFFFFFFFFFFE000000
00000FFFFFFFFFFFFFFFFFFFFFFFFFFFFC000000
000007FFFFFFFFFFFFFFFFFFFFFFFFFFF8000000
000003FFFFFFFFFFFFFFFFFFFFFFFFFFF0000000
000001FFFFFFFFFFFFFFFFFFFFFFFFFFE0000000
000000FFFFFFFFFFFFFFFFFFFFFFFFFF80000000
0000003FFFFFFFFFFFFFFFFFFFFFFFFF00000000
0000001FFFFFFFFFFFFFFFFFFFFFFFFE00000000
0000000FFFFFFFFFFFFFFFFFFFFFFFF800000000
00000003FFFFFFFFFFFFFFFFFFFFFFF000000000
00000000FFFFFFFFFFFFFFFFFFFFFFC000000000
000000003FFFFFFFFFFFFFFFFFFFFF0000000000
000000000FFFFFFFFFFFFFFFFFFFFC0000000000
0000000003FFFFFFFFFFFFFFFFFFF00000000000
00000000007FFFFFFFFFFFFFFFFF800000000000
00000000000FFFFFFFFFFFFFFFFC000000000000
000000000001FFFFFFFFFFFFFFC0000000000000
00000000000007FFFFFFFFFFF000000000000000
ENDCHAR
STARTCHAR P
ENCODING 80
SWIDTH 867 0
DWIDTH 150 0
BBX 134 126 11 0
BITMAP
FFFFFFFFFFFFFFFFFFFFFFFF8000000000
FFFFFFFFFFFFFFFFFFFFFFFFFC00000000
FFFFFFFFFFFFFFFFFFFFFFFFFFC0000000
FFFFFFFFFFFFFFFFFFFFFFFFFFF8000000
FFFFFFFFFFFFFFFFFFFFFFFFFFFE000000
FFFFFFFFFFFFFFFFFFFFFFFFFFFF800000
FFFFFFFFFFFFFFFFFFFFFFFFFFFFE00000
FFFFFFFFFFFFFFFFFFFFFFFFFFFFF00000
FFFFFFFFFFFFFFFFFFFFFFFFFFFFFC0000
FFFFFFFFFFFFFFFFFFFFFFFFFFFFFE0000
FFFFFFFFFFFFFFFFFFFFFFFFFFFFFF0000
FFFFFFFFFFFFFFFFFFFFFFFFFFFFFF8000
FFFFFFFFFFFFFFFFFFFFFFFFFFFFFFC000
FFFFFFFFFFFFFFFFFFFFFFFFFFFFFFE000
FFFFFFFFFFFFFFFFFFFFFFFFFFFFFFF000
FFFFFFFFFFFFFFFFFFFFFFFFFFFFFFF800
FFFFFFFFFFFFFFFFFFFFFFFFFFFFFFFC00
FFFFFFFFFFFFFFFFFFFFFFFFFFFFFFFE00
FFFFFFFFFFFFFFFFFFFFFFFFFFFFFFFE00
FFFFFFFFFFFFFFFFFFFFFFFFFFFFFFFF00
FFFFFFFFFFFFFFFFFFFFFFFFFFFFFFFF00
FFFFFFFFFFFFFFFFFFFFFFFFFFFFFFFF80
FFFFFC000000000000000003FFFFFFFFC0
FFFFFC0000000000000000003FFFFFFFC0
FFFFFC00000000000000000007FFFFFFC0
FFFFFC00000000000000000001FFFFFFE0
FFFFFC00000000000000000000FFFFFFE0
FFFFFC000000000000000000007FFFFFF0
FFFFFC000000000000000000003FFFFFF0
FFFFFC000000000000000000001FFFFFF0
FFFFFC000000000000000000000FFFFFF8
FFFFFC0000000000000000000007FFFFF8
FFFFFC0000000000000000000003FFFFF8
FFFFFC0000000000000000000003FFFFF8
FFFFFC0000000000000000000001FFFFF8
FFFFFC0000000000000000000001FFFFFC
FFFFFC0000000000000000000001FFFFFC
FFFFFC0000000000000000000000FFFFFC
FFFFFC0000000000000000000000FFFFFC
FFFFFC0000000000000000000000FFFFFC
FFFFFC0000000000000000000000FFFFFC
FFFFFC00000000000000000000007FFFFC
FFFFFC00000000000000000000007FFFFC
FFFFFC00000000000000000000007FFFFC
FFFFFC00000000000000000000007FFFFC
FFFFFC00000000000000000000007FFFFC
FFFFFC00000000000000000000007FFFFC
FFFFFC00000000000000000000007FFFFC
FFFFFC00000000000000000000007FFFFC
FFFFFC00000000000000000000007FFFFC
FFFFFC00000000000000000000007FFFFC
FFFFFC0000000000000000000000FFFFFC
FFFFFC0000000000000000000000FFFFFC
FFFFFC0000000000000000000000FFFFFC
FFFFFC0000000000000000000000FFFFFC
FFFFFC0000000000000000000001FFFFF8
FFFFFC0000000000000000000001FFFFF8
FFFFFC0000000000000000000003FFFFF8
FFFFFC0000000000000000000003FFFFF8
FFFFFC0000000000000000000007FFFFF8
FFFFFC0000000000000000000007FFFFF0
FFFFFC000000000000000000000FFFFFF0
FFFFFC000000000000000000001FFFFFF0
FFFFFC000000000000000000003FFFFFE0
FFFFFC000000000000000000007FFFFFE0
FFFFFC00000000000000000000FFFFFFC0
FFFFFC00000000000000000003FFFFFFC0
FFFFFC00000000000000000007FFFFFFC0
FFFFFC0000000000000000003FFFFFFF80
FFFFFC000000000000000003FFFFFFFF80
FFFFFC0003FFFFFFFFFFFFFFFFFFFFFF00
FFFFFC0003FFFFFFFFFFFFFFFFFFFFFE00
FFFFFC0003FFFFFFFFFFFFFFFFFFFFFE00
FFFFFC0003FFFFFFFFFFFFFFFFFFFFFC00
FFFFFC0003FFFFFFFFFFFFFFFFFFFFF800
FFFFFC0003FFFFFFFFFFFFFFFFFFFFF800
FFFFFC0003FFFFFFFFFFFFFFFFFFFFF000
FFFFFC0003FFFFFFFFFFFFFFFFFFFFE000
FFFFFC0003FFFFFFFFFFFFFFFFFFFFC000
FFFFFC0003FFFFFFFFFFFFFFFFFFFF8000
FFFFFC0003FFFFFFFFFFFFFFFFFFFF0000
FFFFFC0003FFFFFFFFFFFFFFFFFFFE0000
FFFFFC0003FFFFFFFFFFFFFFFFFFF80000
FFFFFC0003FFFFFFFFFFFFFFFFFFF00000
FFFFFC0003FFFFFFFFFFFFFFFFFFC00000
FFFFFC0003FFFFFFFFFFFFFFFFFF000000
FFFFFC0003FFFFFFFFFFFFFFFFFC000000
FFFFFC0003FFFFFFFFFFFFFFFFF0000000
FFFFFC0003FFFFFFFFFFFFFFFF80000000
FFFFFC0003FFFFFFFFFFFFFFFC00000000
FFFFFC0003FFFFFFFFFFFFFF0000000000
FFFFFC0000000000000000000000000000
FFFFFC0000000000000000000000000000
FFFFFC0000000000000000000000000000
FFFFFC0000000000000000000000000000
FFFFFC0000000000000000000000000000
FFFFFC0000000000000000000000000000
FFFFFC0000000000000000000000000000
FFFFFC0000000000000000000000000000
FFFFFC0000000000000000000000000000
FFFFFC0000000000000000000000000000
FFFFFC0000000000000000000000000000
FFFFFC0000000000000000000000000000
FFFFFC0000000000000000000000000000
FFFFFC0000000000000000000000000000
FFFFFC0000000000000000000000000000
FFFFFC0000000000000000000000000000
FFFFFC0000000000000000000000000000
FFFFFC0000000000000000000000000000
FFFFFC0000000000000000000000000000
FFFFFC0000000000000000000000000000
FFFFFC0000000000000000000000000000
FFFFFC0000000000000000000000000000
FFFFFC0000000000000000000000000000
FFFFFC0000000000000000000000000000
FFFFFC0000000000000000000000000000
FFFFFC0000000000000000000000000000
FFFFFC0000000000000000000000000000
FFFFFC0000000000000000000000000000
FFFFFC0000000000000000000000000000
FFFFFC0000000000000000000000000000
FFFFFC0000000000000000000000000000
FFFFFC0000000000000000000000000000
FFFFFC0000000000000000000000000000
FFFFFC0000000000000000000000000000
FFFFFC0000000000000000000000000000
ENDCHAR
STARTCHAR Q
ENCODING 81
SWIDTH 968 0
DWIDTH 167 0
BBX 160 126 7 0
BITMAP
00000000000007FFFFFFFFFFF800000000000000
000000000001FFFFFFFFFFFFFFE0000000000000
00000000001FFFFFFFFFFFFFFFFE000000000000
0000000000FFFFFFFFFFFFFFFFFFC00000000000
0000000007FFFFFFFFFFFFFFFFFFF80000000000
000000003FFFFFFFFFFFFFFFFFFFFE0000000000
00000000FFFFFFFFFFFFFFFFFFFFFF8000000000
00000003FFFFFFFFFFFFFFFFFFFFFFE000000000
00000007FFFFFFFFFFFFFFFFFFFFFFF800000000
0000001FFFFFFFFFFFFFFFFFFFFFFFFE00000000
0000007FFFFFFFFFFFFFFFFFFFFFFFFF00000000
000000FFFFFFFFFFFFFFFFFFFFFFFFFFC0000000
000001FFFFFFFFFFFFFFFFFFFFFFFFFFE0000000
000007FFFFFFFFFFFFFFFFFFFFFFFFFFF0000000
00000FFFFFFFFFFFFFFFFFFFFFFFFFFFFC000000
00001FFFFFFFFFFFFFFFFFFFFFFFFFFFFE000000
00003FFFFFFFFFFFFFFFFFFFFFFFFFFFFF000000
00007FFFFFFFFFFFFFFFFFFFFFFFFFFFFF800000
0000FFFFFFFFFFFFFFFFFFFFFFFFFFFFFFC00000
0001FFFFFFFFFFFFFFFFFFFFFFFFFFFFFFE00000
0003FFFFFFFFFFFFFFFFFFFFFFFFFFFFFFE00000
0007FFFFFFFFFFFFFFFFFFFFFFFFFFFFFFF00000
0007FFFFFFFFFE00000000001FFFFFFFFFF80000
000FFFFFFFFFC0000000000001FFFFFFFFFC0000
001FFFFFFFFE000000000000003FFFFFFFFE0000
001FFFFFFFF80000000000000007FFFFFFFE0000
003FFFFFFFE00000000000000001FFFFFFFF0000
007FFFFFFF8000000000000000007FFFFFFF8000
007FFFFFFE0000000000000000003FFFFFFF8000
00FFFFFFFC0000000000000000000FFFFFFFC000
00FFFFFFF000000000000000000007FFFFFFC000
01FFFFFFE000000000000000000003FFFFFFE000
01FFFFFFC000000000000000000001FFFFFFE000
03FFFFFF8000000000000000000000FFFFFFF000
03FFFFFF00000000000000000000007FFFFFF000
07FFFFFE00000000000000000000003FFFFFF800
07FFFFFE00000000000000000000001FFFFFF800
0FFFFFFC00000000000000000000000FFFFFF800
0FFFFFF8000000000000000000000007FFFFFC00
0FFFFFF8000000000000000000000007FFFFFC00
1FFFFFF0000000000000000000000003FFFFFC00
1FFFFFE0000000000000000000000003FFFFFE00
1FFFFFE0000000000000000000000001FFFFFE00
3FFFFFC0000000000000000000000001FFFFFE00
3FFFFFC0000000000000000000000000FFFFFF00
3FFFFFC0000000000000000000000000FFFFFF00
3FFFFF800000000000000000000000007FFFFF00
3FFFFF800000000000000000000000007FFFFF00
7FFFFF000000000000000000000000007FFFFF00
7FFFFF000000000000000000000000003FFFFF80
7FFFFF000000000000000000000000003FFFFF80
7FFFFF000000000000000000000000003FFFFF80
7FFFFE000000000000000000000000003FFFFF80
7FFFFE000000000000000000000000001FFFFF80
7FFFFE000000000000000000000000001FFFFF80
FFFFFE000000000000000000000000001FFFFF80
FFFFFE000000000000000000000000001FFFFF80
FFFFFC000000000000000000000000001FFFFF80
FFFFFC000000000000000000000000001FFFFF80
FFFFFC000000000000000000000000001FFFFF80
FFFFFC000000000000000000000000000FFFFFC0
FFFFFC000000000000000000000000000FFFFFC0
FFFFFC000000000000000000000000000FFFFFC0
FFFFFC000000000000000000000000000FFFFFC0
FFFFFC000000000000000000000000000FFFFF80
FFFFFC000000000000000000000000001FFFFF80
FFFFFC000000000000000000000000001FFFFF80
FFFFFC000000000000000000000000001FFFFF80
7FFFFE000000000000000000000000001FFFFF80
7FFFFE000000000000000000000000001FFFFF80
7FFFFE000000000000000000000000001FFFFF80
7FFFFE000000000000000000000000001FFFFF80
7FFFFE000000000000000000000000001FFFFF80
7FFFFE000000000000000000000000003FFFFF80
7FFFFF00000000001FFFFFFF000000003FFFFF80
3FFFFF00000000000FFFFFFF800000003FFFFF00
3FFFFF000000000003FFFFFFE00000003FFFFF00
3FFFFF800000000001FFFFFFF00000007FFFFF00
3FFFFF800000000000FFFFFFF80000007FFFFF00
3FFFFF8000000000007FFFFFFC000000FFFFFE00
1FFFFFC000000000001FFFFFFE000000FFFFFE00
1FFFFFC000000000000FFFFFFF000000FFFFFE00
1FFFFFE0000000000007FFFFFFC00001FFFFFE00
0FFFFFE0000000000001FFFFFFE00001FFFFFC00
0FFFFFF0000000000000FFFFFFF00003FFFFFC00
0FFFFFF00000000000007FFFFFF80003FFFFFC00
07FFFFF80000000000003FFFFFFC0007FFFFF800
07FFFFF80000000000000FFFFFFF000FFFFFF800
07FFFFFC00000000000007FFFFFF800FFFFFF000
03FFFFFE00000000000003FFFFFFC01FFFFFF000
03FFFFFF00000000000001FFFFFFE03FFFFFF000
01FFFFFF800000000000007FFFFFF07FFFFFE000
01FFFFFF800000000000003FFFFFF8FFFFFFE000
00FFFFFFC00000000000001FFFFFFFFFFFFFC000
00FFFFFFF000000000000007FFFFFFFFFFFFC000
007FFFFFF800000000000003FFFFFFFFFFFF8000
007FFFFFFC00000000000001FFFFFFFFFFFF8000
003FFFFFFE00000000000000FFFFFFFFFFFF0000
001FFFFFFF800000000000003FFFFFFFFFFE0000
001FFFFFFFE00000000000001FFFFFFFFFFE0000
000FFFFFFFF80000000000000FFFFFFFFFFC0000
0007FFFFFFFE00000000000007FFFFFFFFF80000
0007FFFFFFFFC0000000000001FFFFFFFFF00000
0003FFFFFFFFFE00000000003FFFFFFFFFF00000
0001FFFFFFFFFFFFFFFFFFFFFFFFFFFFFFE00000
0000FFFFFFFFFFFFFFFFFFFFFFFFFFFFFFC00000
00007FFFFFFFFFFFFFFFFFFFFFFFFFFFFF800000
00003FFFFFFFFFFFFFFFFFFFFFFFFFFFFF000000
00001FFFFFFFFFFFFFFFFFFFFFFFFFFFFF800000
00000FFFFFFFFFFFFFFFFFFFFFFFFFFFFFE00000
000007FFFFFFFFFFFFFFFFFFFFFFFFFFFFF00000
000003FFFFFFFFFFFFFFFFFFFFFFFFFFFFF80000
000001FFFFFFFFFFFFFFFFFFFFFFFFFFFFFC0000
000000FFFFFFFFFFFFFFFFFFFFFFFFFFFFFF0000
0000003FFFFFFFFFFFFFFFFFFFFFFFFFFFFF8000
0000001FFFFFFFFFFFFFFFFFFFFFFFFFFFFFC000
0000000FFFFFFFFFFFFFFFFFFFFFFFFFFFFFF000
00000003FFFFFFFFFFFFFFFFFFFFFFFFFFFFF800
00000000FFFFFFFFFFFFFFFFFFFFFFFFFFFFFC00
000000003FFFFFFFFFFFFFFFFFFFFF1FFFFFFE00
000000000FFFFFFFFFFFFFFFFFFFFC0FFFFFFF80
0000000003FFFFFFFFFFFFFFFFFFF007FFFFFFC0
00000000007FFFFFFFFFFFFFFFFF8003FFFFFFE0
00000000000FFFFFFFFFFFFFFFFC0000FFFFFFF8
000000000001FFFFFFFFFFFFFFC000007FFFFFFC
00000000000007FFFFFFFFFFF00000003FFFFFFF
ENDCHAR
STARTCHAR R
ENCODING 82
SWIDTH 921 0
DWIDTH 159 0
BBX 148 126 11 0
BITMAP
FFFFFFFFFFFFFFFFFFFFFFFFC0000000000000
FFFFFFFFFFFFFFFFFFFFFFFFFF000000000000
FFFFFFFFFFFFFFFFFFFFFFFFFFE00000000000
FFFFFFFFFFFFFFFFFFFFFFFFFFFC0000000000
FFFFFFFFFFFFFFFFFFFFFFFFFFFF0000000000
FFFFFFFFFFFFFFFFFFFFFFFFFFFFC000000000
FFFFFFFFFFFFFFFFFFFFFFFFFFFFF000000000
FFFFFFFFFFFFFFFFFFFFFFFFFFFFFC00000000
FFFFFFFFFFFFFFFFFFFFFFFFFFFFFE00000000
FFFFFFFFFFFFFFFFFFFFFFFFFFFFFF80000000
FFFFFFFFFFFFFFFFFFFFFFFFFFFFFFC0000000
FFFFFFFFFFFFFFFFFFFFFFFFFFFFFFE0000000
FFFFFFFFFFFFFFFFFFFFFFFFFFFFFFF0000000
FFFFFFFFFFFFFFFFFFFFFFFFFFFFFFF8000000
FFFFFFFFFFFFFFFFFFFFFFFFFFFFFFFC000000
FFFFFFFFFFFFFFFFFFFFFFFFFFFFFFFC000000
FFFFFFFFFFFFFFFFFFFFFFFFFFFFFFFE000000
FFFFFFFFFFFFFFFFFFFFFFFFFFFFFFFF000000
FFFFFFFFFFFFFFFFFFFFFFFFFFFFFFFF800000
FFFFFFFFFFFFFFFFFFFFFFFFFFFFFFFF800000
FFFFFFFFFFFFFFFFFFFFFFFFFFFFFFFFC00000
FFFFFFFFFFFFFFFFFFFFFFFFFFFFFFFFC00000
FFFFFC000000000000000000FFFFFFFFE00000
FFFFFC0000000000000000000FFFFFFFE00000
FFFFFC00000000000000000001FFFFFFF00000
FFFFFC000000000000000000007FFFFFF00000
FFFFFC000000000000000000003FFFFFF80000
FFFFFC000000000000000000001FFFFFF80000
FFFFFC000000000000000000000FFFFFF80000
FFFFFC0000000000000000000007FFFFFC0000
FFFFFC0000000000000000000003FFFFFC0000
FFFFFC0000000000000000000001FFFFFC0000
FFFFFC0000000000000000000001FFFFFC0000
FFFFFC0000000000000000000000FFFFFE0000
FFFFFC0000000000000000000000FFFFFE0000
FFFFFC00000000000000000000007FFFFE0000
FFFFFC00000000000000000000007FFFFE0000
FFFFFC00000000000000000000007FFFFE0000
FFFFFC00000000000000000000007FFFFE0000
FFFFFC00000000000000000000003FFFFF0000
FFFFFC00000000000000000000003FFFFF0000
FFFFFC00000000000000000000003FFFFF0000
FFFFFC00000000000000000000003FFFFF0000
FFFFFC00000000000000000000003FFFFF0000
FFFFFC00000000000000000000003FFFFF0000
FFFFFC00000000000000000000003FFFFF0000
FFFFFC00000000000000000000003FFFFF0000
FFFFFC00000000000000000000003FFFFF0000
FFFFFC00000000000000000000003FFFFF0000
FFFFFC00000000000000000000003FFFFF0000
FFFFFC00000000000000000000003FFFFF0000
FFFFFC00000000000000000000003FFFFF0000
FFFFFC00000000000000000000003FFFFF0000
FFFFFC00000000000000000000003FFFFE0000
FFFFFC00000000000000000000007FFFFE0000
FFFFFC00000000000000000000007FFFFE0000
FFFFFC00000000000000000000007FFFFE0000
FFFFFC00000000000000000000007FFFFE0000
FFFFFC0000000000000000000000FFFFFE0000
FFFFFC0000000000000000000000FFFFFC0000
FFFFFC0000000000000000000001FFFFFC0000
FFFFFC0000000000000000000001FFFFFC0000
FFFFFC0000000000000000000003FFFFFC0000
FFFFFC0000000000000000000003FFFFF80000
FFFFFC0000000000000000000007FFFFF80000
FFFFFC000000000000000000000FFFFFF80000
FFFFFC000000000000000000001FFFFFF00000
FFFFFC000000000000000000003FFFFFF00000
FFFFFC00000000000000000000FFFFFFE00000
FFFFFC00000000000000000001FFFFFFE00000
FFFFFC0000000000000000000FFFFFFFC00000
FFFFFC000000000000000000FFFFFFFFC00000
FFFFFC0003FFFFFFFFFFFFFFFFFFFFFF800000
FFFFFC0003FFFFFFFFFFFFFFFFFFFFFF000000
FFFFFC0003FFFFFFFFFFFFFFFFFFFFFF000000
FFFFFC0003FFFFFFFFFFFFFFFFFFFFFE000000
FFFFFC0003FFFFFFFFFFFFFFFFFFFFFC000000
FFFFFC0003FFFFFFFFFFFFFFFFFFFFF8000000
FFFFFC0003FFFFFFFFFFFFFFFFFFFFF0000000
FFFFFC0003FFFFFFFFFFFFFFFFFFFFE0000000
FFFFFC0003FFFFFFFFFFFFFFFFFFFFC0000000
FFFFFC0003FFFFFFFFFFFFFFFFFFFF80000000
FFFFFC0003FFFFFFFFFFFFFFFFFFFF00000000
FFFFFC0003FFFFFFFFFFFFFFFFFFFC00000000
FFFFFC0003FFFFFFFFFFFFFFFFFFF800000000
FFFFFC0003FFFFFFFFFFFFFFFFFFE000000000
FFFFFC0003FFFFFFFFFFFFFFFFFF8000000000
FFFFFC0003FFFFFFFFFFFFFFFFFE0000000000
FFFFFC0003FFFFFFFFFFFFFFFFFE0000000000
FFFFFC0003FFFFFFFFFFFFFFFFFF0000000000
FFFFFC0003FFFFFFFFFFFFFFFFFF8000000000
FFFFFC0000000000000007FFFFFFC000000000
FFFFFC0000000000000003FFFFFFE000000000
FFFFFC0000000000000001FFFFFFF000000000
FFFFFC0000000000000000FFFFFFF800000000
FFFFFC00000000000000007FFFFFFC00000000
FFFFFC00000000000000003FFFFFFE00000000
FFFFFC00000000000000001FFFFFFF00000000
FFFFFC00000000000000000FFFFFFF80000000
FFFFFC000000000000000007FFFFFFC0000000
FFFFFC000000000000000007FFFFFFE0000000
FFFFFC000000000000000003FFFFFFF0000000
FFFFFC000000000000000001FFFFFFF8000000
FFFFFC000000000000000000FFFFFFF8000000
FFFFFC0000000000000000007FFFFFFC000000
FFFFFC0000000000000000003FFFFFFE000000
FFFFFC0000000000000000001FFFFFFF000000
FFFFFC0000000000000000000FFFFFFF800000
FFFFFC00000000000000000007FFFFFFC00000
FFFFFC00000000000000000003FFFFFFE00000
FFFFFC00000000000000000001FFFFFFF00000
FFFFFC00000000000000000001FFFFFFF80000
FFFFFC00000000000000000000FFFFFFFC0000
FFFFFC000000000000000000007FFFFFFE0000
FFFFFC000000000000000000003FFFFFFF0000
FFFFFC000000000000000000001FFFFFFF8000
FFFFFC000000000000000000000FFFFFFFC000
FFFFFC0000000000000000000007FFFFFFE000
FFFFFC0000000000000000000003FFFFFFF000
FFFFFC0000000000000000000001FFFFFFF800
FFFFFC0000000000000000000000FFFFFFFC00
FFFFFC00000000000000000000007FFFFFFE00
FFFFFC00000000000000000000007FFFFFFF00
FFFFFC00000000000000000000003FFFFFFF80
FFFFFC00000000000000000000001FFFFFFFC0
FFFFFC00000000000000000000000FFFFFFFF0
ENDCHAR
STARTCHAR S
ENCODING 83
SWIDTH 880 0
DWIDTH 152 0
BBX 135 126 9 0
BITMAP
00000001FFFFFFFFFFFFFFFFFFFFFFFF80
0000003FFFFFFFFFFFFFFFFFFFFFFFFF80
000001FFFFFFFFFFFFFFFFFFFFFFFFFF80
00000FFFFFFFFFFFFFFFFFFFFFFFFFFF80
00003FFFFFFFFFFFFFFFFFFFFFFFFFFF80
0000FFFFFFFFFFFFFFFFFFFFFFFFFFFF80
0003FFFFFFFFFFFFFFFFFFFFFFFFFFFF80
0007FFFFFFFFFFFFFFFFFFFFFFFFFFFF80
000FFFFFFFFFFFFFFFFFFFFFFFFFFFFF80
003FFFFFFFFFFFFFFFFFFFFFFFFFFFFF80
007FFFFFFFFFFFFFFFFFFFFFFFFFFFFF80
00FFFFFFFFFFFFFFFFFFFFFFFFFFFFFF80
00FFFFFFFFFFFFFFFFFFFFFFFFFFFFFF80
01FFFFFFFFFFFFFFFFFFFFFFFFFFFFFF80
03FFFFFFFFFFFFFFFFFFFFFFFFFFFFFF80
07FFFFFFFFFFFFFFFFFFFFFFFFFFFFFF80
07FFFFFFFFFFFFFFFFFFFFFFFFFFFFFF80
0FFFFFFFFFFFFFFFFFFFFFFFFFFFFFFF80
0FFFFFFFFFFFFFFFFFFFFFFFFFFFFFFF80
1FFFFFFFFFFFFFFFFFFFFFFFFFFFFFFF80
1FFFFFFFFFFFFFFFFFFFFFFFFFFFFFFF80
3FFFFFFFFFFFFFFFFFFFFFFFFFFFFFFF80
3FFFFFFFC0000000000000000000000000
3FFFFFFE00000000000000000000000000
7FFFFFF800000000000000000000000000
7FFFFFF000000000000000000000000000
7FFFFFC000000000000000000000000000
7FFFFFC000000000000000000000000000
7FFFFF8000000000000000000000000000
FFFFFF0000000000000000000000000000
FFFFFF0000000000000000000000000000
FFFFFF0000000000000000000000000000
FFFFFE0000000000000000000000000000
FFFFFE0000000000000000000000000000
FFFFFE0000000000000000000000000000
FFFFFE0000000000000000000000000000
FFFFFE0000000000000000000000000000
FFFFFE0000000000000000000000000000
FFFFFE0000000000000000000000000000
FFFFFE0000000000000000000000000000
FFFFFE0000000000000000000000000000
FFFFFE0000000000000000000000000000
7FFFFF0000000000000000000000000000
7FFFFF0000000000000000000000000000
7FFFFF0000000000000000000000000000
7FFFFF8000000000000000000000000000
3FFFFFC000000000000000000000000000
3FFFFFC000000000000000000000000000
3FFFFFF000000000000000000000000000
1FFFFFF800000000000000000000000000
1FFFFFFE00000000000000000000000000
0FFFFFFFC0000000000000000000000000
0FFFFFFFFFFFFFFFFFFFFFFFFF80000000
07FFFFFFFFFFFFFFFFFFFFFFFFFC000000
07FFFFFFFFFFFFFFFFFFFFFFFFFFC00000
03FFFFFFFFFFFFFFFFFFFFFFFFFFF00000
03FFFFFFFFFFFFFFFFFFFFFFFFFFFE0000
01FFFFFFFFFFFFFFFFFFFFFFFFFFFF0000
00FFFFFFFFFFFFFFFFFFFFFFFFFFFFC000
007FFFFFFFFFFFFFFFFFFFFFFFFFFFE000
003FFFFFFFFFFFFFFFFFFFFFFFFFFFF800
001FFFFFFFFFFFFFFFFFFFFFFFFFFFFC00
000FFFFFFFFFFFFFFFFFFFFFFFFFFFFE00
0007FFFFFFFFFFFFFFFFFFFFFFFFFFFF00
0001FFFFFFFFFFFFFFFFFFFFFFFFFFFF00
0000FFFFFFFFFFFFFFFFFFFFFFFFFFFF80
00003FFFFFFFFFFFFFFFFFFFFFFFFFFFC0
00000FFFFFFFFFFFFFFFFFFFFFFFFFFFC0
000001FFFFFFFFFFFFFFFFFFFFFFFFFFE0
0000003FFFFFFFFFFFFFFFFFFFFFFFFFF0
00000001FFFFFFFFFFFFFFFFFFFFFFFFF0
00000000000000000000000003FFFFFFF0
000000000000000000000000007FFFFFF8
000000000000000000000000001FFFFFF8
0000000000000000000000000007FFFFF8
0000000000000000000000000003FFFFFC
0000000000000000000000000001FFFFFC
0000000000000000000000000000FFFFFC
0000000000000000000000000000FFFFFC
00000000000000000000000000007FFFFE
00000000000000000000000000007FFFFE
00000000000000000000000000003FFFFE
00000000000000000000000000003FFFFE
00000000000000000000000000003FFFFE
00000000000000000000000000003FFFFE
00000000000000000000000000003FFFFE
00000000000000000000000000003FFFFE
00000000000000000000000000003FFFFE
00000000000000000000000000003FFFFE
00000000000000000000000000003FFFFE
00000000000000000000000000003FFFFE
00000000000000000000000000003FFFFE
00000000000000000000000000003FFFFE
00000000000000000000000000003FFFFE
00000000000000000000000000007FFFFE
00000000000000000000000000007FFFFE
0000000000000000000000000000FFFFFE
0000000000000000000000000001FFFFFC
0000000000000000000000000001FFFFFC
0000000000000000000000000003FFFFFC
0000000000000000000000000007FFFFFC
000000000000000000000000001FFFFFFC
000000000000000000000000007FFFFFF8
00000000000000000000000003FFFFFFF8
3FFFFFFFFFFFFFFFFFFFFFFFFFFFFFFFF8
3FFFFFFFFFFFFFFFFFFFFFFFFFFFFFFFF0
3FFFFFFFFFFFFFFFFFFFFFFFFFFFFFFFF0
3FFFFFFFFFFFFFFFFFFFFFFFFFFFFFFFE0
3FFFFFFFFFFFFFFFFFFFFFFFFFFFFFFFE0
3FFFFFFFFFFFFFFFFFFFFFFFFFFFFFFFC0
3FFFFFFFFFFFFFFFFFFFFFFFFFFFFFFF80
3FFFFFFFFFFFFFFFFFFFFFFFFFFFFFFF80
3FFFFFFFFFFFFFFFFFFFFFFFFFFFFFFF00
3FFFFFFFFFFFFFFFFFFFFFFFFFFFFFFE00
3FFFFFFFFFFFFFFFFFFFFFFFFFFFFFFC00
3FFFFFFFFFFFFFFFFFFFFFFFFFFFFFFC00
3FFFFFFFFFFFFFFFFFFFFFFFFFFFFFF800
3FFFFFFFFFFFFFFFFFFFFFFFFFFFFFE000
3FFFFFFFFFFFFFFFFFFFFFFFFFFFFFC000
3FFFFFFFFFFFFFFFFFFFFFFFFFFFFF8000
3FFFFFFFFFFFFFFFFFFFFFFFFFFFFE0000
3FFFFFFFFFFFFFFFFFFFFFFFFFFFF80000
3FFFFFFFFFFFFFFFFFFFFFFFFFFFE00000
3FFFFFFFFFFFFFFFFFFFFFFFFFFF800000
3FFFFFFFFFFFFFFFFFFFFFFFFFF8000000
3FFFFFFFFFFFFFFFFFFFFFFFFF00000000
ENDCHAR
STARTCHAR T
ENCODING 84
SWIDTH 720 0
DWIDTH 125 0
BBX 118 126 3 0
BITMAP
FFFFFFFFFFFFFFFFFFFFFFFFFFFFFC
FFFFFFFFFFFFFFFFFFFFFFFFFFFFFC
FFFFFFFFFFFFFFFFFFFFFFFFFFFFFC
FFFFFFFFFFFFFFFFFFFFFFFFFFFFFC
FFFFFFFFFFFFFFFFFFFFFFFFFFFFFC
FFFFFFFFFFFFFFFFFFFFFFFFFFFFFC
FFFFFFFFFFFFFFFFFFFFFFFFFFFFFC
FFFFFFFFFFFFFFFFFFFFFFFFFFFFFC
FFFFFFFFFFFFFFFFFFFFFFFFFFFFFC
FFFFFFFFFFFFFFFFFFFFFFFFFFFFFC
FFFFFFFFFFFFFFFFFFFFFFFFFFFFFC
FFFFFFFFFFFFFFFFFFFFFFFFFFFFFC
FFFFFFFFFFFFFFFFFFFFFFFFFFFFFC
FFFFFFFFFFFFFFFFFFFFFFFFFFFFFC
FFFFFFFFFFFFFFFFFFFFFFFFFFFFFC
FFFFFFFFFFFFFFFFFFFFFFFFFFFFFC
FFFFFFFFFFFFFFFFFFFFFFFFFFFFFC
FFFFFFFFFFFFFFFFFFFFFFFFFFFFFC
FFFFFFFFFFFFFFFFFFFFFFFFFFFFFC
FFFFFFFFFFFFFFFFFFFFFFFFFFFFFC
FFFFFFFFFFFFFFFFFFFFFFFFFFFFFC
FFFFFFFFFFFFFFFFFFFFFFFFFFFFFC
000000000000FFFFFC000000000000
000000000000FFFFFC000000000000
000000000000FFFFFC000000000000
000000000000FFFFFC000000000000
000000000000FFFFFC000000000000
000000000000FFFFFC000000000000
000000000000FFFFFC000000000000
000000000000FFFFFC000000000000
000000000000FFFFFC000000000000
000000000000FFFFFC000000000000
000000000000FFFFFC000000000000
000000000000FFFFFC000000000000
000000000000FFFFFC000000000000
000000000000FFFFFC000000000000
000000000000FFFFFC000000000000
000000000000FFFFFC000000000000
000000000000FFFFFC000000000000
000000000000FFFFFC000000000000
000000000000FFFFFC000000000000
000000000000FFFFFC000000000000
000000000000FFFFFC000000000000
000000000000FFFFFC000000000000
000000000000FFFFFC000000000000
000000000000FFFFFC000000000000
000000000000FFFFFC000000000000
000000000000FFFFFC000000000000
000000000000FFFFFC000000000000
000000000000FFFFFC000000000000
000000000000FFFFFC000000000000
000000000000FFFFFC000000000000
000000000000FFFFFC000000000000
000000000000FFFFFC000000000000
000000000000FFFFFC000000000000
000000000000FFFFFC000000000000
000000000000FFFFFC000000000000
000000000000FFFFFC000000000000
000000000000FFFFFC000000000000
000000000000FFFFFC000000000000
000000000000FFFFFC000000000000
000000000000FFFFFC000000000000
000000000000FFFFFC000000000000
000000000000FFFFFC000000000000
000000000000FFFFFC000000000000
000000000000FFFFFC000000000000
000000000000FFFFFC000000000000
000000000000FFFFFC000000000000
000000000000FFFFFC000000000000
000000000000FFFFFC000000000000
000000000000FFFFFC000000000000
000000000000FFFFFC000000000000
000000000000FFFFFC000000000000
000000000000FFFFFC000000000000
000000000000FFFFFC000000000000
000000000000FFFFFC000000000000
000000000000FFFFFC000000000000
000000000000FFFFFC000000000000
000000000000FFFFFC000000000000
000000000000FFFFFC000000000000
000000000000FFFFFC000000000000
000000000000FFFFFC000000000000
000000000000FFFFFC000000000000
000000000000FFFFFC000000000000
000000000000FFFFFC000000000000
000000000000FFFFFC000000000000
000000000000FFFFFC000000000000
000000000000FFFFFC000000000000
000000000000FFFFFC000000000000
000000000000FFFFFC000000000000
000000000000FFFFFC000000000000
000000000000FFFFFC000000000000
000000000000FFFFFC000000000000
000000000000FFFFFC000000000000
000000000000FFFFFC000000000000
000000000000FFFFFC000000000000
000000000000FFFFFC000000000000
000000000000FFFFFC000000000000
000000000000FFFFFC000000000000
000000000000FFFFFC000000000000
000000000000FFFFFC000000000000
000000000000FFFFFC000000000000
000000000000FFFFFC000000000000
000000000000FFFFFC000000000000
000000000000FFFFFC000000000000
000000000000FFFFFC000000000000
000000000000FFFFFC000000000000
000000000000FFFFFC000000000000
000000000000FFFFFC000000000000
000000000000FFFFFC000000000000
000000000000FFFFFC000000000000
000000000000FFFFFC000000000000
000000000000FFFFFC000000000000
000000000000FFFFFC000000000000
000000000000FFFFFC000000000000
000000000000FFFFFC000000000000
000000000000FFFFFC000000000000
000000000000FFFFFC000000000000
000000000000FFFFFC000000000000
000000000000FFFFFC000000000000
000000000000FFFFFC000000000000
000000000000FFFFFC000000000000
000000000000FFFFFC000000000000
000000000000FFFFFC000000000000
000000000000FFFFFC000000000000
000000000000FFFFFC000000000000
ENDCHAR
STARTCHAR U
ENCODING 85
SWIDTH 889 0
DWIDTH 154 0
BBX 136 128 9 -2
BITMAP
FFFFFE00000000000000000000003FFFFF
FFFFFE00000000000000000000003FFFFF
FFFFFE00000000000000000000003FFFFF
FFFFFE00000000000000000000003FFFFF
FFFFFE00000000000000000000003FFFFF
FFFFFE00000000000000000000003FFFFF
FFFFFE00000000000000000000003FFFFF
FFFFFE00000000000000000000003FFFFF
FFFFFE00000000000000000000003FFFFF
FFFFFE00000000000000000000003FFFFF
FFFFFE00000000000000000000003FFFFF
FFFFFE00000000000000000000003FFFFF
FFFFFE00000000000000000000003FFFFF
FFFFFE00000000000000000000003FFFFF
FFFFFE00000000000000000000003FFFFF
FFFFFE00000000000000000000003FFFFF
FFFFFE00000000000000000000003FFFFF
FFFFFE00000000000000000000003FFFFF
FFFFFE00000000000000000000003FFFFF
FFFFFE00000000000000000000003FFFFF
FFFFFE00000000000000000000003FFFFF
FFFFFE00000000000000000000003FFFFF
FFFFFE00000000000000000000003FFFFF
FFFFFE00000000000000000000003FFFFF
FFFFFE00000000000000000000003FFFFF
FFFFFE00000000000000000000003FFFFF
FFFFFE00000000000000000000003FFFFF
FFFFFE00000000000000000000003FFFFF
FFFFFE00000000000000000000003FFFFF
FFFFFE00000000000000000000003FFFFF
FFFFFE00000000000000000000003FFFFF
FFFFFE00000000000000000000003FFFFF
FFFFFE00000000000000000000003FFFFF
FFFFFE00000000000000000000003FFFFF
FFFFFE00000000000000000000003FFFFF
FFFFFE00000000000000000000003FFFFF
FFFFFE00000000000000000000003FFFFF
FFFFFE00000000000000000000003FFFFF
FFFFFE00000000000000000000003FFFFF
FFFFFE00000000000000000000003FFFFF
FFFFFE00000000000000000000003FFFFF
FFFFFE00000000000000000000003FFFFF
FFFFFE00000000000000000000003FFFFF
FFFFFE00000000000000000000003FFFFF
FFFFFE00000000000000000000003FFFFF
FFFFFE00000000000000000000003FFFFF
FFFFFE00000000000000000000003FFFFF
FFFFFE00000000000000000000003FFFFF
FFFFFE00000000000000000000003FFFFF
FFFFFE00000000000000000000003FFFFF
FFFFFE00000000000000000000003FFFFF
FFFFFE00000000000000000000003FFFFF
FFFFFE00000000000000000000003FFFFF
FFFFFE00000000000000000000003FFFFF
FFFFFE00000000000000000000003FFFFF
FFFFFE00000000000000000000003FFFFF
FFFFFE00000000000000000000003FFFFF
FFFFFE00000000000000000000003FFFFF
FFFFFE00000000000000000000003FFFFF
FFFFFE00000000000000000000003FFFFF
FFFFFE00000000000000000000003FFFFF
FFFFFE00000000000000000000003FFFFF
FFFFFE00000000000000000000003FFFFF
FFFFFE00000000000000000000003FFFFF
FFFFFE00000000000000000000003FFFFF
FFFFFE00000000000000000000003FFFFF
FFFFFE00000000000000000000003FFFFF
FFFFFE00000000000000000000003FFFFF
FFFFFE00000000000000000000003FFFFF
FFFFFE00000000000000000000003FFFFF
FFFFFE00000000000000000000003FFFFF
FFFFFE00000000000000000000003FFFFF
FFFFFE00000000000000000000003FFFFF
FFFFFE00000000000000000000003FFFFF
FFFFFE00000000000000000000003FFFFF
FFFFFE00000000000000000000003FFFFF
FFFFFE00000000000000000000003FFFFF
FFFFFE00000000000000000000003FFFFF
FFFFFE00000000000000000000003FFFFE
FFFFFE00000000000000000000003FFFFE
FFFFFE00000000000000000000003FFFFE
7FFFFF00000000000000000000007FFFFE
7FFFFF00000000000000000000007FFFFE
7FFFFF00000000000000000000007FFFFE
7FFFFF00000000000000000000007FFFFE
7FFFFF8000000000000000000000FFFFFE
7FFFFF8000000000000000000000FFFFFC
7FFFFF8000000000000000000000FFFFFC
3FFFFFC000000000000000000001FFFFFC
3FFFFFC000000000000000000001FFFFFC
3FFFFFE000000000000000000003FFFFFC
3FFFFFE000000000000000000003FFFFF8
1FFFFFF000000000000000000007FFFFF8
1FFFFFF80000000000000000000FFFFFF8
1FFFFFF80000000000000000000FFFFFF0
0FFFFFFC0000000000000000001FFFFFF0
0FFFFFFE0000000000000000003FFFFFF0
0FFFFFFF0000000000000000007FFFFFE0
07FFFFFFC00000000000000001FFFFFFE0
07FFFFFFE00000000000000003FFFFFFE0
03FFFFFFF8000000000000000FFFFFFFC0
03FFFFFFFE000000000000003FFFFFFFC0
01FFFFFFFF80000000000000FFFFFFFF80
01FFFFFFFFF800000000000FFFFFFFFF80
00FFFFFFFFFF8000000000FFFFFFFFFF00
00FFFFFFFFFFFF8000007FFFFFFFFFFE00
007FFFFFFFFFFFFFFFFFFFFFFFFFFFFE00
003FFFFFFFFFFFFFFFFFFFFFFFFFFFFC00
001FFFFFFFFFFFFFFFFFFFFFFFFFFFF800
001FFFFFFFFFFFFFFFFFFFFFFFFFFFF000
000FFFFFFFFFFFFFFFFFFFFFFFFFFFF000
0007FFFFFFFFFFFFFFFFFFFFFFFFFFE000
0003FFFFFFFFFFFFFFFFFFFFFFFFFFC000
0001FFFFFFFFFFFFFFFFFFFFFFFFFF8000
0000FFFFFFFFFFFFFFFFFFFFFFFFFE0000
00003FFFFFFFFFFFFFFFFFFFFFFFFC0000
00001FFFFFFFFFFFFFFFFFFFFFFFF80000
00000FFFFFFFFFFFFFFFFFFFFFFFE00000
000003FFFFFFFFFFFFFFFFFFFFFFC00000
000000FFFFFFFFFFFFFFFFFFFFFF000000
0000003FFFFFFFFFFFFFFFFFFFFC000000
0000000FFFFFFFFFFFFFFFFFFFF0000000
00000003FFFFFFFFFFFFFFFFFF80000000
000000007FFFFFFFFFFFFFFFFC00000000
0000000007FFFFFFFFFFFFFFE000000000
00000000007FFFFFFFFFFFFE0000000000
000000000003FFFFFFFFFF800000000000
00000000000001FFFFFF80000000000000
ENDCHAR
STARTCHAR V
ENCODING 86
SWIDTH 989 0
DWIDTH 171 0
BBX 167 128 2 -2
BITMAP
FFFFFFF00000000000000000000000000007FFFFFE
7FFFFFF0000000000000000000000000000FFFFFFC
3FFFFFF8000000000000000000000000000FFFFFF8
1FFFFFF8000000000000000000000000001FFFFFF0
1FFFFFFC000000000000000000000000001FFFFFF0
0FFFFFFC000000000000000000000000003FFFFFE0
0FFFFFFE000000000000000000000000007FFFFFE0
07FFFFFF000000000000000000000000007FFFFFC0
03FFFFFF00000000000000000000000000FFFFFF80
03FFFFFF80000000000000000000000000FFFFFF80
01FFFFFF80000000000000000000000001FFFFFF00
01FFFFFFC0000000000000000000000001FFFFFF00
00FFFFFFE0000000000000000000000003FFFFFE00
007FFFFFE0000000000000000000000007FFFFFC00
007FFFFFF0000000000000000000000007FFFFFC00
003FFFFFF000000000000000000000000FFFFFF800
003FFFFFF800000000000000000000000FFFFFF800
001FFFFFFC00000000000000000000001FFFFFF000
000FFFFFFC00000000000000000000003FFFFFE000
000FFFFFFE00000000000000000000003FFFFFE000
0007FFFFFE00000000000000000000007FFFFFC000
0007FFFFFF00000000000000000000007FFFFFC000
0003FFFFFF0000000000000000000000FFFFFF8000
0001FFFFFF8000000000000000000001FFFFFF0000
0001FFFFFFC000000000000000000001FFFFFF0000
0000FFFFFFC000000000000000000003FFFFFE0000
0000FFFFFFE000000000000000000003FFFFFE0000
00007FFFFFE000000000000000000007FFFFFC0000
00003FFFFFF000000000000000000007FFFFF80000
00003FFFFFF80000000000000000000FFFFFF80000
00001FFFFFF80000000000000000001FFFFFF00000
00001FFFFFFC0000000000000000001FFFFFF00000
00000FFFFFFC0000000000000000003FFFFFE00000
000007FFFFFE0000000000000000003FFFFFC00000
000007FFFFFE0000000000000000007FFFFFC00000
000003FFFFFF000000000000000000FFFFFF800000
000003FFFFFF800000000000000000FFFFFF800000
000001FFFFFF800000000000000001FFFFFF000000
000000FFFFFFC00000000000000001FFFFFE000000
000000FFFFFFC00000000000000003FFFFFE000000
0000007FFFFFE00000000000000003FFFFFC000000
0000007FFFFFF00000000000000007FFFFFC000000
0000003FFFFFF0000000000000000FFFFFF8000000
0000001FFFFFF8000000000000000FFFFFF0000000
0000001FFFFFF8000000000000001FFFFFF0000000
0000000FFFFFFC000000000000001FFFFFE0000000
0000000FFFFFFE000000000000003FFFFFE0000000
00000007FFFFFE000000000000007FFFFFC0000000
00000003FFFFFF000000000000007FFFFF80000000
00000003FFFFFF00000000000000FFFFFF80000000
00000001FFFFFF80000000000000FFFFFF00000000
00000001FFFFFF80000000000001FFFFFF00000000
00000000FFFFFFC0000000000001FFFFFE00000000
000000007FFFFFE0000000000003FFFFFC00000000
000000007FFFFFE0000000000007FFFFFC00000000
000000003FFFFFF0000000000007FFFFF800000000
000000003FFFFFF000000000000FFFFFF800000000
000000001FFFFFF800000000000FFFFFF000000000
000000000FFFFFFC00000000001FFFFFE000000000
000000000FFFFFFC00000000003FFFFFE000000000
0000000007FFFFFE00000000003FFFFFC000000000
0000000007FFFFFE00000000007FFFFF8000000000
0000000003FFFFFF00000000007FFFFF8000000000
0000000001FFFFFF0000000000FFFFFF0000000000
0000000001FFFFFF8000000001FFFFFF0000000000
0000000000FFFFFFC000000001FFFFFE0000000000
0000000000FFFFFFC000000003FFFFFC0000000000
00000000007FFFFFE000000003FFFFFC0000000000
00000000003FFFFFE000000007FFFFF80000000000
00000000003FFFFFF000000007FFFFF80000000000
00000000001FFFFFF80000000FFFFFF00000000000
00000000001FFFFFF80000001FFFFFE00000000000
00000000000FFFFFFC0000001FFFFFE00000000000
000000000007FFFFFC0000003FFFFFC00000000000
000000000007FFFFFE0000003FFFFFC00000000000
000000000003FFFFFF0000007FFFFF800000000000
000000000003FFFFFF000000FFFFFF000000000000
000000000001FFFFFF800000FFFFFF000000000000
000000000000FFFFFF800001FFFFFE000000000000
000000000000FFFFFFC00001FFFFFE000000000000
0000000000007FFFFFC00003FFFFFC000000000000
0000000000007FFFFFE00003FFFFF8000000000000
0000000000003FFFFFF00007FFFFF8000000000000
0000000000001FFFFFF0000FFFFFF0000000000000
0000000000001FFFFFF8000FFFFFF0000000000000
0000000000000FFFFFF8001FFFFFE0000000000000
0000000000000FFFFFFC001FFFFFC0000000000000
00000000000007FFFFFE003FFFFFC0000000000000
00000000000003FFFFFE007FFFFF80000000000000
00000000000003FFFFFF007FFFFF80000000000000
00000000000001FFFFFF00FFFFFF00000000000000
00000000000001FFFFFF80FFFFFE00000000000000
00000000000000FFFFFFC1FFFFFE00000000000000
000000000000007FFFFFC1FFFFFC00000000000000
000000000000007FFFFFE3FFFFFC00000000000000
000000000000003FFFFFE7FFFFF800000000000000
000000000000003FFFFFF7FFFFF000000000000000
000000000000001FFFFFFFFFFFF000000000000000
000000000000000FFFFFFFFFFFE000000000000000
000000000000000FFFFFFFFFFFE000000000000000
0000000000000007FFFFFFFFFFC000000000000000
0000000000000007FFFFFFFFFF8000000000000000
0000000000000003FFFFFFFFFF8000000000000000
0000000000000001FFFFFFFFFF0000000000000000
0000000000000001FFFFFFFFFF0000000000000000
0000000000000000FFFFFFFFFE0000000000000000
0000000000000000FFFFFFFFFC0000000000000000
00000000000000007FFFFFFFFC0000000000000000
00000000000000003FFFFFFFF80000000000000000
00000000000000003FFFFFFFF80000000000000000
00000000000000001FFFFFFFF00000000000000000
00000000000000001FFFFFFFE00000000000000000
00000000000000000FFFFFFFE00000000000000000
000000000000000007FFFFFFC00000000000000000
000000000000000007FFFFFFC00000000000000000
000000000000000003FFFFFF800000000000000000
000000000000000003FFFFFF000000000000000000
000000000000000001FFFFFF000000000000000000
000000000000000000FFFFFE000000000000000000
000000000000000000FFFFFE000000000000000000
0000000000000000007FFFFC000000000000000000
0000000000000000007FFFF8000000000000000000
0000000000000000003FFFF8000000000000000000
0000000000000000001FFFF0000000000000000000
0000000000000000000FFFE0000000000000000000
00000000000000000007FFC0000000000000000000
00000000000000000001FF00000000000000000000
000000000000000000001000000000000000000000
ENDCHAR
STARTCHAR W
ENCODING 87
SWIDTH 1268 0
DWIDTH 219 0
BBX 215 128 2 -2
BITMAP
FFFFFFE000000000FFFFFFE0000000000000000000000003FFFFFE
7FFFFFF0000000007FFFFFE0000000000000000000000007FFFFFC
3FFFFFF0000000007FFFFFF0000000000000000000000007FFFFF8
3FFFFFF8000000003FFFFFF000000000000000000000000FFFFFF8
1FFFFFF8000000003FFFFFF800000000000000000000000FFFFFF0
1FFFFFFC000000001FFFFFF800000000000000000000001FFFFFF0
0FFFFFFC000000001FFFFFFC00000000000000000000001FFFFFE0
0FFFFFFE000000000FFFFFFC00000000000000000000003FFFFFE0
07FFFFFE000000000FFFFFFE00000000000000000000003FFFFFC0
03FFFFFF0000000007FFFFFE00000000000000000000007FFFFFC0
03FFFFFF0000000007FFFFFF00000000000000000000007FFFFF80
01FFFFFF8000000003FFFFFF0000000000000000000000FFFFFF80
01FFFFFF8000000003FFFFFF8000000000000000000000FFFFFF00
00FFFFFFC000000001FFFFFF8000000000000000000001FFFFFF00
00FFFFFFC000000001FFFFFFC000000000000000000001FFFFFE00
007FFFFFE000000000FFFFFFC000000000000000000003FFFFFC00
007FFFFFE000000000FFFFFFE000000000000000000007FFFFFC00
003FFFFFF0000000007FFFFFE000000000000000000007FFFFF800
003FFFFFF0000000003FFFFFF00000000000000000000FFFFFF800
001FFFFFF8000000003FFFFFF00000000000000000000FFFFFF000
001FFFFFF8000000001FFFFFF80000000000000000001FFFFFF000
000FFFFFFC000000001FFFFFF80000000000000000001FFFFFE000
0007FFFFFE000000000FFFFFFC0000000000000000003FFFFFE000
0007FFFFFE000000000FFFFFFC0000000000000000003FFFFFC000
0003FFFFFF0000000007FFFFFE0000000000000000007FFFFFC000
0003FFFFFF0000000007FFFFFE0000000000000000007FFFFF8000
0001FFFFFF8000000003FFFFFF000000000000000000FFFFFF8000
0001FFFFFF8000000003FFFFFF000000000000000000FFFFFF0000
0000FFFFFFC000000001FFFFFF800000000000000001FFFFFE0000
0000FFFFFFC000000001FFFFFF800000000000000001FFFFFE0000
00007FFFFFE000000000FFFFFFC00000000000000003FFFFFC0000
00007FFFFFE000000000FFFFFFC00000000000000003FFFFFC0000
00003FFFFFF0000000007FFFFFE00000000000000007FFFFF80000
00003FFFFFF0000000007FFFFFE00000000000000007FFFFF80000
00001FFFFFF8000000003FFFFFF0000000000000000FFFFFF00000
00001FFFFFF8000000003FFFFFF0000000000000001FFFFFF00000
00000FFFFFFC000000001FFFFFF8000000000000001FFFFFE00000
000007FFFFFC000000001FFFFFF8000000000000003FFFFFE00000
000007FFFFFE000000000FFFFFFC000000000000003FFFFFC00000
000003FFFFFE000000000FFFFFFC000000000000007FFFFFC00000
000003FFFFFF0000000007FFFFFE000000000000007FFFFF800000
000001FFFFFF0000000003FFFFFE00000000000000FFFFFF000000
000001FFFFFF8000000003FFFFFF00000000000000FFFFFF000000
000000FFFFFF8000000001FFFFFF00000000000001FFFFFE000000
000000FFFFFFC000000001FFFFFF80000000000001FFFFFE000000
0000007FFFFFE000000000FFFFFF80000000000003FFFFFC000000
0000007FFFFFE000000000FFFFFFC0000000000003FFFFFC000000
0000003FFFFFF0000000007FFFFFC0000000000007FFFFF8000000
0000003FFFFFF0000000007FFFFFE0000000000007FFFFF8000000
0000001FFFFFF8000000003FFFFFE000000000000FFFFFF0000000
0000000FFFFFF8000000003FFFFFF000000000000FFFFFF0000000
0000000FFFFFFC000000001FFFFFF000000000001FFFFFE0000000
00000007FFFFFC000000001FFFFFF800000000001FFFFFE0000000
00000007FFFFFE000000000FFFFFF800000000003FFFFFC0000000
00000003FFFFFE000000000FFFFFFC00000000007FFFFF80000000
00000003FFFFFF0000000007FFFFFC00000000007FFFFF80000000
00000001FFFFFF0000000007FFFFFE0000000000FFFFFF00000000
00000001FFFFFF8000000003FFFFFE0000000000FFFFFF00000000
00000000FFFFFF8000000003FFFFFF0000000001FFFFFE00000000
00000000FFFFFFC000000001FFFFFF0000000001FFFFFE00000000
000000007FFFFFC000000001FFFFFF8000000003FFFFFC00000000
000000007FFFFFE000000000FFFFFF8000000003FFFFFC00000000
000000003FFFFFE000000000FFFFFFC000000007FFFFF800000000
000000001FFFFFF000000000FFFFFFC000000007FFFFF800000000
000000001FFFFFF000000000FFFFFFE00000000FFFFFF000000000
000000000FFFFFF800000001FFFFFFE00000000FFFFFF000000000
000000000FFFFFFC00000001FFFFFFF00000001FFFFFE000000000
0000000007FFFFFC00000003FFFFFFF00000001FFFFFE000000000
0000000007FFFFFE00000007FFFFFFF80000003FFFFFC000000000
0000000003FFFFFE00000007FFFFFFF80000003FFFFF8000000000
0000000003FFFFFF0000000FFFFFFFFC0000007FFFFF8000000000
0000000001FFFFFF0000000FFFFFFFFC0000007FFFFF0000000000
0000000001FFFFFF8000001FFFFFFFFE000000FFFFFF0000000000
0000000000FFFFFF8000001FFFFFFFFE000001FFFFFE0000000000
0000000000FFFFFFC000003FFFFFFFFF000001FFFFFE0000000000
00000000007FFFFFC000003FFFFFFFFF000003FFFFFC0000000000
00000000003FFFFFE000007FFFFFFFFF800003FFFFFC0000000000
00000000003FFFFFE00000FFFFFFFFFF800007FFFFF80000000000
00000000001FFFFFF00000FFFFFFFFFFC00007FFFFF80000000000
00000000001FFFFFF00001FFFFFFFFFFC0000FFFFFF00000000000
00000000000FFFFFF80001FFFFFFFFFFE0000FFFFFF00000000000
00000000000FFFFFF80003FFFFFFFFFFE0001FFFFFE00000000000
000000000007FFFFFC0003FFFFFFFFFFF0001FFFFFC00000000000
000000000007FFFFFC0007FFFFFFFFFFF0003FFFFFC00000000000
000000000003FFFFFE0007FFFFFFFFFFF8003FFFFF800000000000
000000000003FFFFFE000FFFFFEFFFFFF8007FFFFF800000000000
000000000001FFFFFF001FFFFFC7FFFFFC007FFFFF000000000000
000000000001FFFFFF801FFFFFC7FFFFFC00FFFFFF000000000000
000000000000FFFFFF803FFFFF83FFFFFE00FFFFFE000000000000
0000000000007FFFFFC03FFFFF83FFFFFE01FFFFFE000000000000
0000000000007FFFFFC07FFFFF01FFFFFF03FFFFFC000000000000
0000000000003FFFFFE07FFFFF00FFFFFF03FFFFFC000000000000
0000000000003FFFFFE0FFFFFE00FFFFFF87FFFFF8000000000000
0000000000001FFFFFF0FFFFFE007FFFFF87FFFFF8000000000000
0000000000001FFFFFF1FFFFFC007FFFFFCFFFFFF0000000000000
0000000000000FFFFFFBFFFFFC003FFFFFCFFFFFE0000000000000
0000000000000FFFFFFBFFFFF8003FFFFFFFFFFFE0000000000000
00000000000007FFFFFFFFFFF8001FFFFFFFFFFFC0000000000000
00000000000007FFFFFFFFFFF0001FFFFFFFFFFFC0000000000000
00000000000003FFFFFFFFFFF0000FFFFFFFFFFF80000000000000
00000000000003FFFFFFFFFFE0000FFFFFFFFFFF80000000000000
00000000000001FFFFFFFFFFE00007FFFFFFFFFF00000000000000
00000000000001FFFFFFFFFFC00007FFFFFFFFFF00000000000000
00000000000000FFFFFFFFFF800003FFFFFFFFFE00000000000000
000000000000007FFFFFFFFF800003FFFFFFFFFE00000000000000
000000000000007FFFFFFFFF000001FFFFFFFFFC00000000000000
000000000000003FFFFFFFFF000001FFFFFFFFFC00000000000000
000000000000003FFFFFFFFE000000FFFFFFFFF800000000000000
000000000000001FFFFFFFFE000000FFFFFFFFF000000000000000
000000000000001FFFFFFFFC0000007FFFFFFFF000000000000000
000000000000000FFFFFFFFC0000003FFFFFFFE000000000000000
000000000000000FFFFFFFF80000003FFFFFFFE000000000000000
0000000000000007FFFFFFF80000001FFFFFFFC000000000000000
0000000000000007FFFFFFF00000001FFFFFFFC000000000000000
0000000000000003FFFFFFF00000000FFFFFFF8000000000000000
0000000000000003FFFFFFE00000000FFFFFFF8000000000000000
0000000000000001FFFFFFE000000007FFFFFF0000000000000000
0000000000000000FFFFFFC000000007FFFFFF0000000000000000
0000000000000000FFFFFFC000000003FFFFFE0000000000000000
00000000000000007FFFFF8000000003FFFFFE0000000000000000
00000000000000007FFFFF0000000001FFFFFC0000000000000000
00000000000000003FFFFF0000000001FFFFF80000000000000000
00000000000000003FFFFE0000000000FFFFF80000000000000000
00000000000000001FFFFC00000000007FFFF00000000000000000
00000000000000000FFFFC00000000003FFFE00000000000000000
000000000000000007FFF000000000001FFFC00000000000000000
000000000000000001FFE000000000000FFF000000000000000000
0000000000000000007F80000000000001FC000000000000000000
ENDCHAR
ENDFONT
